<svg xmlns="http://www.w3.org/2000/svg" width="460.41" height="121.368" viewBox="0 0 460.41 121.368">
  <g id="all" transform="translate(0 0.043)">
    <path id="Path_213" data-name="Path 213" d="M152.63,59.31V82.78a8.61,8.61,0,0,0,8.59,8.6h47.69V86.14H161.22a3.38,3.38,0,0,1-3.37-3.36V59.31a3.39,3.39,0,0,1,3.37-3.38h47.69V50.71H161.22A8.6,8.6,0,0,0,152.63,59.31Z" transform="translate(-9.82 -10.38)" fill="#bdbdbd"/>
    <path id="Path_214" data-name="Path 214" d="M268.57,68.43H226.09a3.38,3.38,0,0,1-3.37-3.33V50.71h-5.23V65.1a8.62,8.62,0,0,0,8.6,8.6h42.48v9.12a3.35,3.35,0,0,1-3.36,3.36H217.49v5.24H265.2a8.61,8.61,0,0,0,8.59-8.6V50.71h-5.22Z" transform="translate(-9.82 -10.38)" fill="#bdbdbd"/>
    <path id="Path_215" data-name="Path 215" d="M396.13,50.71H357a8.59,8.59,0,0,0-8.59,8.6V91.38h5.22V73.66h36.72a3.29,3.29,0,0,1,2.37,1l5.76,5.76a3.34,3.34,0,0,1,1,2.38v8.6h5.3V82.8a8.48,8.48,0,0,0-2.52-6.07l-3.46-3.47a8.6,8.6,0,0,0,6-8.14V59.31a8.61,8.61,0,0,0-8.62-8.6Zm3.33,14.39a3.36,3.36,0,0,1-3.36,3.37H353.65V59.31A3.37,3.37,0,0,1,357,55.93h39.11a3.38,3.38,0,0,1,3.33,3.38Z" transform="translate(-9.82 -10.38)" fill="#bdbdbd"/>
    <path id="Path_216" data-name="Path 216" d="M461.58,50.71H422.47a8.61,8.61,0,0,0-8.59,8.6V91.38h5.22V73.66H465V91.38h5.23V59.31a8.6,8.6,0,0,0-8.6-8.6ZM419.1,68.43V59.31a3.39,3.39,0,0,1,3.37-3.38h39.11A3.37,3.37,0,0,1,465,59.31v9.12Z" transform="translate(-9.82 -10.38)" fill="#bdbdbd"/>
    <path id="Path_217" data-name="Path 217" d="M339.26,59.31a8.6,8.6,0,0,0-8.6-8.6H291.53a8.6,8.6,0,0,0-8.6,8.6V82.78a8.61,8.61,0,0,0,8.6,8.6h39.11a8.61,8.61,0,0,0,8.59-8.6V77.09a8.64,8.64,0,0,0-6-8.19l3.45-3.45a8.55,8.55,0,0,0,2.58-6.14ZM334,77.09v5.76a3.36,3.36,0,0,1-3.37,3.36h-39.1a3.35,3.35,0,0,1-3.37-3.35h0v-9.2h42.48A3.37,3.37,0,0,1,334,77,.28.28,0,0,1,334,77.09Zm-1-15.33-5.76,5.75a3.38,3.38,0,0,1-2.38,1H288.18v-9.2a3.38,3.38,0,0,1,3.35-3.38h39.11A3.37,3.37,0,0,1,333,61.69Z" transform="translate(-9.82 -10.38)" fill="#bdbdbd"/>
    <path id="Path_218" data-name="Path 218" d="M61.87,130.16a23.61,23.61,0,0,0,16.8,0l38-14.48A10,10,0,0,0,118.81,98L102.67,87a3.52,3.52,0,0,0-3.24-.37L70.27,97.78,43.36,87.54V52.92L70.27,42.68l29.16,11.1a3.54,3.54,0,0,0,4.54-2,3.47,3.47,0,0,0-2-4.49h0L73.78,36.57V20.38a3.11,3.11,0,0,1,3.14-3.08,3.26,3.26,0,0,1,1.07.19l39.42,15a9.71,9.71,0,0,1,6.25,9V63.78A11.45,11.45,0,0,0,116,78.12a11.59,11.59,0,0,0,14.48,7.54,11.42,11.42,0,0,0,.17-21.82V41.52A16.7,16.7,0,0,0,119.9,26.05L80.51,11a10.19,10.19,0,0,0-13.1,5.82,9.81,9.81,0,0,0-.67,3.55v16.2L38.59,47.29a3.47,3.47,0,0,0-2.25,3.24V88.1L21.74,98a3.15,3.15,0,0,1-4.34-.81,3.09,3.09,0,0,1-.55-1.74v-54a9.74,9.74,0,0,1,6.25-9l7.76-2.95a11.62,11.62,0,0,0,16.23,1.8,11.36,11.36,0,0,0,1.77-16.07,11.63,11.63,0,0,0-16.23-1.75,11.42,11.42,0,0,0-4.32,8.93v.65l-7.74,3A16.72,16.72,0,0,0,9.82,41.49v54a10.11,10.11,0,0,0,10.19,10,10.29,10.29,0,0,0,5.69-1.75L40.31,93.8,69,104.71a3.53,3.53,0,0,0,2.52,0l28.69-10.92,14.62,9.94a3.08,3.08,0,0,1,.76,4.31,3.15,3.15,0,0,1-1.41,1.11l-38,14.48a16.52,16.52,0,0,1-11.71,0l-13-5v-.41a11.52,11.52,0,1,0-2.4,7Zm65.27-51a4.5,4.5,0,1,1,4.54-4.49h0a4.51,4.51,0,0,1-4.54,4.49ZM39.85,17.91A4.5,4.5,0,1,1,35.63,24h0a4.36,4.36,0,0,1-.3-1.59,4.52,4.52,0,0,1,4.51-4.53Zm0,104.89a4.51,4.51,0,1,1,4.32-3.09h0a4.53,4.53,0,0,1-4.32,3.13Z" transform="translate(-9.82 -10.38)" fill="#28b24b"/>
  </g>
</svg>
