<svg xmlns="http://www.w3.org/2000/svg" width="81.98" height="77.972" viewBox="0 0 81.98 77.972">
  <path id="black_logo" d="M33.119,77.031a14.842,14.842,0,0,0,10.687,0l24.207-9.3a6.462,6.462,0,0,0,1.337-11.338L59.08,49.335a2.227,2.227,0,0,0-2.063-.244L38.462,56.224,21.339,49.643V27.39l17.124-6.581,18.555,7.133a2.233,2.233,0,0,0,1.6-4.17h0L40.694,16.882V6.489a1.988,1.988,0,0,1,2.679-1.854l25.086,9.643a6.248,6.248,0,0,1,3.976,5.8v14.3a7.361,7.361,0,1,0,4.473.035V20.063a10.731,10.731,0,0,0-6.844-9.941L44.978.479a6.462,6.462,0,0,0-8.341,3.738,6.382,6.382,0,0,0-.422,2.272V16.882L18.321,23.771a2.237,2.237,0,0,0-1.422,2.1V50.021L7.585,56.388a1.988,1.988,0,0,1-3.112-1.64V20.063a6.248,6.248,0,0,1,3.976-5.8l4.936-1.894a7.346,7.346,0,1,0-1.62-4.593V8.2L6.839,10.1A10.731,10.731,0,0,0,0,20.043V54.728a6.462,6.462,0,0,0,10.1,5.318l9.285-6.387,18.277,7.008a2.222,2.222,0,0,0,1.605,0l18.257-7.018,9.3,6.387a1.988,1.988,0,0,1-.413,3.479L42.2,72.835a10.438,10.438,0,0,1-7.456,0l-8.276-3.186v-.263a7.376,7.376,0,1,0-1.526,4.473ZM74.648,44.265a2.888,2.888,0,1,1,2.893-2.873h0A2.888,2.888,0,0,1,74.648,44.265ZM19.107,4.893a2.888,2.888,0,1,1-2.7,3.932h0a2.9,2.9,0,0,1,2.679-3.932Zm0,67.41A2.893,2.893,0,1,1,22,69.411a2.943,2.943,0,0,1-.144.9h0a2.893,2.893,0,0,1-2.749,2.013Z" transform="translate(0 -0.054)" fill="#21b24b"/>
</svg>
