<svg xmlns="http://www.w3.org/2000/svg" width="88.003" height="88.003" viewBox="0 0 88.003 88.003">
  <path id="Icon_awesome-check-square" data-name="Icon awesome-check-square" d="M78.574,90.253H9.429A9.429,9.429,0,0,1,0,80.824V11.679A9.429,9.429,0,0,1,9.429,2.25H78.574A9.429,9.429,0,0,1,88,11.679V80.824A9.429,9.429,0,0,1,78.574,90.253ZM38.366,70.991,74.51,34.847a3.143,3.143,0,0,0,0-4.445l-4.445-4.445a3.143,3.143,0,0,0-4.445,0L36.144,55.434,22.382,41.672a3.143,3.143,0,0,0-4.445,0l-4.445,4.445a3.143,3.143,0,0,0,0,4.445L33.922,70.99a3.143,3.143,0,0,0,4.445,0Z" transform="translate(0 -2.25)" fill="#dbdbdb"/>
</svg>
