<svg xmlns="http://www.w3.org/2000/svg" width="146.618" height="88.003" viewBox="0 0 146.618 88.003">
  <path id="Icon_awesome-handshake" data-name="Icon awesome-handshake" d="M99.586,4.5H79.907a7.328,7.328,0,0,0-4.948,1.924L52.439,27.043c-.023.023-.046.069-.069.092a9.113,9.113,0,0,0-.481,12.829,9.555,9.555,0,0,0,12.852.619c.023-.023.069-.023.092-.046l18.3-16.769a3.665,3.665,0,0,1,4.948,5.407l-5.979,5.475,33.356,27.078a16.505,16.505,0,0,1,1.81,1.764V19.162L104.763,6.653A7.278,7.278,0,0,0,99.586,4.5Zm25.04,14.708V70.5a7.323,7.323,0,0,0,7.331,7.331h14.662V19.208Zm11,51.293a3.665,3.665,0,1,1,3.665-3.665A3.676,3.676,0,0,1,135.622,70.5ZM0,77.809H14.662a7.323,7.323,0,0,0,7.331-7.331V19.208H0ZM11,63.17a3.665,3.665,0,1,1-3.665,3.665A3.676,3.676,0,0,1,11,63.17Zm99.861,4.261-34.2-27.766-6.873,6.3A16.49,16.49,0,0,1,47.49,21.659L66.23,4.5h-19.2a7.318,7.318,0,0,0-5.177,2.153L29.324,19.162V70.455h4.192L54.249,89.218a14.659,14.659,0,0,0,20.618-2.131l.046-.046,4.1,3.551a8.514,8.514,0,0,0,11.981-1.237l7.193-8.843,1.237,1.008a7.319,7.319,0,0,0,10.309-1.077l2.176-2.68A7.344,7.344,0,0,0,110.857,67.431Z" transform="translate(0 -4.5)" fill="#dbdbdb"/>
</svg>
