<svg xmlns="http://www.w3.org/2000/svg" width="107.554" height="96.158" viewBox="0 0 107.554 96.158">
  <path id="Icon_awesome-wallet" data-name="Icon awesome-wallet" d="M90.337,21.054H15.67a3.134,3.134,0,0,1,0-6.268H90.885a3.133,3.133,0,0,0,3.134-3.134,9.4,9.4,0,0,0-9.4-9.4H12.536A12.535,12.535,0,0,0,0,14.786v62.68A12.535,12.535,0,0,0,12.536,90h77.8a9.7,9.7,0,0,0,9.95-9.4V30.456A9.7,9.7,0,0,0,90.337,21.054ZM81.483,61.8a6.268,6.268,0,1,1,6.268-6.268A6.269,6.269,0,0,1,81.483,61.8Z" transform="matrix(0.996, -0.087, 0.087, 0.996, -0.196, 6.499)" fill="#dbdbdb"/>
</svg>
