<svg xmlns="http://www.w3.org/2000/svg" width="82.352" height="96.077" viewBox="0 0 82.352 96.077">
  <path id="Icon_ionic-ios-git-network" data-name="Icon ionic-ios-git-network" d="M71.711,2.25A15.168,15.168,0,0,0,60.323,27.406a14.987,14.987,0,0,0,8.192,4.825v9.243L45.676,53.355,22.858,41.474V32.231a15.15,15.15,0,1,0-14.6-4.825,14.987,14.987,0,0,0,8.192,4.825v12.31a1.5,1.5,0,0,0,.836,1.351l25.2,13.039v9.415a15.145,15.145,0,1,0,14.583,4.825,14.988,14.988,0,0,0-8.192-4.825V58.931l25.2-13.039a1.5,1.5,0,0,0,.836-1.351V32.231a15.163,15.163,0,0,0-3.2-29.981ZM10.891,17.412a8.75,8.75,0,1,1,8.75,8.75A8.759,8.759,0,0,1,10.891,17.412ZM54.426,83.165a8.75,8.75,0,1,1-8.75-8.75A8.759,8.759,0,0,1,54.426,83.165ZM71.711,26.183a8.75,8.75,0,1,1,8.75-8.75A8.759,8.759,0,0,1,71.711,26.183Z" transform="translate(-4.5 -2.25)" fill="#9c9c9c"/>
</svg>
