<svg xmlns="http://www.w3.org/2000/svg" width="100.026" height="96.077" viewBox="0 0 100.026 96.077">
  <g id="Layer_2" data-name="Layer 2" transform="translate(0 -0.009)">
    <g id="Layer_1" data-name="Layer 1" transform="translate(0 0.009)">
      <path id="Path_376" data-name="Path 376" d="M58.078,48.51a2.318,2.318,0,0,1-.8-4.517l12.659-4.606A18.068,18.068,0,0,0,81.821,22.478a17.562,17.562,0,0,0-1.07-5.943L80.1,15.108a18.038,18.038,0,0,0-22.406-9.39L2.983,25.658a2.348,2.348,0,0,1-1.575-4.4L56.116,1.32A22.733,22.733,0,0,1,84.347,13.206a17.506,17.506,0,0,1,.713,1.724A22.287,22.287,0,0,1,86.4,22.537,22.674,22.674,0,0,1,71.539,43.814L58.88,48.42a2.556,2.556,0,0,1-.8.089Z" transform="translate(0.137 -0.009)" fill="#9c9c9c"/>
      <path id="Path_377" data-name="Path 377" d="M18.757,15.8a2.318,2.318,0,0,1-.8-4.517L34.863,5.136a2.348,2.348,0,0,1,1.575,4.4L19.559,15.686A2.5,2.5,0,0,1,18.757,15.8Z" transform="translate(32.267 9.963)" fill="#9c9c9c"/>
      <path id="Path_378" data-name="Path 378" d="M39.833,26.555H23.1a2.348,2.348,0,0,1,0-4.665h16.73a2.348,2.348,0,1,1,0,4.665Z" transform="translate(41.442 43.103)" fill="#9c9c9c"/>
      <path id="Path_379" data-name="Path 379" d="M46.652,30.706H19.908a2.348,2.348,0,0,1-2.348-2.348,2.318,2.318,0,0,1,2.348-2.318H46.652A2.318,2.318,0,0,1,49,28.358a2.348,2.348,0,0,1-2.348,2.348Z" transform="translate(34.622 51.315)" fill="#9c9c9c"/>
      <path id="Path_380" data-name="Path 380" d="M38.877,61.891A16.017,16.017,0,0,1,22.89,46.022v-.386a2.348,2.348,0,0,1,4.665,0v.386a11.352,11.352,0,1,0,22.674,0V32.68a11.352,11.352,0,0,0-22.674,0v.475a2.348,2.348,0,0,1-4.665,0V32.68a16.017,16.017,0,0,1,32,0V46.022A16.047,16.047,0,0,1,38.877,61.891Z" transform="translate(45.131 34.186)" fill="#9c9c9c"/>
      <path id="Path_381" data-name="Path 381" d="M24.58,52.79a9.48,9.48,0,0,1-9.45-9.45V22.212a2.348,2.348,0,0,1,2.348-2.348A2.318,2.318,0,0,1,19.8,22.212V43.341a4.784,4.784,0,1,0,9.539,0V16.923a2.348,2.348,0,0,1,4.665,0V43.341a9.45,9.45,0,0,1-9.42,9.45Z" transform="translate(29.831 29.23)" fill="#9c9c9c"/>
      <path id="Path_382" data-name="Path 382" d="M33.164,45.951H20.207A20.237,20.237,0,0,1,0,25.743V9.459A2.348,2.348,0,0,1,2.318,7.111H51.023A2.377,2.377,0,0,1,53.49,9.459V25.743A20.237,20.237,0,0,1,33.164,45.951ZM4.665,11.777V25.743A15.571,15.571,0,0,0,20.207,41.285H33.164A15.571,15.571,0,0,0,48.705,25.743V11.777Z" transform="translate(0 13.991)" fill="#9c9c9c"/>
      <path id="Path_383" data-name="Path 383" d="M15.67,32.869a11.56,11.56,0,1,1,11.56-11.56A11.56,11.56,0,0,1,15.67,32.869Zm0-18.424a6.894,6.894,0,1,0,6.894,6.865A6.894,6.894,0,0,0,15.67,14.445Z" transform="translate(8.103 19.197)" fill="#9c9c9c"/>
    </g>
  </g>
</svg>
