<svg id="Layer_2" data-name="Layer 2" xmlns="http://www.w3.org/2000/svg" width="104.055" height="96.077" viewBox="0 0 104.055 96.077">
  <g id="Object" transform="translate(0 0)">
    <rect id="Rectangle_43" data-name="Rectangle 43" width="13.861" height="4.437" transform="translate(42.431 29.774)" fill="#aaa"/>
    <path id="Path_384" data-name="Path 384" d="M220.3,329.357a12.165,12.165,0,0,1,6.928,2.156V321.75H213.37v9.762A12.182,12.182,0,0,1,220.3,329.357Z" transform="translate(-170.939 -257.766)" fill="#aaa"/>
    <path id="Path_385" data-name="Path 385" d="M76.981,386.17c-1.34,0-1.155.505-1.155,1.128v11.6c0,.624-.185,1.13,1.155,1.13H99.947a12.2,12.2,0,0,1,.151-13.861Z" transform="translate(-60.739 -309.375)" fill="#aaa"/>
    <path id="Path_386" data-name="Path 386" d="M319.106,386.17H298.53a12.212,12.212,0,0,1,.147,13.861h20.429c1.336,0,1.151-.505,1.151-1.13V387.3C320.266,386.675,320.451,386.17,319.106,386.17Z" transform="translate(-239.163 -309.375)" fill="#aaa"/>
    <path id="Path_387" data-name="Path 387" d="M2.422,0A2.422,2.422,0,0,0,0,2.42V27.354a2.422,2.422,0,0,0,2.422,2.42h99.211a2.42,2.42,0,0,0,2.422-2.42V2.42A2.42,2.42,0,0,0,101.633,0Zm8.75,14.012a4.84,4.84,0,1,1,.006,0Zm12.31,0a4.825,4.825,0,1,1,.006,0ZM99.05,24.182a1.167,1.167,0,0,1-1.126,1.207H60.162a1.171,1.171,0,0,1-1.13-1.207V23.106a1.169,1.169,0,0,1,1.13-1.193h37.77a1.165,1.165,0,0,1,1.126,1.193Zm0-8.153a1.163,1.163,0,0,1-1.126,1.193H60.162a1.167,1.167,0,0,1-1.13-1.193V14.945a1.167,1.167,0,0,1,1.13-1.2h37.77a1.165,1.165,0,0,1,1.126,1.2Zm0-8.153a1.165,1.165,0,0,1-1.126,1.193H60.162a1.169,1.169,0,0,1-1.13-1.193V6.781a1.171,1.171,0,0,1,1.13-1.213h37.77a1.167,1.167,0,0,1,1.126,1.205Z" transform="translate(0 0)" fill="#6c6c6c"/>
    <path id="Path_388" data-name="Path 388" d="M36.734,21.87a4.832,4.832,0,1,0,4.83,4.831,4.832,4.832,0,0,0-4.83-4.831Z" transform="translate(-25.556 -17.521)" fill="#c6c6c6"/>
    <path id="Path_389" data-name="Path 389" d="M93.81,26.7a4.83,4.83,0,1,0,4.832-4.83A4.83,4.83,0,0,0,93.81,26.7Z" transform="translate(-75.155 -17.521)" fill="#aaa"/>
    <path id="Path_390" data-name="Path 390" d="M297.977,28a1.171,1.171,0,0,0-1.13,1.205v1.078a1.169,1.169,0,0,0,1.13,1.193h37.77a1.165,1.165,0,0,0,1.126-1.193v-1.07A1.167,1.167,0,0,0,335.747,28Z" transform="translate(-237.815 -22.432)" fill="#fff"/>
    <path id="Path_391" data-name="Path 391" d="M297.977,69.1a1.167,1.167,0,0,0-1.13,1.2v1.078a1.167,1.167,0,0,0,1.13,1.193h37.77a1.163,1.163,0,0,0,1.126-1.193V70.3a1.165,1.165,0,0,0-1.126-1.2Z" transform="translate(-237.815 -55.359)" fill="#fff"/>
    <path id="Path_392" data-name="Path 392" d="M297.977,110.14a1.169,1.169,0,0,0-1.13,1.193v1.076a1.171,1.171,0,0,0,1.13,1.207h37.77a1.167,1.167,0,0,0,1.126-1.207v-1.076a1.165,1.165,0,0,0-1.126-1.193Z" transform="translate(-237.815 -88.237)" fill="#fff"/>
    <path id="Path_393" data-name="Path 393" d="M56.292,172H2.422A2.422,2.422,0,0,0,0,174.426V199.36a2.42,2.42,0,0,0,2.422,2.42h99.211a2.42,2.42,0,0,0,2.422-2.42V174.426A2.42,2.42,0,0,0,101.633,172ZM11.178,186.018a4.828,4.828,0,1,1,3.417-1.415,4.832,4.832,0,0,1-3.417,1.415Zm12.31,0a4.832,4.832,0,1,1,4.828-4.832A4.832,4.832,0,0,1,23.488,186.018Zm75.568,10.17a1.167,1.167,0,0,1-1.126,1.205H60.162a1.169,1.169,0,0,1-1.13-1.205v-1.074a1.171,1.171,0,0,1,1.13-1.205h37.77a1.167,1.167,0,0,1,1.126,1.205Zm0-8.153a1.165,1.165,0,0,1-1.126,1.193H60.162a1.167,1.167,0,0,1-1.13-1.193v-1.076a1.169,1.169,0,0,1,1.13-1.205h37.77a1.167,1.167,0,0,1,1.126,1.205Zm0-8.163a1.167,1.167,0,0,1-1.126,1.205H60.162a1.171,1.171,0,0,1-1.13-1.205V178.8a1.169,1.169,0,0,1,1.13-1.193h37.77a1.165,1.165,0,0,1,1.126,1.193Z" transform="translate(0 -137.796)" fill="#6c6c6c"/>
    <path id="Path_394" data-name="Path 394" d="M36.734,193.9a4.832,4.832,0,1,0,4.83,4.831,4.832,4.832,0,0,0-4.83-4.831Z" transform="translate(-25.556 -155.34)" fill="#c6c6c6"/>
    <path id="Path_395" data-name="Path 395" d="M93.81,198.73a4.83,4.83,0,1,0,4.832-4.83A4.83,4.83,0,0,0,93.81,198.73Z" transform="translate(-75.155 -155.34)" fill="#aaa"/>
    <path id="Path_396" data-name="Path 396" d="M297.977,200.08a1.169,1.169,0,0,0-1.13,1.193v1.076a1.171,1.171,0,0,0,1.13,1.205h37.77a1.167,1.167,0,0,0,1.126-1.205v-1.076a1.165,1.165,0,0,0-1.126-1.193Z" transform="translate(-237.815 -160.292)" fill="#fff"/>
    <path id="Path_397" data-name="Path 397" d="M297.977,241.12a1.169,1.169,0,0,0-1.13,1.205V243.4a1.167,1.167,0,0,0,1.13,1.193h37.77a1.165,1.165,0,0,0,1.126-1.193v-1.076a1.167,1.167,0,0,0-1.126-1.205Z" transform="translate(-237.815 -193.17)" fill="#fff"/>
    <path id="Path_398" data-name="Path 398" d="M297.977,282.17a1.171,1.171,0,0,0-1.13,1.205v1.074a1.169,1.169,0,0,0,1.13,1.205h37.77a1.167,1.167,0,0,0,1.126-1.205v-1.074a1.167,1.167,0,0,0-1.126-1.205Z" transform="translate(-237.815 -226.057)" fill="#fff"/>
    <path id="Path_399" data-name="Path 399" d="M205.859,362.156a12.257,12.257,0,1,0,3.074,3.049A12.218,12.218,0,0,0,205.859,362.156Zm4.083,10.078a11.013,11.013,0,1,1-11.011-11.009A11.013,11.013,0,0,1,209.942,372.234Z" transform="translate(-149.567 -288.409)" fill="#6c6c6c"/>
    <path id="Path_400" data-name="Path 400" d="M192.85,377.169a11.013,11.013,0,1,0,11.012-11.009,11.013,11.013,0,0,0-11.012,11.009Zm20.682,0a9.671,9.671,0,1,1-9.669-9.669,9.671,9.671,0,0,1,9.669,9.669Z" transform="translate(-154.499 -293.344)" fill="#c6c6c6"/>
    <path id="Path_401" data-name="Path 401" d="M199.6,382.569a9.671,9.671,0,1,0,9.67-9.669A9.671,9.671,0,0,0,199.6,382.569Z" transform="translate(-159.907 -298.744)" fill="#6c6c6c"/>
  </g>
</svg>
