<svg xmlns="http://www.w3.org/2000/svg" width="318.083" height="143.896" viewBox="0 0 318.083 143.896">
  <g id="Layer_2" data-name="Layer 2" transform="translate(0 -0.09)">
    <g id="Layer_4_copy" data-name="Layer 4 copy" transform="translate(0 0.09)">
      <path id="Path_124" data-name="Path 124" d="M3.3,37.587a.659.659,0,0,1-.22.537.646.646,0,0,1-.488.183.707.707,0,0,1-.488-.219.732.732,0,0,1-.171-.549.768.768,0,0,1,.183-.463.561.561,0,0,1,.512-.207.683.683,0,0,1,.512.232A.756.756,0,0,1,3.3,37.587Zm3.171.89H4.857a5.085,5.085,0,0,0-.927,0,1.732,1.732,0,0,0,0-.317c0-.146,0-.293,0-.427V36.66l.951.1a11.305,11.305,0,0,1,1.61.085H10.6a2.389,2.389,0,0,0-.049.354v.768a2.647,2.647,0,0,0,0,.329v.256a.6.6,0,0,0,0,.171H7.991Z" transform="translate(0.423 7.935)" fill="#adadad"/>
      <path id="Path_125" data-name="Path 125" d="M6.3,35.358c-.622-.122-1.146-.207-1.573-.268a9.255,9.255,0,0,0-.951-.073,2.841,2.841,0,0,0,.085-.3.811.811,0,0,1,.085-.439,1.415,1.415,0,0,0,.1-.646v-.4l.768.207c.366.085.866.2,1.524.317h.1l.512-2.658h-.1c-.61-.122-1.11-.207-1.476-.256l-.829-.1a5.3,5.3,0,0,0,.171-.756,3.422,3.422,0,0,1,.11-.573,2.476,2.476,0,0,0,0-.427l.915.244c.439.11.963.22,1.573.341l1.61.22.732.134.707.11.622.085h.463a1.561,1.561,0,0,0-.085.317,2.694,2.694,0,0,1-.1.451,1.368,1.368,0,0,0,0,.317v.561a.707.707,0,0,0,0,.122l-.415-.11-.707-.1-.707-.159-.793-.171-.4-.073h0l-.537,2.695h0l.4.085.719.134.719.11.61.085.463.061-.073.256a.791.791,0,0,1-.085.415,2.954,2.954,0,0,0-.122.683,1.512,1.512,0,0,0,0,.415l-.4-.122-.585-.159-.707-.159-.793-.159Z" transform="translate(0.83 6.25)" fill="#adadad"/>
      <path id="Path_126" data-name="Path 126" d="M11.3,29.633a1.4,1.4,0,0,0-.22-.122l-.378-.183-.439-.2-.427-.159.415-.183a3.341,3.341,0,0,0,.439-.28,2.768,2.768,0,0,0,.378-.378,2.28,2.28,0,0,0,.268-.476.878.878,0,0,0,0-.646.573.573,0,0,0-.354-.341.646.646,0,0,0-.207,0,.536.536,0,0,0-.232,0,1.366,1.366,0,0,0-.293.122,3.475,3.475,0,0,0-.378.256l-.439.317a3.4,3.4,0,0,1-.683.427,2.7,2.7,0,0,1-.61.2,1.975,1.975,0,0,1-.537,0,3.2,3.2,0,0,1-.488-.134,1.829,1.829,0,0,1-.659-.415,1.89,1.89,0,0,1-.415-.646,2.171,2.171,0,0,1-.146-.817,2.439,2.439,0,0,1,.2-.939,3.659,3.659,0,0,1,.207-.488c.061-.134.134-.256.2-.366s.171-.329.232-.427l.1-.2L7,23.645a2.085,2.085,0,0,0,.329.159l.439.2.476.207L8,24.316a1.22,1.22,0,0,0-.329.207,1.768,1.768,0,0,0-.329.341,1.7,1.7,0,0,0-.28.512.744.744,0,0,0,0,.622.646.646,0,0,0,.341.329h.2a.4.4,0,0,0,.207,0,.707.707,0,0,0,.256-.085,2.792,2.792,0,0,0,.4-.207l.439-.329a5.841,5.841,0,0,1,.732-.488,3.036,3.036,0,0,1,.6-.256,1.451,1.451,0,0,1,.549-.073,1.817,1.817,0,0,1,.537.134,1.512,1.512,0,0,1,.415.22,1.878,1.878,0,0,1,.378.329,1.719,1.719,0,0,1,.28.427,2.024,2.024,0,0,1,.171.524,1.841,1.841,0,0,1,0,.451,2.524,2.524,0,0,1,0,.427,2.9,2.9,0,0,1-.085.378.808.808,0,0,1-.1.317l-.2.439c-.085.146-.159.293-.256.439s-.183.268-.268.39A1.951,1.951,0,0,1,11.3,29.633Z" transform="translate(1.295 5.061)" fill="#adadad"/>
      <path id="Path_127" data-name="Path 127" d="M12.655,23.142c.183.232.354.427.512.61s.317.341.463.488l-.159.232-.22.378c-.11.183-.2.341-.268.488l-.159.317c-.134-.232-.329-.537-.573-.9s-.561-.854-.951-1.415L8.924,19.959a3.975,3.975,0,0,1-.244-.378v-.159c0-.037.061,0,.134,0a3.317,3.317,0,0,1,.463,0h.854l.744.061.866.085.939.073.951.1.756.061h1.829l-.268.4-.159.28-.171.3c0,.1-.11.2-.159.293s-.1.171-.134.256l-.159.256H14.4l-.4-.061h-.354Zm-.073-1.9h0l-1.756-.256,1.1,1.39Z" transform="translate(1.905 4.149)" fill="#adadad"/>
      <path id="Path_128" data-name="Path 128" d="M17.342,19.411l-.256.268-.244.268-.11.146-.171.207-.159.207-.085.122-.488-.476c-.207-.207-.463-.439-.744-.7l-.9-.841-.951-.854-.878-.793-.683-.6-.2-.171-.085-.11a.073.073,0,0,1,0-.061h.085a.878.878,0,0,1,.28,0l1.268-.28,1.439-.244,1.463-.244,1.329-.232-.415-.341-.707-.6-.878-.683c-.3-.244-.6-.451-.878-.646a1.219,1.219,0,0,0,.207-.22l.244-.268.183-.207.171-.22.134-.171a.256.256,0,0,0,.061-.11c.1.11.256.293.5.524l.866.829L17.964,14c.439.4.915.8,1.4,1.219l.719.622a3.048,3.048,0,0,1,.293.293v.11a.9.9,0,0,1-.366.11l-1.061.159-1.073.171-1.061.159-1.1.183L14.5,17.2l.878.732.78.646.683.512Z" transform="translate(2.498 2.429)" fill="#adadad"/>
      <path id="Path_129" data-name="Path 129" d="M18.1,9.131l.207-.11.232-.146.2-.134h.1l.268-.2.3-.232.268-.207.159-.122a11.036,11.036,0,0,0,1.329.963c.268.183.585.39.951.61l1.219.756c-.073-.439-.159-.89-.232-1.378a14.633,14.633,0,0,0-.329-1.561c-.073-.28-.146-.524-.207-.707s-.134-.354-.183-.476l.134-.037.146-.085.2-.122h.1l.512-.366.366-.293V6.839a1.131,1.131,0,0,0,.061.488c.061.122,0,.427.1.707a4.136,4.136,0,0,1,.122.9l.146.976a6.5,6.5,0,0,0,.134.927l.122.756a.938.938,0,0,0,.061.463c.061.1,0,.317,0,.427v.244a.939.939,0,0,1,0,.122h-.1l-.183-.1-.22-.22c-.659-.415-1.3-.817-1.939-1.219L20.2,10.095a11.329,11.329,0,0,0-1.1-.6A8.536,8.536,0,0,0,18.1,9.131Z" transform="translate(3.972 1.051)" fill="#adadad"/>
      <path id="Path_130" data-name="Path 130" d="M25.659,6.951c-.317-.659-.573-1.219-.768-1.524a4,4,0,0,0-.451-.707l.378-.159.488-.22L27.269,3.4l.293-.11.232-.134L27.976,3a.427.427,0,0,0,.134,0,3.038,3.038,0,0,0,.171.512,7.146,7.146,0,0,0,.329.756,1.4,1.4,0,0,0-.378,0l-.61.2-.268.1-.3.134-.3.134-.256.11h0l.634,1.341h0l.232-.11.317-.146L28,5.866a2.732,2.732,0,0,1,.268-.134l.341-.183.207-.122.122-.073.085-.073a2.158,2.158,0,0,0,.1.3,1.053,1.053,0,0,0,.134.354l.146.329.122.28a1.6,1.6,0,0,0-.341,0,2.439,2.439,0,0,0-.463.146l-.256.1-.329.146-.329.146-.244.11.122.232c.134.3.244.537.341.719l.207.427.11.2.061.061h.22l.354-.146L29.4,8.5a6.183,6.183,0,0,0,.756-.427,2.256,2.256,0,0,0,.537-.439.613.613,0,0,0,.061.317l.073.341a.436.436,0,0,0,.085.317A2.367,2.367,0,0,0,31,8.878l-.134.085-.354.183-.707.329-.61.256-.524.232a4.292,4.292,0,0,0-.476.207l-.573.28-.329.183L26.964,9.8c-.146-.4-.378-.9-.659-1.524Z" transform="translate(5.364 0.549)" fill="#adadad"/>
      <path id="Path_131" data-name="Path 131" d="M31.48,1.749h.841l.329-.073.378-.1.3-.232h.2a11.354,11.354,0,0,0,.866,1.415c.171.268.39.573.646.915L35.858,4.9l.317-1.354c.11-.476.2-.963.268-1.488a1.886,1.886,0,0,1,.085-.732,1.032,1.032,0,0,0,0-.512h.585l.622-.134L38.211.31a1.686,1.686,0,0,1-.134.341c-.061.159-.11.354-.171.549l-.183.585c-.061.2-.1.341-.134.463l-.183.7q-.11.4-.22.878c-.085.317-.159.634-.244.963l-.232.915q-.11.415-.183.732a1.714,1.714,0,0,1-.11.451A3.12,3.12,0,0,1,36.3,7.3l-.085.244a.232.232,0,0,1,0,.1h-.061l-.085-.073-.122-.159-.2-.28L34.309,5.3,32.968,3.456c-.268-.366-.524-.7-.768-.976S31.712,1.968,31.48,1.749Z" transform="translate(6.908 -0.042)" fill="#adadad"/>
      <path id="Path_132" data-name="Path 132" d="M39.17,2.736a16.228,16.228,0,0,0-.122-1.707A3.476,3.476,0,0,0,38.89.212h.951L42.024.09h.78a.476.476,0,0,0,.171,0c0,.122,0,.293,0,.537v.829a.854.854,0,0,0-.354-.122,5.293,5.293,0,0,0-.671-.134H40.731l.061,1.476h2.146V3.931a1.7,1.7,0,0,0-.317-.122,3.39,3.39,0,0,0-.488,0H40.914V5.334a1.293,1.293,0,0,0,0,.22v.073h1.049a5.951,5.951,0,0,0,.866-.085,2.732,2.732,0,0,0,.671-.207l-.073.317v.671a2.27,2.27,0,0,0,0,.268H39.219V4.041Z" transform="translate(8.535 -0.09)" fill="#adadad"/>
      <path id="Path_133" data-name="Path 133" d="M44.51,2.659c.073-.732.11-1.293.122-1.707s0-.7,0-.841l.427.061h.561l2.2.22h1a1.985,1.985,0,0,1-.085.366,1.133,1.133,0,0,1-.061.354c-.061.11,0,.22,0,.317a2.145,2.145,0,0,0,0,.232L48.534,1.6h-.415l-.524-.1H46.266a4.629,4.629,0,0,1-.073.8,2.513,2.513,0,0,1-.085.8h2.146a1.146,1.146,0,0,0,0,.207c0,.11,0,.22,0,.354l-.073.39V4.4a1.488,1.488,0,0,0-.3-.134,2.317,2.317,0,0,0-.512-.11h-1.2V4.4l-.073.829V6.573a1.719,1.719,0,0,0,0,.378h-1.8c0-.171.1-.463.159-.89s.134-.976.2-1.646Z" transform="translate(9.72 -0.086)" fill="#adadad"/>
      <path id="Path_134" data-name="Path 134" d="M50.025,5.98h0c-.171.232-.317.451-.451.659a4.913,4.913,0,0,0-.329.585l-.268-.1L48.5,7.053l-.549-.122H47.61c.183-.2.415-.476.707-.817s.659-.768,1.085-1.293l2.646-3.244a3.756,3.756,0,0,1,.3-.341s.1-.073.134,0,0,0,.085.11,0,.22.11.451,0,.159,0,.3a1.12,1.12,0,0,0,.11.549,2.6,2.6,0,0,1,.146.719c.049.268.1.561.159.854l.183.927a6.061,6.061,0,0,0,.171.939l.146.744a3.318,3.318,0,0,0,.159.707,6.179,6.179,0,0,0,.171.61,1.89,1.89,0,0,0,.159.451l-.476-.134-.244-.2L53.024,8.2a1.6,1.6,0,0,0-.329-.073l-.28-.061h-.2V7.711a.982.982,0,0,0-.061-.415c-.061-.134,0-.268,0-.4a.614.614,0,0,0-.061-.341Zm1.8-.6-.256-1.756L50.549,5.065h0Z" transform="translate(10.448 0.154)" fill="#adadad"/>
      <path id="Path_135" data-name="Path 135" d="M58.12,5.953c.317-.573.573-1.061.756-1.451a6.89,6.89,0,0,0,.354-.841l.256.159.4.232.549.293.866.451a8.8,8.8,0,0,1,.927.573,5.841,5.841,0,0,1,.7.585,3.5,3.5,0,0,1,.512.646,3.9,3.9,0,0,1,.317.732A3,3,0,0,1,63.827,8.4,3.244,3.244,0,0,1,63.412,9.7a4.571,4.571,0,0,1-.439.61,3.122,3.122,0,0,1-.512.476,3.182,3.182,0,0,1-.537.329,3.585,3.585,0,0,1-.524.207,4.158,4.158,0,0,1-.549.073,3.2,3.2,0,0,1-.683,0,4.78,4.78,0,0,1-.829-.171,6.524,6.524,0,0,1-.988-.439l-.476-.28-.415-.268-.3-.207-.293-.2-.329-.183L56.12,9.44c.11-.183.268-.451.488-.793s.488-.793.8-1.378Zm.915,1.658-.28.5c-.073.122-.122.232-.171.317l-.1.2-.061.122c-.085.171-.146.317-.207.415a.586.586,0,0,0-.061.22.781.781,0,0,0,.073.134l.159.159.232.2a2,2,0,0,0,.268.171,3.475,3.475,0,0,0,.768.3,1.658,1.658,0,0,0,.866-.061,1.78,1.78,0,0,0,.744-.476,4.329,4.329,0,0,0,.537-.732,3.475,3.475,0,0,0,.268-.793,2.2,2.2,0,0,0,.073-.9,1.915,1.915,0,0,0-.415-1.012,2.829,2.829,0,0,0-.878-.756l-.341-.159a.756.756,0,0,0-.22,0,3.292,3.292,0,0,0-.244.4l-.415.756Z" transform="translate(12.316 0.693)" fill="#adadad"/>
      <path id="Path_136" data-name="Path 136" d="M64.568,9.773c.463-.573.8-1.024,1.049-1.354a5.927,5.927,0,0,0,.439-.719,3.926,3.926,0,0,0,.3.28l.415.329,1.7,1.378.207.171.22.159.2.134a.4.4,0,0,0,.159.085c-.085.073-.219.207-.378.378a4.878,4.878,0,0,0-.549.622,1.292,1.292,0,0,0-.183-.329l-.439-.476-.207-.183-.256-.22-.256-.22-.207-.183h0l-.939,1.146.207.159.268.22.28.232.256.183.3.232.2.134.122.073h.1l-.232.22-.256.268-.232.28a1.513,1.513,0,0,0-.2.232,1.451,1.451,0,0,0-.159-.3,2,2,0,0,0-.329-.354l-.2-.2-.293-.11-.268-.232-.219-.171-.171.207-.5.61-.28.378a1.548,1.548,0,0,0-.134.183v.159l.085.11.28.256.354.293a7.954,7.954,0,0,0,.719.512,2.439,2.439,0,0,0,.622.28l-.256.2-.268.22-.256.207a1.463,1.463,0,0,0-.2.2l-.22-.061-.3-.232-.61-.5-.5-.488-.439-.378-.39-.329-.5-.39a1.89,1.89,0,0,0-.317-.22l.622-.659c.28-.3.646-.732,1.073-1.219Z" transform="translate(13.587 1.58)" fill="#adadad"/>
      <path id="Path_137" data-name="Path 137" d="M68.737,13.237l1.219-1.085a4.292,4.292,0,0,0,.622-.732,6.967,6.967,0,0,0,.476.573l.159.171a3.661,3.661,0,0,1,.28.3l.329.329.268.293a6.024,6.024,0,0,1,.659.866,2.256,2.256,0,0,1,.293.683,1.987,1.987,0,0,1,0,.4,1.769,1.769,0,0,1,0,.427,1.683,1.683,0,0,1-.183.439,1.768,1.768,0,0,1-1.219.841,2.268,2.268,0,0,1-1.1-.085c-.11.415-.219.866-.329,1.329a11.363,11.363,0,0,0-.232,1.3,6.823,6.823,0,0,0-.073.768,1.646,1.646,0,0,0,0,.463l-.171-.122a1.389,1.389,0,0,1-.207-.183c-.073-.061-.134-.134-.22-.22l-.2-.22a3.184,3.184,0,0,1-.293-.366,1.464,1.464,0,0,1-.159-.3,1.366,1.366,0,0,1-.146-.28,1.807,1.807,0,0,1,0-.256,3.378,3.378,0,0,1,.073-.646l.183-.707.2-.671.146-.476a.122.122,0,0,0,0-.11l-.476-.524-.146.122c-.366.329-.683.634-.976.927a9.075,9.075,0,0,0-.646.707,2.742,2.742,0,0,0-.207-.256c-.085-.1-.171-.207-.28-.317L66.2,16.42l-.207-.22-.207-.207-.146-.134a3.475,3.475,0,0,0,.366-.256l.476-.366.561-.463c.2-.159.39-.341.6-.524Zm.719,1.439v.061h0a2.329,2.329,0,0,0,.439.659.8.8,0,0,0,.378.268,1.085,1.085,0,0,0,.439,0,1,1,0,0,0,.524-.293A1.427,1.427,0,0,0,71.6,14.9a1.22,1.22,0,0,0,.085-.488,1.439,1.439,0,0,0-.11-.451,1.476,1.476,0,0,0-.232-.354c0-.061-.122-.134-.183-.183l-.207-.073h-.073Z" transform="translate(14.405 2.396)" fill="#adadad"/>
      <path id="Path_138" data-name="Path 138" d="M70.292,21.487c0-.11-.11-.22-.171-.329l-.183-.317-.1-.159-.146-.22-.146-.22a.172.172,0,0,0-.1-.134c-.024-.012.341-.159.61-.3l.9-.488,1.073-.6,1.11-.634,1.024-.585L75,17.024l.22-.134h.2a.5.5,0,0,1,0,.11,1.927,1.927,0,0,1,0,.28c-.073.378-.146.793-.22,1.219a8.805,8.805,0,0,0-.2,1.488,9.182,9.182,0,0,1-.219,1.463c-.073.476-.134.927-.2,1.329l.463-.28.78-.488.927-.61.89-.634a2.624,2.624,0,0,0,.134.268c.073.11.134.22.183.3l.146.232.146.232.122.183.085.1a2.521,2.521,0,0,0-.646.3c-.293.146-.659.341-1.073.573s-.878.488-1.39.78l-1.6.951-.817.488a1.573,1.573,0,0,1-.366.183h-.11a.72.72,0,0,1,0-.366,7.738,7.738,0,0,1,.183-1.073c.1-.5.122-.719.171-1.073s.122-.7.171-1.049.122-.719.183-1.1.122-.793.2-1.219l-.963.6-.854.549-.7.488a5.4,5.4,0,0,0-.561.366Z" transform="translate(15.241 3.597)" fill="#adadad"/>
      <path id="Path_139" data-name="Path 139" d="M76.665,24.709c.683-.268,1.219-.476,1.585-.646a3.938,3.938,0,0,0,.744-.4,2.266,2.266,0,0,0,.122.4l.183.488.78,2.049a.279.279,0,0,0,.1.244,2.682,2.682,0,0,0,.11.256,1.939,1.939,0,0,0,.1.22.757.757,0,0,0,.1.146l-.524.134a8.2,8.2,0,0,0-.78.256.915.915,0,0,0,0-.366,3.112,3.112,0,0,0-.134-.634,2.366,2.366,0,0,1-.085-.268l-.11-.317-.11-.317-.1-.256h0l-1.378.537h0a.39.39,0,0,0,.085.232.768.768,0,0,1,.122.329c.037.122.1.232.134.341l.122.28a2.6,2.6,0,0,0,.146.354l.1.22a.536.536,0,0,0,.073.122l.073.085-.329.073-.354.11-.341.122-.28.1a1.573,1.573,0,0,0,0-.341,1.743,1.743,0,0,0-.1-.463l-.085-.268-.11-.341a1.144,1.144,0,0,0-.122-.341c-.037-.11-.073-.2-.1-.256h0l-.244.085-.744.293-.427.171-.207.1h0v.22l.11.366a1.441,1.441,0,0,0,.159.427,8.364,8.364,0,0,0,.354.8,3.183,3.183,0,0,0,.4.561h-.988a1.22,1.22,0,0,0-.268.061.451.451,0,0,1-.085-.146,1.983,1.983,0,0,0-.146-.354c-.061-.159-.2-.512-.268-.744l-.22-.622-.183-.549a4.319,4.319,0,0,0-.171-.476c-.085-.244-.171-.439-.232-.6a3.3,3.3,0,0,0-.171-.354,4.349,4.349,0,0,0,.866-.256c.415-.134.927-.3,1.561-.537Z" transform="translate(16.014 5.083)" fill="#adadad"/>
      <path id="Path_140" data-name="Path 140" d="M76.739,36.16l-.659.122-.329.073c0-.11-.122-.256-.2-.427s-.146-.354-.219-.561-.146-.415-.207-.646a6.537,6.537,0,0,1-.171-.659,5.427,5.427,0,0,1,0-2.122,3.317,3.317,0,0,1,.768-1.549,3,3,0,0,1,.817-.634,3.5,3.5,0,0,1,1.11-.39,3.146,3.146,0,0,1,1,0,2.853,2.853,0,0,1,.829.207,2.439,2.439,0,0,1,.683.39,3,3,0,0,1,.537.5,4.036,4.036,0,0,1,.439.61,5.963,5.963,0,0,1,.3.634c.073.207.134.415.183.6a5.257,5.257,0,0,1,.11.537c.024.159.085.537.11.793a6.136,6.136,0,0,1,0,.671v.537a2.438,2.438,0,0,0,0,.341H80.678l-.476.073a2.989,2.989,0,0,0,.219-.4,2.634,2.634,0,0,0,.2-.573,4.159,4.159,0,0,0,.085-.719,3.329,3.329,0,0,0-.073-.829,2.329,2.329,0,0,0-.354-.939,1.817,1.817,0,0,0-.549-.512,1.585,1.585,0,0,0-.719-.244,2.9,2.9,0,0,0-.854,0,3.744,3.744,0,0,0-.683.329,2.2,2.2,0,0,0-.561.329,2.634,2.634,0,0,0-.768,1.012,2.439,2.439,0,0,0-.073,1.341l.085.341a1.134,1.134,0,0,0,.122.268.1.1,0,0,0,.085,0H76.5l.512-.1a6.1,6.1,0,0,0,.963-.244l.5-.2a3.061,3.061,0,0,0,0,.39,1.309,1.309,0,0,0,.073.439,1.987,1.987,0,0,0,.134.622c.037.134.073.256.1.341H78.19l-1.219.207Zm6.829-5.67a2.683,2.683,0,0,0-.341.646,1.732,1.732,0,0,0,0,.878,1.634,1.634,0,0,0,.354.8,2.975,2.975,0,0,0,.561.488l-.317.451a2.744,2.744,0,0,1-.659-.268,2.841,2.841,0,0,1-.451-.378,1.951,1.951,0,0,1-.317-.463,2.744,2.744,0,0,1-.159-.512,1.963,1.963,0,0,1,.11-1.122,1.829,1.829,0,0,1,.78-.89Z" transform="translate(16.427 6.326)" fill="#adadad"/>
      <path id="Path_141" data-name="Path 141" d="M79.552,36.89a8.734,8.734,0,0,0,1.61-.085,5.342,5.342,0,0,0,.915-.134,2.634,2.634,0,0,0,0,.317c0,.146,0,.293,0,.427v1.073H79.515l-1.549.061H75.43a1.818,1.818,0,0,0,0-.293v-.463a2.66,2.66,0,0,0,0-.3,2.437,2.437,0,0,0,0-.3c0-.1,0-.183,0-.268v-.171h2.561Z" transform="translate(16.554 7.938)" fill="#adadad"/>
      <path id="Path_142" data-name="Path 142" d="M12.132,70.838V45.656a36.864,36.864,0,0,1,73.728,0V70.838h1.122V45.656a37.986,37.986,0,0,0-75.972,0V70.838Z" transform="translate(2.416 1.573)" fill="#adadad"/>
      <path id="Path_143" data-name="Path 143" d="M4.44,41.853V51.17H5.562v-10A12.943,12.943,0,0,0,4.44,41.853Z" transform="translate(0.974 8.925)" fill="#adadad"/>
      <path id="Path_144" data-name="Path 144" d="M80.073,41.853V51.17H79v-10C79.354,41.4,79.732,41.621,80.073,41.853Z" transform="translate(17.337 8.925)" fill="#adadad"/>
      <path id="Path_145" data-name="Path 145" d="M17.466,93.53a5,5,0,0,0-.976.512,37.535,37.535,0,0,0,27.45,16.877v-1.11A36.51,36.51,0,0,1,17.466,93.53Z" transform="translate(3.619 20.416)" fill="#adadad"/>
      <path id="Path_146" data-name="Path 146" d="M71.767,93.53a5.451,5.451,0,0,1,.988.512A37.559,37.559,0,0,1,45.28,110.919v-1.11A36.486,36.486,0,0,0,71.767,93.53Z" transform="translate(9.937 20.416)" fill="#adadad"/>
      <path id="Path_147" data-name="Path 147" d="M13.017,54.485V63.3a8.537,8.537,0,0,0-1.293.915,8.659,8.659,0,0,0-1.3-.915V54.485a25.609,25.609,0,0,1,1.3-3.975,25.828,25.828,0,0,1,1.293,3.975Z" transform="translate(2.287 10.975)" fill="#1d1d1d"/>
      <path id="Path_148" data-name="Path 148" d="M17.867,55.036v5.012l-2.6,1.4V55.036A26.048,26.048,0,0,1,16.563,51a25.876,25.876,0,0,1,1.3,4.036Z" transform="translate(3.351 11.082)" fill="#1d1d1d"/>
      <path id="Path_149" data-name="Path 149" d="M22.707,56.085v.524l-2.6,1.463V56.085A25.828,25.828,0,0,1,21.4,52.11,25.609,25.609,0,0,1,22.707,56.085Z" transform="translate(4.413 11.326)" fill="#1d1d1d"/>
      <path id="Path_150" data-name="Path 150" d="M8.18,55.036v6.414L5.57,60.036v-5A25.877,25.877,0,0,1,6.875,51a25.877,25.877,0,0,1,1.3,4.036Z" transform="translate(1.222 11.082)" fill="#1d1d1d"/>
      <path id="Path_151" data-name="Path 151" d="M3.327,56.085v1.988L.73,56.61v-.524a25.609,25.609,0,0,1,1.3-3.975,25.829,25.829,0,0,1,1.293,3.975Z" transform="translate(0.16 11.326)" fill="#1d1d1d"/>
      <path id="Path_152" data-name="Path 152" d="M17.28,64.922A6.39,6.39,0,0,0,14.012,69.8a6.378,6.378,0,0,0-3.28-4.878L0,59.13v6.219a6.39,6.39,0,0,0,3.268,4.878l10.743,5.817,10.731-5.8a6.378,6.378,0,0,0,3.28-4.878V59.142Z" transform="translate(0 12.867)" fill="#1d1d1d"/>
      <path id="Path_153" data-name="Path 153" d="M17.28,76.342a6.39,6.39,0,0,0-3.268,4.878,6.378,6.378,0,0,0-3.28-4.878L0,70.55v6.219a6.39,6.39,0,0,0,3.268,4.878l10.743,5.792,10.731-5.792a6.378,6.378,0,0,0,3.28-4.878V70.55Z" transform="translate(0 15.373)" fill="#1d1d1d"/>
      <path id="Path_154" data-name="Path 154" d="M17.28,87.685a6.353,6.353,0,0,0-3.268,4.878,6.341,6.341,0,0,0-3.28-4.878L0,81.88v6.244A6.39,6.39,0,0,0,3.268,93l9.439,5.1v4.561c0,.719,1.3,5.536,1.3,5.536s1.293-4.878,1.293-5.536V98.123L24.743,93a6.378,6.378,0,0,0,3.3-4.878V81.88Z" transform="translate(0 17.859)" fill="#1d1d1d"/>
      <path id="Path_155" data-name="Path 155" d="M74.367,54.485V63.3a8.659,8.659,0,0,0-1.3.915A8.537,8.537,0,0,0,71.77,63.3V54.485a25.827,25.827,0,0,1,1.293-3.975,25.608,25.608,0,0,1,1.3,3.975Z" transform="translate(15.75 10.975)" fill="#1d1d1d"/>
      <path id="Path_156" data-name="Path 156" d="M79.207,55.036v5.012l-2.6,1.4V55.036A25.876,25.876,0,0,1,77.915,51a26.047,26.047,0,0,1,1.293,4.036Z" transform="translate(16.813 11.082)" fill="#1d1d1d"/>
      <path id="Path_157" data-name="Path 157" d="M84.057,56.085v.524l-2.6,1.463V56.085a25.828,25.828,0,0,1,1.293-3.975A25.608,25.608,0,0,1,84.057,56.085Z" transform="translate(17.877 11.326)" fill="#1d1d1d"/>
      <path id="Path_158" data-name="Path 158" d="M69.517,55.036v6.414l-2.6-1.415v-5A25.877,25.877,0,0,1,68.237,51a26.047,26.047,0,0,1,1.28,4.036Z" transform="translate(14.686 11.082)" fill="#1d1d1d"/>
      <path id="Path_159" data-name="Path 159" d="M64.677,56.085v1.988l-2.6-1.463v-.524a25.828,25.828,0,0,1,1.293-3.975A25.609,25.609,0,0,1,64.677,56.085Z" transform="translate(13.624 11.326)" fill="#1d1d1d"/>
      <path id="Path_160" data-name="Path 160" d="M78.618,64.922A6.39,6.39,0,0,0,75.349,69.8a6.39,6.39,0,0,0-3.268-4.878L61.35,59.13v6.219a6.366,6.366,0,0,0,3.268,4.878l10.731,5.817,10.743-5.8a6.39,6.39,0,0,0,3.268-4.878V59.142Z" transform="translate(13.464 12.867)" fill="#1d1d1d"/>
      <path id="Path_161" data-name="Path 161" d="M78.618,76.342a6.39,6.39,0,0,0-3.268,4.878,6.39,6.39,0,0,0-3.268-4.878L61.35,70.55v6.219a6.366,6.366,0,0,0,3.268,4.878l10.731,5.792,10.743-5.792a6.39,6.39,0,0,0,3.268-4.878V70.55Z" transform="translate(13.464 15.373)" fill="#1d1d1d"/>
      <path id="Path_162" data-name="Path 162" d="M78.618,87.685a6.353,6.353,0,0,0-3.268,4.878,6.353,6.353,0,0,0-3.268-4.878L61.35,81.88v6.244A6.366,6.366,0,0,0,64.582,93l9.439,5.1v4.561c0,.719,1.293,5.536,1.293,5.536s1.3-4.878,1.3-5.536V98.123L86.093,93a6.39,6.39,0,0,0,3.268-4.878V81.88Z" transform="translate(13.464 17.859)" fill="#1d1d1d"/>
      <path id="Path_163" data-name="Path 163" d="M44.3,22.649V43.806a14.365,14.365,0,0,0-1.817,1.219,13.536,13.536,0,0,0-1.817-1.219V22.649A36.023,36.023,0,0,1,42.487,17.1,36.023,36.023,0,0,1,44.3,22.649Z" transform="translate(8.925 3.643)" fill="#1d1d1d"/>
      <path id="Path_164" data-name="Path 164" d="M51.068,30.6v7L47.41,39.548V30.6A36.194,36.194,0,0,1,49.251,25a36.022,36.022,0,0,1,1.817,5.6Z" transform="translate(10.404 5.377)" fill="#1d1d1d"/>
      <path id="Path_165" data-name="Path 165" d="M57.828,32.079v.732L54.17,34.761V32.079a36.022,36.022,0,0,1,1.817-5.549A36.022,36.022,0,0,1,57.828,32.079Z" transform="translate(11.888 5.712)" fill="#1d1d1d"/>
      <path id="Path_166" data-name="Path 166" d="M37.548,30.6v8.951L33.89,37.585V30.6A36.023,36.023,0,0,1,35.731,25a36.023,36.023,0,0,1,1.817,5.6Z" transform="translate(7.437 5.377)" fill="#1d1d1d"/>
      <path id="Path_167" data-name="Path 167" d="M30.778,32.079v2.683L27.12,32.81v-.732a36.023,36.023,0,0,1,1.817-5.549,36.193,36.193,0,0,1,1.841,5.549Z" transform="translate(5.952 5.712)" fill="#1d1d1d"/>
      <path id="Path_168" data-name="Path 168" d="M50.345,44.459a8.89,8.89,0,0,0-4.561,6.866,8.9,8.9,0,0,0-4.61-6.866L26.2,36.35v8.695a8.9,8.9,0,0,0,4.561,6.866l14.987,8.1,14.975-8.1c2.524-1.366,4.573-4.439,4.573-6.866V36.35Z" transform="translate(5.75 7.867)" fill="#adadad"/>
      <path id="Path_169" data-name="Path 169" d="M50.345,76.085a8.9,8.9,0,0,0-4.561,6.878,8.926,8.926,0,0,0-4.573-6.878L26.2,68v8.683a8.9,8.9,0,0,0,4.561,6.866l14.987,8.1,14.975-8.1c2.524-1.366,4.573-4.439,4.573-6.866V68Z" transform="translate(5.75 14.813)" fill="#adadad"/>
      <path id="Path_170" data-name="Path 170" d="M50.345,91.907a8.865,8.865,0,0,0-4.561,6.866,8.89,8.89,0,0,0-4.573-6.866L26.2,83.81V92.5a8.9,8.9,0,0,0,4.561,6.866l13.17,7.109v6.366c0,1,1.817,12.768,1.817,12.768s1.8-11.768,1.8-12.768V106.48l13.17-7.109C63.247,98,65.3,94.931,65.3,92.5V83.81Z" transform="translate(5.75 18.283)" fill="#adadad"/>
      <path id="Path_171" data-name="Path 171" d="M50.181,60.157c-2.524,1.366-4.573,4.439-4.573,6.866a8.9,8.9,0,0,0-4.561-6.866L26.06,52.06v8.695c0,2.439,2.049,5.5,4.561,6.866l14.987,8.1,14.987-8.1c2.524-1.366,4.573-4.439,4.573-6.866V52.06Z" transform="translate(5.719 11.315)" fill="#adadad"/>
      <rect id="Rectangle_24" data-name="Rectangle 24" width="183.15" height="0.707" transform="translate(134.872 89.74)" fill="#adadad"/>
      <path id="Path_172" data-name="Path 172" d="M118.085,38.658a1.829,1.829,0,1,0-1.8-1.841,1.793,1.793,0,0,0,1.8,1.841Z" transform="translate(25.518 7.571)" fill="#1d1d1d"/>
      <path id="Path_173" data-name="Path 173" d="M133.677,45.77a1.817,1.817,0,0,0-1.817,1.817,1.793,1.793,0,0,0,1.817,1.841,1.829,1.829,0,1,0,0-3.658Z" transform="translate(28.937 9.935)" fill="#1d1d1d"/>
      <path id="Path_174" data-name="Path 174" d="M129.711,45.77a1.866,1.866,0,0,0-1.841,1.817,1.835,1.835,0,1,0,1.841-1.817Z" transform="translate(28.062 9.935)" fill="#1d1d1d"/>
      <path id="Path_175" data-name="Path 175" d="M142.138,31a1.817,1.817,0,0,0,1.841-1.817,1.841,1.841,0,0,0-1.841-1.841,1.878,1.878,0,0,0-1.878,1.817A1.841,1.841,0,0,0,142.138,31Z" transform="translate(30.781 5.89)" fill="#1d1d1d"/>
      <path id="Path_176" data-name="Path 176" d="M223.367,32.031v9.561c0,1.658-.732,2.439-2.207,2.439h-5.6c-1.476,0-2.207-.793-2.207-2.439V39.007l.366-3.146a14.633,14.633,0,0,0-4.378-.7c-4.6,0-7.4,2.634-7.548,6.951a1.841,1.841,0,0,1-2.085,2h-3.78a25.231,25.231,0,0,0-3.744-6.768c-2.085-2.658-4.171-3.988-6.231-3.988-2.658,0-4.707,2.439-5.036,6.341l3.134-.366a6.755,6.755,0,0,1-.415-2.024c0-1.11.451-1.683,1.354-1.683,1.219,0,2.719,1.11,4.378,3.378a24.585,24.585,0,0,1,3.024,5.11H179.247c-1.451,0-2.171-.793-2.171-2.366V34.056l-3.658.817.573,3.927V41.75c0,1.61-.719,2.439-2.146,2.439a3.573,3.573,0,0,1-2.6-1.11v-7.8l-2.988.671V41.8c0,1.61-.732,2.439-2.146,2.439a3.756,3.756,0,0,1-2.634-1.024V35.226l-2.951.671v5.829c0,1.6-.732,2.439-2.183,2.439h-3.439c-1.476,0-2.207-.793-2.207-2.439v-7.67l-3.6.817.61,3.927v2.927c0,1.6-.732,2.439-2.207,2.439h-3.475c-1.476,0-2.207-.793-2.207-2.439V33.934l-3.6.78.61,3.9v3.11c0,1.6-.732,2.439-2.207,2.439h-4.134c-1.488,0-2.207-1-2.207-3.024V34.08l-3.536.854.573,3.988V44.14a8.329,8.329,0,0,1-1.78,5.5,4.988,4.988,0,0,1-3.988,1.939c-3.78,0-5.988-2.963-5.988-7.683V37.275H110.6v6.756a10.524,10.524,0,0,0,2,6.829,7.987,7.987,0,0,0,6.524,2.658c4.951,0,8.244-2.634,9-6.866a5.573,5.573,0,0,0,1.634.22h5.646a4.561,4.561,0,0,0,2.9-.915,4.6,4.6,0,0,0,2.963.915h5.012a4.585,4.585,0,0,0,2.9-.915,4.6,4.6,0,0,0,2.963.915h4.878a4.6,4.6,0,0,0,3.232-1.146,6.56,6.56,0,0,0,.573-.634,5.646,5.646,0,0,0,4.073,1.78,4.171,4.171,0,0,0,3.658-1.732,5.4,5.4,0,0,0,4.049,1.732,4.463,4.463,0,0,0,2.878-.915,4.878,4.878,0,0,0,3.012.915h21.95a4.6,4.6,0,0,0,2.268-.549,4.244,4.244,0,0,0,3.866,2.232,6.756,6.756,0,0,0,5.353-2.622,4.427,4.427,0,0,0,2.866.939h7.012a4.158,4.158,0,0,0,4.5-4.5V27.19l-3.536.854Zm-13,12.658a3.988,3.988,0,0,1-2.927,1.354c-1.451,0-2.536-1.512-2.536-4.049,0-3.171,1.219-4.744,3.768-4.744a4.3,4.3,0,0,1,1.451.22l.244,1.683Z" transform="translate(24.268 5.857)" fill="#1d1d1d"/>
      <path id="Path_177" data-name="Path 177" d="M208.741,31.339V46.813h3v-15.5l.329-4.024-3.78.3Z" transform="translate(45.71 5.879)" fill="#1d1d1d"/>
      <path id="Path_178" data-name="Path 178" d="M227.468,42.354h-4.195c0-2.939,1.219-4.414,3.658-4.475a4.768,4.768,0,0,1,3.183,1.085c.268-.841.451-1.537.573-2.11a8.231,8.231,0,0,0-4.536-1.634c-3.927,0-5.89,2.439-5.89,7.134H217.42v2.719h15.17l-2.366-3.061Z" transform="translate(47.714 7.619)" fill="#1d1d1d"/>
      <path id="Path_179" data-name="Path 179" d="M247.452,33.023a5.439,5.439,0,0,0-3.207.976,4.463,4.463,0,0,0-1.878,3.9q0,4.768,5.085,4.78a4.488,4.488,0,0,0,1.988-.366c-.207,1.219-1.293,1.817-3.317,1.817h-7.463c-1.451,0-2.183-.817-2.183-2.439V27.34l-3.536.817.512,3.866V42.3a4.158,4.158,0,0,0,4.439,4.5h7.951c4.622,0,6.768-2.244,6.768-7.646V37.73a4.561,4.561,0,0,0-1.219-3.354,5.378,5.378,0,0,0-3.939-1.354Zm2.2,7.317a5.341,5.341,0,0,1-2.317.451c-1.3,0-1.963-.878-1.963-2.622,0-2.146.719-3.232,2.171-3.232s2.146.988,2.146,2.951c0,.841,0,1.658-.037,2.354Z" transform="translate(51.12 5.89)" fill="#1d1d1d"/>
      <path id="Path_180" data-name="Path 180" d="M245.141,30.96a1.727,1.727,0,1,0-1.841-1.817,1.793,1.793,0,0,0,1.841,1.817Z" transform="translate(53.394 5.928)" fill="#1d1d1d"/>
      <path id="Path_181" data-name="Path 181" d="M258.2,32.821a6.1,6.1,0,0,0-4.951,2.171,7.78,7.78,0,0,0-1.719,5.195,6.439,6.439,0,0,0,1.39,4.207,4.537,4.537,0,0,0,3.744,1.866,10.78,10.78,0,0,0,3.232-.512c-.268,2.866-1.634,4.622-4.146,5.292l.634,1.219c4.329-1.122,6.5-3.744,6.5-7.951V32.821ZM259.921,43.7a7.17,7.17,0,0,1-2.622.512c-1.878,0-2.817-1.512-2.817-4.5s1.427-5.085,3.841-5.085h1.6Z" transform="translate(55.199 7.092)" fill="#1d1d1d"/>
      <path id="Path_182" data-name="Path 182" d="M110.6,69.321v-.207h.244a1.1,1.1,0,0,0,1.146-1.061V58.626a1.11,1.11,0,0,0-1.146-1.061H110.6v-.2h5.658v.2h-.232a1.11,1.11,0,0,0-1.219,1.049v9.463a1.11,1.11,0,0,0,1.219,1.049h.232v.2Z" transform="translate(24.272 12.48)" fill="#1d1d1d"/>
      <path id="Path_183" data-name="Path 183" d="M132.926,57.565a1.1,1.1,0,0,0-1.1,1.061v9.463a1.061,1.061,0,0,0,1.085,1.037h.219v.2h-5.475v-.207h.207a1.073,1.073,0,0,0,1.1-1.049v-4.3h-5.195v4.317a1.073,1.073,0,0,0,1.1,1.049h.122v.2H119.5v-.207h.219a1.073,1.073,0,0,0,1.085-1.061V58.626a1.085,1.085,0,0,0-1.085-1.061H119.5v-.2h5.488v.2h-.207a1.085,1.085,0,0,0-1.1,1.049v4.4h5.244v-4.39a1.085,1.085,0,0,0-1.1-1.061h-.207v-.2h5.488v.2Z" transform="translate(26.225 12.48)" fill="#1d1d1d"/>
      <path id="Path_184" data-name="Path 184" d="M142.084,63.051a3.11,3.11,0,0,1,1.646,2.988c-.122,2.256-1.915,3.658-4.683,3.658a5.353,5.353,0,0,1-3.658-1.073,4.17,4.17,0,0,1,.451-3.024H136a3.049,3.049,0,0,0,3.293,3.293c1.549,0,2.3-.829,2.3-1.8,0-.683-.463-1.146-1.488-1.793L137.267,63.5a3.341,3.341,0,0,1,1.841-6.28,22.936,22.936,0,0,1,2.585.183h1.085l-.28,2.61h-.244c0-1.219-.89-2-2.439-2-1.219,0-2.134.646-2.183,1.549s.549,1.122,1.293,1.585Z" transform="translate(29.688 12.445)" fill="#1d1d1d"/>
      <path id="Path_185" data-name="Path 185" d="M157.861,68.121a1.78,1.78,0,0,0,1.561,1.11h.159v.2h-5.866v-.207h.159a.744.744,0,0,0,.683-1.11l-.78-1.817h-4.219l-.793,1.854a.732.732,0,0,0,.7,1.073h.159v.2H145.63v-.2h.159a1.744,1.744,0,0,0,1.524-1.037l4.11-8.853a12.963,12.963,0,0,0,.939-2.439h.159ZM153.4,65.56,151.63,61.4,149.9,65.56Z" transform="translate(31.959 12.375)" fill="#1d1d1d"/>
      <path id="Path_186" data-name="Path 186" d="M174.914,57.418v.2h-.329a1.073,1.073,0,0,0-1.1.988V67.32a11.072,11.072,0,0,0,.219,2.317h-.183l-9.158-8.073v6.6a1.073,1.073,0,0,0,1.1,1.012h.329v.2H160.22v-.207h.329a1.049,1.049,0,0,0,1.1-1.012V59.406a10.647,10.647,0,0,0-.22-2.256h.2l9.134,8.036V58.638a1.049,1.049,0,0,0-1.085-1.024h-.341v-.2Z" transform="translate(35.161 12.432)" fill="#1d1d1d"/>
      <path id="Path_187" data-name="Path 187" d="M226,57.377v.2h-.159a1.744,1.744,0,0,0-1.512,1.024l-4.061,8.536a13.416,13.416,0,0,0-.927,2.439h-.171l-5.3-10.975a1.719,1.719,0,0,0-1.512-1.061h-.146v-.2h5.841v.183H217.9a.768.768,0,0,0-.683,1.134l2.793,6.475,2.914-6.439a.756.756,0,0,0-.671-1.134H222.1v-.183Z" transform="translate(46.571 12.474)" fill="#1d1d1d"/>
      <path id="Path_188" data-name="Path 188" d="M236.353,69.376H227v-.207h.244a1.061,1.061,0,0,0,1.073-1.037V58.657a1.049,1.049,0,0,0-1.073-1.037H227v-.2h7.012a8.33,8.33,0,0,0,2.073-.3v3.171h-.207v-.183a1.719,1.719,0,0,0-1.829-1.915h-2.878v4.878h2.268a1.5,1.5,0,0,0,1.524-1.585v-.122h.207v4.219h-.207v-.146a1.488,1.488,0,0,0-1.5-1.573h-2.293V68.6h2.439a3.524,3.524,0,0,0,3.366-2.866h.183Z" transform="translate(49.816 12.426)" fill="#1d1d1d"/>
      <path id="Path_189" data-name="Path 189" d="M248.491,60.3h-.207V60.12a1.732,1.732,0,0,0-1.829-1.9h-2.878V63.1h2.293a1.5,1.5,0,0,0,1.524-1.585v-.122h.207v4.219h-.159v-.146a1.488,1.488,0,0,0-1.5-1.573h-2.317v4.28a1.085,1.085,0,0,0,1.1,1.049h.244v.2H239.43v-.244h.244a1.073,1.073,0,0,0,1.085-1.037V58.669a1.073,1.073,0,0,0-1.085-1.049h-.244v-.2h7.036a7.878,7.878,0,0,0,2.073-.3Z" transform="translate(52.544 12.426)" fill="#1d1d1d"/>
      <path id="Path_190" data-name="Path 190" d="M261.588,68.121a1.793,1.793,0,0,0,1.573,1.11h.146v.2h-5.841v-.207h.159a.732.732,0,0,0,.671-1.11l-.829-1.8h-4.219l-.8,1.854a.732.732,0,0,0,.7,1.073h.159v.2H249.32v-.207h.159A1.756,1.756,0,0,0,251,68.182l4.11-8.853a13.9,13.9,0,0,0,.927-2.439h.207Zm-4.4-2.561L255.417,61.4l-1.793,4.158Z" transform="translate(54.715 12.375)" fill="#1d1d1d"/>
      <path id="Path_191" data-name="Path 191" d="M111.74,54.461a1.439,1.439,0,1,1,.417,1.025A1.451,1.451,0,0,1,111.74,54.461Z" transform="translate(24.522 11.524)" fill="#1d1d1d"/>
      <path id="Path_192" data-name="Path 192" d="M200.233,55.089a14.914,14.914,0,0,1-1.219,5.67,25.316,25.316,0,0,1-3.219,5.634,20.317,20.317,0,0,1-4.414,4.439,9.524,9.524,0,0,1-4.866,1.976l-.207-.3c3.134-5.012-.878-12.877-.878-16.889a3.561,3.561,0,0,1,2.073-3.561,10.341,10.341,0,0,0-2.8.573,10.9,10.9,0,0,0-2.975,1.719,7.731,7.731,0,0,0-2.439,3.5,2.049,2.049,0,0,1,1.536-.671,2.134,2.134,0,0,1,2.11,2.122,2.11,2.11,0,0,1-4.219,0,5.67,5.67,0,0,1,.841-2.927,8.426,8.426,0,0,1,1.951-2.3,9.622,9.622,0,0,1,3.085-1.78,10.231,10.231,0,0,1,3.585-.634h2.378v.427H188.38c-.719.451-.537,1.439-.415,2.2.476,2.658,2.256,7.512,2.256,11.341,0,3.195-.9,5.3-2.78,6.719a9.756,9.756,0,0,0,3.658-1.744,19.511,19.511,0,0,0,4.341-4.341,23.584,23.584,0,0,0,3.171-5.585,13.816,13.816,0,0,0,1.219-6.1,2.061,2.061,0,0,1-1.963,1.39,2.11,2.11,0,0,1,0-4.219C199.6,51.65,200.233,53.3,200.233,55.089Z" transform="translate(39.219 11.225)" fill="#adadad"/>
      <path id="Path_193" data-name="Path 193" d="M196.143,65.817a9.756,9.756,0,0,0-.841,3.658c0,.963.268,1.841,1.219,1.841a7.17,7.17,0,0,0,3.232-1.024,12.439,12.439,0,0,0,3.28-2.658l.244.183c-2.024,2.256-4.707,3.793-6.9,3.793a3.061,3.061,0,0,1-3.232-3.4c0-4.524,5.488-10.378,9.926-10.378,2.134,0,3.219,1.219,3.219,2.6C206.387,63.891,199.79,65.732,196.143,65.817Zm.122-.293c4.158-.207,7.926-3.073,7.926-5.975,0-.756-.329-1.476-1.219-1.476C201.021,58.037,197.948,61.476,196.265,65.525Z" transform="translate(42.382 12.581)" fill="#adadad"/>
      <path id="Path_194" data-name="Path 194" d="M182.883,80.159a.634.634,0,0,0,.719-.719.732.732,0,0,0-.719-.768.746.746,0,1,0,0,1.488Z" transform="translate(39.972 17.154)" fill="#1d1d1d"/>
      <path id="Path_195" data-name="Path 195" d="M181.135,80.159a.634.634,0,0,0,.732-.719.732.732,0,0,0-.732-.768.747.747,0,1,0,0,1.488Z" transform="translate(39.586 17.154)" fill="#1d1d1d"/>
      <path id="Path_196" data-name="Path 196" d="M191.591,89.691a.744.744,0,1,0,0,1.476.646.646,0,0,0,.732-.732.744.744,0,0,0-.732-.744Z" transform="translate(41.862 19.572)" fill="#1d1d1d"/>
      <path id="Path_197" data-name="Path 197" d="M189.754,89.69a.744.744,0,1,0,.744.744A.744.744,0,0,0,189.754,89.69Z" transform="translate(41.479 19.573)" fill="#1d1d1d"/>
      <path id="Path_198" data-name="Path 198" d="M194.889,84.658v2.073c0,1.219-.512,1.8-1.549,1.8h-7.256c-1.037,0-1.549-.61-1.549-1.78V81l-1.317.317.085.915h-.89a3.585,3.585,0,0,0-2.6.963,3.5,3.5,0,0,0-.976,2.573c0,2.036,1,3.244,2.524,3.244a4.024,4.024,0,0,0,2.256-.659,1.658,1.658,0,0,0,.646.658,2.707,2.707,0,0,0,1.4.378h8a2.036,2.036,0,0,0,2.158-2.293v-4.78l-1.219.317Zm-13.1,3.439c-1.219,0-1.866-.9-1.878-2.683a2.7,2.7,0,0,1,.719-1.915,2.353,2.353,0,0,1,1.7-.78h1.11l.085,5.073a5.341,5.341,0,0,1-1.793.354Z" transform="translate(39.247 17.666)" fill="#1d1d1d"/>
      <path id="Path_199" data-name="Path 199" d="M202.843,89.691a.646.646,0,0,0-.732.732c0,.476.244.707.732.707s.744-.232.744-.7a.744.744,0,0,0-.744-.744Z" transform="translate(44.353 19.572)" fill="#1d1d1d"/>
      <path id="Path_200" data-name="Path 200" d="M201.053,89.691a.646.646,0,0,0-.732.732c0,.476.244.707.732.707s.732-.232.732-.7a.744.744,0,0,0-.732-.744Z" transform="translate(43.96 19.572)" fill="#1d1d1d"/>
      <path id="Path_201" data-name="Path 201" d="M214.811,80.5c.476,0,.732-.232.732-.7a.744.744,0,0,0-.732-.756.646.646,0,0,0-.72.732.634.634,0,0,0,.72.719Z" transform="translate(46.982 17.237)" fill="#1d1d1d"/>
      <path id="Path_202" data-name="Path 202" d="M228.12,81.428V87.22c0,1.219-.512,1.8-1.561,1.8h-2.707a14.011,14.011,0,0,0-1.988-4.061c-1.219-1.707-2.293-2.573-3.378-2.573-1.28,0-2.293,1.219-2.439,3.122l.939-.134a3.329,3.329,0,0,1-.183-.963c0-.841.488-1.341,1.085-1.341.866,0,1.829.793,2.878,2.439a12.89,12.89,0,0,1,1.744,3.573H207.073c-1.012,0-1.512-.61-1.512-1.78V82.745l-1.293.317.268,2.1v2.049c0,1.219-.512,1.8-1.549,1.8h-5.109c-1.037,0-1.549-.61-1.549-1.78V82.745l-1.28.317.268,2.1v4.585a3.4,3.4,0,0,1-.476,1.732A3.561,3.561,0,0,1,193,93.013l.268.451a3.939,3.939,0,0,0,3.134-3.927,2.2,2.2,0,0,0,1.134.268h5.975a1.915,1.915,0,0,0,1.561-.7,2.073,2.073,0,0,0,1.658.7h20.28a2.049,2.049,0,0,0,2.1-2.28V79.05l-1.219.317Z" transform="translate(42.355 17.238)" fill="#1d1d1d"/>
      <path id="Path_203" data-name="Path 203" d="M224.1,79.172l.232,1.866v8.768h1V81.038l.146-1.988Z" transform="translate(49.18 17.238)" fill="#1d1d1d"/>
      <path id="Path_204" data-name="Path 204" d="M118.668,83.565a4.012,4.012,0,0,0-.378-.719,5.328,5.328,0,0,0-.451-.561,4,4,0,0,0-1.049-.768,5.1,5.1,0,0,0-1.219-.439,6.4,6.4,0,0,0-1.219-.207h-3.671v8.183a6.049,6.049,0,0,1-.061,1.219,5.915,5.915,0,0,1,.8,0l.841.085h1.463a6.488,6.488,0,0,0,1.451-.146,5.391,5.391,0,0,0,1.134-.354,4.244,4.244,0,0,0,.817-.476,3.926,3.926,0,0,0,.561-.488,4.731,4.731,0,0,0,.927-1.439,4.975,4.975,0,0,0,.4-2.085,4.585,4.585,0,0,0-.11-1.037A4.243,4.243,0,0,0,118.668,83.565Zm-1.219,4.073a3.658,3.658,0,0,1-.9,1.219,3.219,3.219,0,0,1-1.219.659,5.414,5.414,0,0,1-1.488.2,7.547,7.547,0,0,1-1.293-.1,1.671,1.671,0,0,1-.659-.2,1.568,1.568,0,0,0-.085-.427,3.627,3.627,0,0,1,0-.976V81.663a.146.146,0,0,1,0-.1,2.683,2.683,0,0,1,.476,0,6.241,6.241,0,0,1,.683,0,7.317,7.317,0,0,1,2.256.329,3.549,3.549,0,0,1,2.439,2.439,5.609,5.609,0,0,1,.207,1.524,4.207,4.207,0,0,1-.378,1.78Z" transform="translate(24.276 17.638)" fill="#1d1d1d"/>
      <path id="Path_205" data-name="Path 205" d="M124.346,89.639h-1.488c-.012,0,0-.061,0-.122a2.706,2.706,0,0,1,0-.415V85.846h2.122l.537.073a1.219,1.219,0,0,1,.232,0,3.83,3.83,0,0,1,0-.512,4.145,4.145,0,0,1,.085-.537,1.6,1.6,0,0,1-.341,0h-2.671V81.639H125a4.609,4.609,0,0,1,.671.085,1.7,1.7,0,0,1,.329.11,4.623,4.623,0,0,1,0-.6.807.807,0,0,1,.061-.427,3.654,3.654,0,0,1-.488,0H121.59a7.549,7.549,0,0,1,.085,1.219v8.244h4.6a.968.968,0,0,1,.1-.476l.134-.5a2.207,2.207,0,0,1-.732.207A12,12,0,0,1,124.346,89.639Z" transform="translate(26.684 17.624)" fill="#1d1d1d"/>
      <path id="Path_206" data-name="Path 206" d="M135.961,89.281c-.427-.476-.878-1-1.317-1.585l-1.219-1.683a3.146,3.146,0,0,0,1.536-2.671,2.354,2.354,0,0,0-.317-1.219,2.439,2.439,0,0,0-.8-.841,2.573,2.573,0,0,0-.976-.354,6.584,6.584,0,0,0-1.219-.1H129.4a2.244,2.244,0,0,1,.085.488c0,.22,0,.5,0,.8v7.646a1.109,1.109,0,0,1-.061.512h1.3a4.792,4.792,0,0,1,0-.549v-3.4h1.732a.207.207,0,0,1,.159.085l.524.732c.207.293.427.6.658.9s.439.61.658.89a7.439,7.439,0,0,0,.6.683,4.5,4.5,0,0,0,.354.341,2.44,2.44,0,0,0,.317.219,1.3,1.3,0,0,0,.329.11,1.731,1.731,0,0,0,.378,0h.463a1.22,1.22,0,0,0,.354-.073,2.085,2.085,0,0,1-.463-.317A9.243,9.243,0,0,1,135.961,89.281Zm-3.085-3.719a.78.78,0,0,1-.293.122h-1.366a4.78,4.78,0,0,1-.622,0V81.635a.1.1,0,0,1,0-.1h.927a2.439,2.439,0,0,1,1.7.573,2.049,2.049,0,0,1,.6,1.573,2.256,2.256,0,0,1-.293,1.219,2.525,2.525,0,0,1-.646.659Z" transform="translate(28.398 17.629)" fill="#1d1d1d"/>
      <path id="Path_207" data-name="Path 207" d="M146.32,80.91h-.488v7.512c-.159-.159-.415-.415-.744-.768s-.719-.78-1.134-1.219l-1.329-1.5-1.183-1.658c-.439-.476-.829-.927-1.219-1.317s-.634-.707-.841-.915l-.268-.268c-.061-.061-.1-.085-.122-.085h0a.183.183,0,0,0,0,.085v.232a3.658,3.658,0,0,0,0,.4v8.926h1.146a10.611,10.611,0,0,0-.061-1.219c-.061-.561,0-1.219,0-1.9V82.8c.244.256.524.573.854.951s.707.793,1.085,1.219.793.89,1.219,1.366l1.146,1.329,1,1.134c.293.329.524.585.707.768s.585.6.732.732.232.207.268.207h0a.3.3,0,0,0,0-.146V80.873h-.256Z" transform="translate(30.501 17.598)" fill="#1d1d1d"/>
      <path id="Path_208" data-name="Path 208" d="M153.049,89.639l-.683-.061h-.793c-.012,0,0-.061,0-.122a2.71,2.71,0,0,1,0-.415V85.749H153.7l.537.073a1.22,1.22,0,0,1,.317.11,3.825,3.825,0,0,1,0-.512,4.14,4.14,0,0,1,.085-.537,1.476,1.476,0,0,1-.341,0h-2.732V81.639h2.183a4.609,4.609,0,0,1,.671.085,1.7,1.7,0,0,1,.329.11,4.626,4.626,0,0,1,0-.6.688.688,0,0,1,.073-.427,3.818,3.818,0,0,1-.5,0H150.33a7.554,7.554,0,0,1,.085,1.219q0,.927,0,2.439v5.8h4.536a1.432,1.432,0,0,1,.11-.476,2,2,0,0,1,.122-.5,2.207,2.207,0,0,1-.719.207A12.413,12.413,0,0,1,153.049,89.639Z" transform="translate(32.991 17.624)" fill="#1d1d1d"/>
      <path id="Path_209" data-name="Path 209" d="M165.059,80.934a8.329,8.329,0,0,1-.915-.171,7.475,7.475,0,0,0-1.085-.073h-.744a6.1,6.1,0,0,0-.89.11,5.208,5.208,0,0,0-.976.293,4.293,4.293,0,0,0-.988.524,5.259,5.259,0,0,0-.707.6,4.463,4.463,0,0,0-.622.829,5.025,5.025,0,0,0-.451,1.1,5.427,5.427,0,0,0-.171,1.39,4.988,4.988,0,0,0,.366,1.963,4.879,4.879,0,0,0,.89,1.415,4.476,4.476,0,0,0,1.829,1.219,6.792,6.792,0,0,0,2.28.39,11.12,11.12,0,0,0,1.658-.134,5.269,5.269,0,0,0,1.476-.427s0-.159,0-.28V85.641h-1.3a2.646,2.646,0,0,1,0,.3v3.39a.268.268,0,0,1,0,.1,1.817,1.817,0,0,1-.341.134l-.427.1h-.927a5.7,5.7,0,0,1-.744,0,3.78,3.78,0,0,1-.854-.207,4.085,4.085,0,0,1-.878-.415,3.4,3.4,0,0,1-.8-.659,4,4,0,0,1-.817-1.219,4.512,4.512,0,0,1-.341-1.866,4.109,4.109,0,0,1,.354-1.732,3.415,3.415,0,0,1,2.134-1.927,5.2,5.2,0,0,1,1.439-.207,7,7,0,0,1,1.317.11,5.669,5.669,0,0,1,.988.28,2.719,2.719,0,0,1,.658.341,2.207,2.207,0,0,1,.366.293V81.446a.646.646,0,0,1,0-.207l-.4-.122Z" transform="translate(34.566 17.598)" fill="#1d1d1d"/>
      <path id="Path_210" data-name="Path 210" d="M160.545,79.938a2.256,2.256,0,0,0,1.219.341,2.537,2.537,0,0,0,1.219-.293,2.61,2.61,0,0,0,1-1.024l-.3-.293a2.793,2.793,0,0,1-.793.634,2.329,2.329,0,0,1-1.049.22,1.976,1.976,0,0,1-1.012-.232,2.439,2.439,0,0,1-.732-.622l-.354.293A2.329,2.329,0,0,0,160.545,79.938Z" transform="translate(35.056 17.155)" fill="#1d1d1d"/>
      <path id="Path_211" data-name="Path 211" d="M170.28,88.974V80.84H169a2.173,2.173,0,0,1,0,.439q0,.329,0,.8v8.195h1.28a2.863,2.863,0,0,1,0-.488C170.293,89.571,170.28,89.3,170.28,88.974Z" transform="translate(37.088 17.631)" fill="#1d1d1d"/>
      <path id="Path_212" data-name="Path 212" d="M169.7,80.124a.646.646,0,0,0,.451-.146.573.573,0,0,0,.171-.427.488.488,0,0,0-.183-.427.7.7,0,0,0-.439-.134.549.549,0,0,0-.6.573.537.537,0,0,0,.159.4A.622.622,0,0,0,169.7,80.124Z" transform="translate(37.11 17.225)" fill="#1d1d1d"/>
    </g>
  </g>
</svg>
