<svg id="Layer_2" data-name="Layer 2" xmlns="http://www.w3.org/2000/svg" xmlns:xlink="http://www.w3.org/1999/xlink" width="183.089" height="188.868" viewBox="0 0 183.089 188.868">
  <defs>
    <linearGradient id="linear-gradient" x1="0.236" y1="-0.15" x2="0.781" y2="1.137" gradientUnits="objectBoundingBox">
      <stop offset="0" stop-color="#a1a1a1"/>
      <stop offset="0.49" stop-color="#8e8e8e"/>
      <stop offset="1" stop-color="#7e7e7e"/>
    </linearGradient>
    <linearGradient id="linear-gradient-4" x1="0.239" y1="-0.17" x2="0.773" y2="1.16" gradientUnits="objectBoundingBox">
      <stop offset="0" stop-color="#c5c5c5"/>
      <stop offset="0.49" stop-color="#b2b2b2"/>
      <stop offset="1" stop-color="#a1a1a1"/>
    </linearGradient>
    <linearGradient id="linear-gradient-5" x1="0.239" y1="-0.17" x2="0.773" y2="1.16" xlink:href="#linear-gradient-4"/>
    <linearGradient id="linear-gradient-6" x1="0.173" y1="0.014" x2="0.88" y2="0.962" xlink:href="#linear-gradient-4"/>
    <linearGradient id="linear-gradient-7" x1="0.174" y1="0.014" x2="0.881" y2="0.963" xlink:href="#linear-gradient-4"/>
    <linearGradient id="linear-gradient-8" x1="0.179" y1="0.012" x2="0.886" y2="0.96" xlink:href="#linear-gradient-4"/>
    <linearGradient id="linear-gradient-9" x1="0.179" y1="0.012" x2="0.886" y2="0.96" xlink:href="#linear-gradient-4"/>
    <linearGradient id="linear-gradient-10" x1="0.174" y1="0.014" x2="0.881" y2="0.963" xlink:href="#linear-gradient-4"/>
    <linearGradient id="linear-gradient-11" x1="0.173" y1="0.014" x2="0.88" y2="0.962" xlink:href="#linear-gradient-4"/>
    <linearGradient id="linear-gradient-14" x1="0.174" y1="0.014" x2="0.881" y2="0.962" xlink:href="#linear-gradient-4"/>
    <linearGradient id="linear-gradient-16" y1="0.5" x2="1" y2="0.5" gradientUnits="objectBoundingBox">
      <stop offset="0" stop-color="#f3f3f3"/>
      <stop offset="0.44" stop-color="#eee"/>
      <stop offset="0.95" stop-color="#e0e0e0"/>
      <stop offset="1" stop-color="#dedede"/>
    </linearGradient>
    <linearGradient id="linear-gradient-17" x1="0" y1="0.5" x2="1" y2="0.5" xlink:href="#linear-gradient-16"/>
    <linearGradient id="linear-gradient-18" x1="0" y1="0.5" x2="1" y2="0.5" xlink:href="#linear-gradient-16"/>
    <linearGradient id="linear-gradient-20" x1="0" y1="0.5" x2="1" y2="0.5" xlink:href="#linear-gradient-16"/>
    <linearGradient id="linear-gradient-26" x1="0" y1="0.5" x2="1" y2="0.5" xlink:href="#linear-gradient-16"/>
    <linearGradient id="linear-gradient-28" y1="0.5" x2="1" y2="0.5" gradientUnits="objectBoundingBox">
      <stop offset="0" stop-color="#d6d6d6"/>
      <stop offset="0.21" stop-color="#d1d1d1"/>
      <stop offset="0.45" stop-color="#c3c3c3"/>
      <stop offset="0.72" stop-color="#ababab"/>
      <stop offset="0.99" stop-color="#8a8a8a"/>
      <stop offset="1" stop-color="#898989"/>
    </linearGradient>
    <linearGradient id="linear-gradient-29" y1="0.5" x2="1" y2="0.5" xlink:href="#linear-gradient-28"/>
    <linearGradient id="linear-gradient-30" y1="0.5" x2="1" y2="0.5" xlink:href="#linear-gradient-28"/>
    <linearGradient id="linear-gradient-31" y1="0.5" x2="1" y2="0.5" gradientUnits="objectBoundingBox">
      <stop offset="0" stop-color="#868686"/>
      <stop offset="0.53" stop-color="#727272"/>
      <stop offset="1" stop-color="#606060"/>
    </linearGradient>
    <linearGradient id="linear-gradient-32" x1="0" y1="0.5" y2="0.5" xlink:href="#linear-gradient-31"/>
    <linearGradient id="linear-gradient-33" x1="-0.001" y1="0.5" y2="0.5" xlink:href="#linear-gradient-31"/>
    <linearGradient id="linear-gradient-34" x1="0" y1="0.5" y2="0.5" xlink:href="#linear-gradient-31"/>
    <linearGradient id="linear-gradient-36" x1="-0.001" y1="0.5" y2="0.5" xlink:href="#linear-gradient-31"/>
    <linearGradient id="linear-gradient-37" x1="0" y1="0.5" y2="0.5" xlink:href="#linear-gradient-31"/>
    <linearGradient id="linear-gradient-38" x1="0" y1="0.5" y2="0.5" xlink:href="#linear-gradient-31"/>
    <linearGradient id="linear-gradient-40" x1="-0.001" y1="0.5" y2="0.5" xlink:href="#linear-gradient-31"/>
    <linearGradient id="linear-gradient-43" x1="0.339" y1="-0.361" x2="0.691" y2="0.893" xlink:href="#linear-gradient-31"/>
    <linearGradient id="linear-gradient-44" x1="0.339" y1="-0.361" x2="0.691" y2="0.893" xlink:href="#linear-gradient-31"/>
    <linearGradient id="linear-gradient-45" x1="0.339" y1="0.038" x2="0.691" y2="0.924" xlink:href="#linear-gradient-31"/>
  </defs>
  <g id="Слой_18" data-name="Слой 18">
    <path id="Path_313" data-name="Path 313" d="M104.63,272.32l1,.171.954.044.9-.083.849-.2.783-.325.722-.441.656-.557.573-.667.5-.783.408-.882.32-.987.221-1.092.094-.777.055-1.246-.055-1.312-.154-1.334-.254-1.351-.353-1.356-.441-1.357-.518-1.345-.6-1.329-.678-1.3-.744-1.263-.811-1.219-.866-1.163-.921-1.1-.97-1.037-1.015-.954-1.053-.866-.722-.524-1.108-.7L11.265,192.934l-1.108-.579-1.075-.441-1.042-.3-1-.176-.959-.044-.9.083-.855.2L3.546,192l-.722.441L2.167,193l-.573.673-.491.777-.414.888-.32.982-.221,1.092-.094.777L0,199.441v-1.632l.055-1.39.11-.9.248-1.213.358-1.114.463-.993.557-.877.651-.755.728-.623.816-.5.888-.364.954-.232,1.015-.088,1.075.044,1.13.2,1.174.347,1.208.491,1.213.634,90.2,52.075,1.2.761.833.607,1.174.97,1.147,1.075,1.092,1.163,1.037,1.241.976,1.312.91,1.368.838,1.423.761,1.461.673,1.494.59,1.516.5,1.527.392,1.527.287,1.522.182,1.5.055,1.472-.055,1.39-.11.9-.248,1.213-.364,1.114-.458.993-.557.877-.651.755-.733.629-.811.5-.888.364-.954.232-1.015.094-1.075-.05-1.13-.2-1.169-.342-1.213-.5-1.208-.629-1.445-.838,1.108.579,1.075.441Z" transform="translate(0 -84.676)" fill="url(#linear-gradient)"/>
    <path id="Path_314" data-name="Path 314" d="M104.63,213.33l1,.176.954.044.9-.083.849-.2.783-.325.722-.447.656-.551.573-.673.5-.777.408-.888.32-.987.221-1.086.094-.783.055-1.246-.055-1.307-.154-1.34-.254-1.345-.353-1.362-.441-1.356-.518-1.345-.6-1.323-.678-1.3-.744-1.263-.811-1.219-.866-1.169-.921-1.1-.97-1.031-1.015-.954-1.053-.871-.722-.524-1.108-.7L11.265,133.944l-1.108-.579-1.075-.436-1.042-.309-1-.171-.959-.044-.9.077-.855.2-.783.325-.722.447-.656.557-.573.667-.491.777-.414.888-.32.987-.221,1.086-.094.777L0,140.451v-1.627l.055-1.39.11-.9.248-1.208.358-1.114.463-1,.557-.877.651-.75.728-.629.816-.5.888-.369.954-.226,1.015-.094,1.075.05,1.13.2,1.174.342,1.208.5,1.213.629,90.2,52.08,1.2.761.833.607,1.174.965,1.147,1.075,1.092,1.163,1.037,1.241.976,1.312.91,1.373.838,1.417.761,1.467.673,1.489.59,1.516.5,1.527.392,1.527.287,1.522.182,1.5.055,1.472-.055,1.39-.11.9-.248,1.213-.364,1.108-.458,1-.557.877-.651.755-.733.623-.811.5-.888.369-.954.232-1.015.088-1.075-.05-1.13-.193-1.169-.347-1.213-.5-1.208-.629-1.445-.833,1.108.579,1.075.441Z" transform="translate(0 -58.214)" fill="url(#linear-gradient)"/>
    <path id="Path_315" data-name="Path 315" d="M104.63,154.346l1,.171.954.044.9-.083.849-.2.783-.325.722-.441.656-.557.573-.673.5-.777.408-.882.32-.987.221-1.092.094-.777.055-1.246-.055-1.312-.154-1.334-.254-1.351-.353-1.356-.441-1.356-.518-1.351-.6-1.323-.678-1.3-.744-1.263-.811-1.219-.866-1.163-.921-1.1-.97-1.037-1.015-.954-1.053-.866-.722-.524L101.4,127,11.265,74.96l-1.108-.579L9.082,73.94l-1.042-.3-1-.176-.959-.044-.9.083-.855.2-.783.325-.722.441-.656.557-.573.673-.491.777-.414.882-.32.987L.149,79.432l-.094.783L0,81.466V79.834l.055-1.39.11-.9.248-1.213.358-1.114.463-.993.557-.877.651-.755.728-.629.816-.5.888-.364.954-.232,1.015-.094,1.075.055,1.13.193,1.174.342,1.208.5,1.213.634,90.2,52.075,1.2.761.833.607,1.174.97,1.147,1.075,1.092,1.163,1.037,1.241.976,1.312.91,1.367.838,1.423.761,1.461.673,1.494.59,1.516.5,1.527.392,1.527.287,1.522.182,1.5.055,1.472-.055,1.39-.11.9-.248,1.213-.364,1.114-.458,1-.557.871-.651.755-.733.629-.811.5-.888.364-.954.232-1.015.094-1.075-.05-1.13-.2-1.169-.342-1.213-.5-1.208-.634-1.445-.833,1.108.579,1.075.441Z" transform="translate(0 -31.751)" fill="url(#linear-gradient)"/>
    <path id="Path_316" data-name="Path 316" d="M9.5,153.091l.21-.331.243-.287.281-.237.3-.187.336-.138.358-.088.386-.033.408.017.425.077.441.127.458.187.458.237L61.717,180.1l.452.287.314.226.447.369.43.4.414.441.392.469.369.5.342.518.314.535.292.551.254.568.221.573.187.573.149.579.11.573.066.568.022.557-.022.524-.039.342-.094.458-.138.419-.176.375-.21.331-.243.287-.281.237-.3.187-.336.138-.358.088-.386.033-.408-.017-.425-.077-.441-.127-.458-.187-.458-.237-.579-.336.414.215.408.165.392.116.375.066.358.017.336-.028.32-.077.292-.121.276-.171.243-.21.215-.248.187-.292.154-.331.116-.375.083-.4.039-.3.022-.463-.022-.491-.061-.507-.094-.5-.132-.513-.165-.507-.193-.5-.226-.5-.254-.491-.281-.474-.3-.452-.325-.441-.342-.414-.369-.386-.38-.358-.391-.325-.276-.193-.414-.265L13.254,153.422l-.414-.215-.408-.171-.386-.11-.38-.066-.353-.017-.342.028-.314.077-.3.127-.27.16-.243.21-.215.254-.187.292-.154.331-.121.369-.083.408-.033.292-.022.469v-.651l.022-.524.039-.342.094-.458.138-.419Z" transform="translate(-4.051 -68.092)" fill="url(#linear-gradient-4)"/>
    <path id="Path_317" data-name="Path 317" d="M9.5,94.106l.21-.331.243-.281.281-.237.3-.193.336-.138.358-.083.386-.033.408.017.425.072.441.132.458.187.458.237,47.912,27.659.452.287.314.232.447.364.43.408.414.441.392.469.369.491.342.524.314.535.292.551.254.562.221.573.187.579.149.573.11.573.066.568.022.557-.022.524-.039.342-.094.458-.138.419-.176.38-.21.331-.243.281-.281.237-.3.193-.336.138-.358.083-.386.033L63.5,132.8l-.425-.072-.441-.132-.458-.187-.458-.237-.579-.336.414.221.408.165.392.116.375.066.358.011.336-.028.32-.077.292-.121.276-.165.243-.21.215-.254.187-.292.154-.331.116-.369.083-.408.039-.292.022-.469-.022-.491-.061-.5-.094-.5-.132-.513-.165-.507-.193-.507-.226-.5-.254-.485-.281-.474-.3-.458-.325-.441-.342-.414-.369-.386-.38-.353-.391-.325-.276-.2-.414-.265L13.254,94.437l-.414-.215-.408-.165-.386-.116-.38-.066-.353-.017-.342.033-.314.077-.3.121-.27.165-.243.21-.215.254L9.444,95l-.154.331-.121.375-.083.408-.033.292-.022.469v-.651l.022-.524.039-.347.094-.452.138-.425Z" transform="translate(-4.051 -41.634)" fill="url(#linear-gradient-5)"/>
    <path id="Path_318" data-name="Path 318" d="M144.568,178.847l-.562-.325.221.116.215.088.21.061.2.039.187.006.182-.017.171-.039.16-.066.143-.088.132-.11.11-.138.1-.154.083-.176.061-.2.05-.215.017-.154.011-.248-.011-.265-.028-.27-.055-.265-.066-.276-.088-.27-.1-.265-.121-.27-.138-.259-.149-.254-.16-.243-.176-.232-.182-.221-.193-.21-.2-.187-.21-.176-.143-.1-.221-.138-.226-.116-.215-.094-.21-.055-.2-.039-.193-.006-.176.017-.171.039-.16.066-.143.088-.132.11-.11.132-.1.154-.083.182-.066.193-.044.221-.017.154-.011.248v-.645l.011-.309.022-.2.061-.27.077-.243.1-.226.121-.193.143-.165.165-.143.182-.11.193-.083.215-.05.226-.017.237.011.248.039.265.077.265.11.281.149.27.171.187.138.259.21.254.243.243.259.232.276.221.287.2.309.187.314.165.325.154.331.127.336.11.342.088.342.066.336.039.331.017.331-.017.3-.022.2-.061.27-.077.243-.1.221-.127.2-.143.165-.16.138-.187.116-.193.077-.21.055-.226.017-.243-.011-.248-.039-.259-.077-.27-.11Z" transform="translate(-63.588 -77.14)" fill="url(#linear-gradient-6)"/>
    <path id="Path_319" data-name="Path 319" d="M155.054,181.09l.055-.27.077-.243.1-.221.127-.2.143-.165.165-.138.182-.11.193-.083.215-.055.226-.017.237.011.248.044.259.077.27.11.281.143.27.171.187.138.259.21.254.243.243.259.232.276.221.292.2.3.187.314.165.325.154.336.127.331.11.342.088.342.066.336.039.336.011.325-.011.3-.022.2-.055.27-.083.248-.1.221-.127.193-.143.171-.165.138-.176.11-.2.083-.215.05-.221.017-.243-.011-.248-.039-.259-.077-.27-.11-.276-.143-.568-.325.221.116.221.083.21.066.2.033.193.011.176-.017.171-.044.16-.066.143-.088.132-.11.11-.132.1-.154.083-.176.066-.2.044-.221.017-.154.011-.248-.011-.265-.028-.265-.055-.27-.072-.276-.083-.265-.11-.27-.116-.27-.138-.259-.149-.254-.16-.243-.176-.232-.182-.221-.193-.21-.2-.187-.21-.176-.149-.1-.221-.138-.221-.116-.215-.088-.21-.061-.2-.033-.187-.011-.182.017-.171.039-.16.066-.143.088-.132.11-.11.138-.1.154-.083.176-.066.2-.044.215-.022.16-.006.248-.006-.651.017-.309Z" transform="translate(-69.536 -80.563)" fill="url(#linear-gradient-7)"/>
    <path id="Path_320" data-name="Path 320" d="M179.631,193.695l.028.618-.028.584-.044.386-.1.507-.149.474-.2.419-.237.369-.27.32-.309.265-.347.21L177.6,198l-.4.094-.425.044-.458-.028-.474-.077-.5-.149-.513-.21-.524-.27-.844-.491.441.232.43.176.419.121.4.072.386.017.358-.033.342-.077.314-.132.287-.176.265-.226.232-.27.193-.309.165-.353.127-.4.088-.43.039-.314.022-.5-.022-.524-.061-.535-.1-.54-.138-.54-.176-.546-.21-.535-.243-.529-.265-.524-.3-.5-.32-.491-.347-.463-.369-.441-.386-.414-.408-.38-.419-.347-.292-.215-.441-.281-.447-.226-.43-.176-.419-.127-.4-.066-.38-.017-.364.033-.342.077-.314.132-.287.176-.259.226-.232.265-.2.314-.16.353-.132.391-.088.441-.039.309-.022.5v-.982l.028-.579.044-.386.1-.513.154-.469.193-.419.237-.369.27-.32.309-.265.347-.21.375-.154.4-.1.43-.039.452.022.474.083.5.143.513.21.524.276.518.325.358.265.491.4.485.452.458.491.441.529.414.551.386.579.347.6.32.618.292.634.248.634.2.645.171.645.121.645Z" transform="translate(-75.79 -82.68)" fill="url(#linear-gradient-8)"/>
    <path id="Path_321" data-name="Path 321" d="M179.631,252.679l.028.623-.028.584-.044.386-.1.507-.149.469-.2.425-.237.369-.27.314-.309.27-.347.21-.375.154-.4.094-.425.039-.458-.022-.474-.083-.5-.143-.513-.21-.524-.27-.844-.5.441.237.43.176.419.121.4.072.386.017.358-.033.342-.083.314-.132.287-.176.265-.221.232-.27.193-.309.165-.353.127-.4.088-.436.039-.314.022-.5-.022-.524-.061-.535-.1-.54-.138-.54-.176-.546-.21-.535-.243-.535-.265-.518-.3-.507-.32-.485-.347-.469-.369-.441-.386-.414-.408-.38-.419-.347-.292-.21-.441-.281-.447-.232-.43-.176-.419-.121-.4-.072-.38-.017-.364.033-.342.083-.314.132-.287.176-.259.221-.232.265-.2.314-.16.353-.132.4-.088.436-.039.314-.022.5v-.976l.028-.584.044-.386.1-.507.154-.474.193-.419.237-.369.27-.314.309-.265.347-.215.375-.149.4-.1.43-.039.452.022.474.083.5.143.513.21.524.276.518.325.358.259.491.408.485.452.458.491.441.529.414.551.386.579.347.6.32.612.292.634.248.64.2.645.171.645.121.645Z" transform="translate(-75.79 -109.143)" fill="url(#linear-gradient-9)"/>
    <path id="Path_322" data-name="Path 322" d="M155.054,240.075l.055-.27.077-.248.1-.221.127-.193.143-.171.165-.138.182-.11.193-.077.215-.055.226-.022.237.011.248.05.259.072.27.11.281.143.27.176.187.132.259.215.254.243.243.254.232.281.221.287.2.309.187.314.165.325.154.331.127.336.11.342.088.336.066.342.039.331.011.325-.011.309-.022.2-.055.265-.083.254-.1.221-.127.193-.143.165-.165.143-.176.11-.2.077-.215.05-.221.022-.243-.011-.248-.044-.259-.077-.27-.11-.276-.138-.568-.331.221.116.221.088.21.061.2.033.193.011.176-.017.171-.039.16-.066.143-.088.132-.11.11-.132.1-.16.083-.176.066-.2.044-.215.017-.154.011-.254-.011-.259-.028-.27-.055-.27-.072-.27-.083-.27-.11-.27-.116-.265-.138-.259-.149-.254-.16-.243-.176-.237-.182-.221-.193-.2-.2-.193-.21-.171-.149-.1-.221-.138-.221-.116-.215-.088-.21-.066-.2-.033-.187-.005-.182.011-.171.044-.16.066-.143.088-.132.11-.11.132-.1.154-.083.182-.066.2-.044.215-.022.154-.006.248-.006-.651.017-.3Z" transform="translate(-69.536 -107.021)" fill="url(#linear-gradient-10)"/>
    <path id="Path_323" data-name="Path 323" d="M144.568,237.833l-.562-.325.221.116.215.088.21.061.2.033.187.011.182-.017.171-.039.16-.066.143-.088.132-.11.11-.138.1-.154.083-.176.061-.2.05-.215.017-.16.011-.248-.011-.265-.028-.265-.055-.27-.066-.27-.088-.27-.1-.27-.121-.265-.138-.265-.149-.248-.16-.248-.176-.232-.182-.221-.193-.21-.2-.187-.21-.171-.143-.1-.221-.143-.226-.116-.215-.088-.21-.061-.2-.033-.193-.011-.176.017-.171.044-.16.061-.143.094-.132.11-.11.132-.1.154-.083.176-.066.2-.044.215-.017.16-.011.248v-.651l.011-.3.022-.2.061-.27.077-.248.1-.221.121-.2.143-.165.165-.138.182-.11.193-.083.215-.05.226-.022.237.011.248.044.265.077.265.11.281.143.27.171.187.138.259.215.254.237.243.259.232.276.221.292.2.309.187.314.165.325.154.331.127.336.11.336.088.342.066.336.039.336.017.325-.017.309-.022.2-.061.265-.077.248-.1.221-.127.193-.143.171-.16.138-.187.11-.193.083-.21.05-.226.022-.243-.011-.248-.044-.259-.077-.27-.11Z" transform="translate(-63.588 -103.598)" fill="url(#linear-gradient-11)"/>
    <path id="Path_324" data-name="Path 324" d="M9.5,212.076l.21-.331.243-.287.281-.232.3-.193.336-.132.358-.088.386-.033.408.017.425.072.441.132.458.188.458.237,47.912,27.664.452.281.314.232.447.364.43.408.414.441.392.469.369.5.342.513.314.54.292.551.254.562.221.573.187.579.149.573.11.579.066.568.022.551-.022.529-.039.336-.094.458-.138.419-.176.38-.21.331-.243.281-.281.243-.3.187-.336.138-.358.083-.386.039-.408-.022-.425-.072-.441-.132-.458-.187-.458-.237-.579-.331.414.215.408.165.392.116.375.066.358.017.336-.033.32-.077.292-.121.276-.165.243-.21.215-.254.187-.287.154-.336.116-.369.083-.408.039-.292.022-.469-.022-.491-.061-.5-.094-.507-.132-.513-.165-.507-.193-.507-.226-.5-.254-.485-.281-.474-.3-.458L63.311,242l-.342-.414L62.6,241.2l-.38-.353-.391-.331-.276-.193-.414-.265L13.254,212.407l-.414-.215-.408-.165-.386-.116-.38-.066-.353-.017-.342.033-.314.077-.3.121-.27.165-.243.21-.215.254-.187.292-.154.331-.121.369-.083.408-.033.292-.022.469V214.2l.022-.524.039-.342.094-.458.138-.425Z" transform="translate(-4.051 -94.554)" fill="url(#linear-gradient-4)"/>
    <path id="Path_325" data-name="Path 325" d="M144.568,296.823l-.562-.325.221.11.215.088.21.061.2.039.187.006.182-.011.171-.044.16-.066.143-.088.132-.11.11-.132.1-.154.083-.182.061-.193.05-.221.017-.154.011-.248-.011-.265-.028-.27-.055-.265-.066-.276-.088-.27-.1-.265-.121-.27-.138-.259-.149-.254-.16-.243-.176-.232-.182-.221-.193-.21-.2-.187-.21-.176-.143-.1-.221-.138-.226-.116-.215-.088-.21-.061-.2-.039-.193-.006-.176.017-.171.039-.16.066-.143.088-.132.11-.11.138-.1.149-.083.182-.066.193-.044.221-.017.154-.011.248v-.645l.011-.309.022-.2.061-.27.077-.243.1-.226.121-.193.143-.165.165-.143.182-.11.193-.077.215-.055.226-.017.237.011.248.044.265.077.265.1.281.149.27.171.187.138.259.215.254.237.243.259.232.276.221.287.2.309.187.314.165.325.154.331.127.336.11.342.088.342.066.336.039.331.017.331-.017.3-.022.2-.061.27-.077.248-.1.221-.127.193-.143.165-.16.138-.187.116-.193.077-.21.055-.226.017-.243-.011-.248-.044-.259-.072-.27-.11Z" transform="translate(-63.588 -130.06)" fill="url(#linear-gradient-6)"/>
    <path id="Path_326" data-name="Path 326" d="M155.054,299.06l.055-.265.077-.248.1-.221.127-.193.143-.171.165-.138.182-.11.193-.083.215-.05.226-.022.237.011.248.044.259.077.27.11.281.143.27.171.187.138.259.215.254.237.243.259.232.276.221.292.2.3.187.314.165.331.154.331.127.336.11.336.088.342.066.336.039.336.011.325-.011.3-.022.2-.055.27-.083.248-.1.221-.127.193-.143.165-.165.143-.176.11-.2.083-.215.05-.221.022-.243-.011-.248-.044-.259-.077-.27-.11-.276-.143-.568-.325.221.116.221.088.21.061.2.033.193.011.176-.017.171-.044.16-.066.143-.088.132-.11.11-.132.1-.154.083-.176.066-.2.044-.221.017-.154.011-.248-.011-.265-.028-.265-.055-.27-.072-.276-.083-.265-.11-.27-.116-.27-.138-.254-.149-.259-.16-.237-.176-.237-.182-.221-.193-.2-.2-.193-.21-.176-.149-.1-.221-.138-.221-.116-.215-.088-.21-.061-.2-.033-.187-.011-.182.017-.171.039-.16.066-.143.088-.132.11-.11.138-.1.154-.083.176-.066.2-.044.215-.022.16-.006.248-.006-.651.017-.309Z" transform="translate(-69.536 -133.483)" fill="url(#linear-gradient-14)"/>
    <path id="Path_327" data-name="Path 327" d="M179.631,311.665l.028.618-.028.585-.044.386-.1.513-.149.469-.2.419-.237.369-.27.32-.309.265-.347.21-.375.154-.4.1-.425.039-.458-.022-.474-.083-.5-.149-.513-.2-.524-.276-.844-.491.441.232.43.176.419.121.4.072.386.017.358-.033.342-.077.314-.132.287-.176.265-.226.232-.265.193-.314.165-.353.127-.391.088-.441.039-.309.022-.5-.022-.524-.061-.535-.1-.54-.138-.54-.176-.54-.21-.54-.243-.529-.265-.524-.3-.5-.32-.491-.347-.463-.369-.441-.386-.414-.408-.38-.419-.353-.292-.21-.441-.281-.447-.226-.43-.176-.419-.121-.4-.072-.38-.017-.364.033-.342.083-.314.127-.287.176-.259.226-.232.27-.2.309-.16.353-.132.391-.088.436-.039.314-.022.5v-.976l.028-.584.044-.386.1-.513.154-.469.193-.419.237-.369.27-.32.309-.265.347-.21.375-.154.4-.1.43-.039.452.022.474.083.5.149.513.2.524.276.518.331.358.259.491.4.485.452.458.5.441.524.414.551.386.579.347.6.32.618.292.634.248.634.2.651.171.64.121.645Z" transform="translate(-75.79 -135.601)" fill="url(#linear-gradient-8)"/>
    <path id="Path_328" data-name="Path 328" d="M177.254,310.35l.21.54.176.54.138.54.1.54.061.535.022.524-.022.5-.039.309-.088.441-.127.392-.165.353-.193.314-.232.265-.265.226-.287.176-.314.132-.342.077-.358.033-.386-.017-.4-.072-.419-.121-.43-.176-.441-.232-.447-.276-.287-.215-.419-.347-.408-.38-.386-.414-.369-.441-.353-.463-.32-.491-.3-.5-.27-.524-.243-.529-.2-.54-.176-.54-.143-.54-.1-.546-.066-.529-.022-.524.022-.5.039-.314.088-.436.132-.391.16-.353.2-.309.232-.27.259-.226.287-.176.314-.127.342-.083.364-.033.38.017.4.072.419.121.43.176.447.226.441.281.292.21.419.353.408.38.386.414.369.441.347.463.32.491.3.5.265.524Z" transform="translate(-75.79 -136.888)" fill="url(#linear-gradient-16)"/>
    <path id="Path_329" data-name="Path 329" d="M158.913,301.549l.138.254.116.27.11.27.083.265.072.276.055.27.028.265.011.265-.011.248-.017.154-.044.221-.066.2-.083.176-.1.154-.11.132-.132.11-.143.088-.16.066-.171.044-.176.017-.193-.011-.2-.033-.21-.061-.221-.088-.221-.116-.221-.143-.143-.1-.21-.171-.2-.193-.193-.2-.187-.221-.171-.232-.165-.248-.143-.254-.138-.259-.121-.265-.1-.27-.088-.27-.066-.27-.055-.27-.033-.265-.006-.265.006-.248.022-.16.044-.215.066-.2.083-.176.1-.154.11-.138.132-.11.143-.088.16-.066.171-.039.182-.017.187.011.2.033.21.061.215.088.221.116.221.138.149.1.21.176.2.193.193.2.182.221.176.237.16.237Z" transform="translate(-69.541 -134.34)" fill="url(#linear-gradient-17)"/>
    <path id="Path_330" data-name="Path 330" d="M144.369,292.391l.21.176.2.187.193.21.182.221.176.232.16.243.149.254.138.259.121.27.1.265.088.27.066.276.055.265.028.27.011.265-.011.248-.017.154-.05.221-.061.193-.083.182-.1.154-.11.132-.132.11-.143.088-.16.066-.171.044-.182.011-.187-.005-.2-.039-.21-.061-.215-.088-.221-.11-.226-.143-.143-.1-.21-.171-.2-.193-.193-.2-.182-.226-.176-.232-.165-.243-.143-.254-.138-.259-.121-.265-.1-.27-.088-.27-.066-.27-.055-.27-.028-.27-.011-.265.011-.248.017-.154.044-.221.066-.193.083-.182.1-.149.11-.138.132-.11.143-.088.16-.066.171-.039.176-.017.193.006.2.039.21.061.215.088.226.116.221.138Z" transform="translate(-63.588 -130.917)" fill="url(#linear-gradient-18)"/>
    <path id="Path_331" data-name="Path 331" d="M177.254,251.365l.21.535.176.546.138.54.1.54.061.535.022.524-.022.5-.039.314-.088.436-.127.4-.165.353-.193.309-.232.27-.265.221-.287.176-.314.132-.342.083-.358.033-.386-.017-.4-.072-.419-.121-.43-.176-.441-.237-.447-.276-.287-.215-.419-.342-.408-.38-.386-.414-.369-.447-.353-.463-.32-.485-.3-.507-.27-.518-.243-.535-.2-.535-.176-.546-.143-.54-.1-.54-.066-.535-.022-.524.022-.5.039-.314.088-.436.132-.4.16-.353.2-.314.232-.265.259-.221.287-.176.314-.132.342-.083.364-.033.38.017.4.072.419.121.43.176.447.232.441.281.292.21.419.347.408.38.386.414.369.441.347.469.32.485.3.507.265.518Z" transform="translate(-75.79 -110.426)" fill="url(#linear-gradient-17)"/>
    <path id="Path_332" data-name="Path 332" d="M158.913,242.563l.138.259.116.265.11.27.083.27.072.27.055.27.028.27.011.259-.011.254-.017.154-.044.215-.066.2-.083.176-.1.16-.11.132-.132.11-.143.088-.16.066-.171.039-.176.017-.193-.011-.2-.033-.21-.061-.221-.088L157.27,246l-.221-.138-.143-.1-.21-.176-.2-.187-.193-.21-.187-.221-.171-.232-.165-.243-.143-.254-.138-.259-.121-.27-.1-.265-.088-.27-.066-.276-.055-.27-.033-.265-.006-.265.006-.248.022-.154.044-.215.066-.2.083-.182.1-.154.11-.132.132-.11.143-.088.16-.066.171-.044.182-.011.187.005.2.033.21.066.215.088.221.116.221.138.149.1.21.171.2.193.193.2.182.221.176.237.16.243Z" transform="translate(-69.541 -107.882)" fill="url(#linear-gradient-20)"/>
    <path id="Path_333" data-name="Path 333" d="M144.369,233.407l.21.171.2.188.193.21.182.221.176.232.16.248.149.248.138.265.121.265.1.27.088.27.066.27.055.27.028.265.011.265-.011.248-.017.16-.05.215-.061.2-.083.176-.1.154-.11.138-.132.11-.143.088-.16.066-.171.039-.182.017-.187-.011-.2-.033-.21-.061-.215-.088-.221-.116-.226-.143-.143-.1-.21-.176-.2-.187-.193-.21-.182-.221-.176-.232-.165-.243-.143-.254-.138-.259-.121-.27-.1-.27-.088-.27-.066-.27-.055-.27-.028-.265-.011-.265.011-.248.017-.16.044-.215.066-.2.083-.176.1-.154.11-.132.132-.11.143-.094.16-.061.171-.044.176-.017.193.011.2.033.21.061.215.088.226.116.221.143Z" transform="translate(-63.588 -104.455)" fill="url(#linear-gradient-17)"/>
    <path id="Path_334" data-name="Path 334" d="M144.369,174.421l.21.176.2.187.193.21.182.221.176.232.16.243.149.254.138.259.121.27.1.265.088.27.066.276.055.265.028.27.011.265-.011.248-.017.154-.05.215-.061.2-.083.176-.1.154-.11.138-.132.11-.143.088-.16.066-.171.039-.182.017-.187-.006-.2-.039-.21-.061-.215-.088-.221-.116-.226-.138-.143-.1-.21-.171-.2-.193-.193-.2-.182-.221-.176-.237-.165-.243-.143-.254-.138-.259-.121-.265-.1-.27-.088-.27-.066-.27-.055-.27-.028-.27-.011-.265.011-.248.017-.154.044-.221.066-.193.083-.182.1-.154.11-.132.132-.11.143-.088.16-.066.171-.039.176-.017.193.006.2.039.21.055.215.094.226.116.221.138Z" transform="translate(-63.588 -77.997)" fill="url(#linear-gradient-18)"/>
    <path id="Path_335" data-name="Path 335" d="M158.913,183.573l.138.259.116.27.11.27.083.265.072.276.055.27.028.265.011.265-.011.248-.017.154-.044.221-.066.2-.083.176-.1.154-.11.132-.132.11-.143.088-.16.066-.171.044-.176.017-.193-.011-.2-.033-.21-.066-.221-.083-.221-.116-.221-.143-.143-.1-.21-.171-.2-.193-.193-.2-.187-.221-.171-.237-.165-.243-.143-.254-.138-.259-.121-.265-.1-.27-.088-.27-.066-.27-.055-.27-.033-.265-.006-.265.006-.248.022-.16.044-.215.066-.2.083-.176.1-.154.11-.138.132-.11.143-.088.16-.066.171-.039.182-.017.187.011.2.033.21.061.215.088.221.116.221.138.149.1.21.176.2.187.193.21.182.221.176.232.16.243Z" transform="translate(-69.541 -81.42)" fill="url(#linear-gradient-17)"/>
    <path id="Path_336" data-name="Path 336" d="M177.254,192.38l.21.535.176.546.138.54.1.54.061.535.022.524-.022.5-.039.314-.088.43-.127.4-.165.353-.193.309-.232.27-.265.226-.287.176-.314.132-.342.077-.358.033-.386-.017-.4-.072-.419-.121-.43-.176-.441-.232-.447-.281-.287-.21-.419-.347-.408-.38-.386-.414-.369-.441-.353-.463-.32-.491-.3-.507-.27-.518-.243-.529-.2-.54-.176-.54-.143-.546-.1-.535-.066-.535-.022-.524.022-.5.039-.309.088-.441.132-.392.16-.353.2-.314.232-.265.259-.226.287-.176.314-.132.342-.077.364-.033.38.017.4.066.419.127.43.176.447.226.441.281.292.215.419.347.408.38.386.414.369.441.347.463.32.491.3.5.265.524Z" transform="translate(-75.79 -83.968)" fill="url(#linear-gradient-16)"/>
    <path id="Path_337" data-name="Path 337" d="M13.254,213.259l47.884,27.648.414.265.276.193.391.331.38.353.369.391.342.414.325.436.3.458.281.474.254.485.226.5.193.507.165.507.132.513.094.507.061.5.022.491-.022.469-.039.292-.083.408-.116.369-.154.336-.187.287-.215.254-.243.21-.276.165-.292.121-.32.077-.336.033-.358-.017-.375-.066-.392-.116-.408-.165-.414-.215L13.254,223.019l-.414-.265-.27-.193-.4-.331-.38-.353-.364-.392-.342-.414-.331-.436-.3-.458-.276-.474-.254-.485-.226-.5-.2-.507-.16-.507-.132-.507-.094-.507-.061-.5L9.03,215.7l.022-.469.033-.292.083-.408.121-.369.154-.331.187-.292.215-.254.243-.21.27-.165.3-.121.314-.077.342-.033.353.017.38.066.386.116.408.165Z" transform="translate(-4.051 -95.407)" fill="url(#linear-gradient-17)"/>
    <path id="Path_338" data-name="Path 338" d="M13.254,154.279l47.884,27.648.414.265.276.193.391.325.38.358.369.386.342.414.325.441.3.452.281.474.254.491.226.5.193.5.165.507.132.513.094.5.061.507.022.491-.022.463-.039.3-.083.4-.116.375-.154.331-.187.292-.215.248-.243.21-.276.171-.292.121-.32.077-.336.028-.358-.017-.375-.066-.392-.116-.408-.165-.414-.215L13.254,164.033l-.414-.259-.27-.2-.4-.325-.38-.358-.364-.386-.342-.414-.331-.441-.3-.452-.276-.474-.254-.491-.226-.5-.2-.507-.16-.507-.132-.507-.094-.507-.061-.5-.022-.491.022-.469.033-.292.083-.408.121-.369.154-.331.187-.292.215-.254.243-.21.27-.16.3-.127.314-.077.342-.028.353.017.38.066.386.11.408.171Z" transform="translate(-4.051 -68.949)" fill="url(#linear-gradient-26)"/>
    <path id="Path_339" data-name="Path 339" d="M13.254,95.289l47.884,27.648.414.265.276.2.391.325.38.353.369.386.342.414.325.441.3.458.281.474.254.485.226.5.193.507.165.507.132.513.094.5.061.5.022.491-.022.469-.039.292-.083.408-.116.369-.154.331-.187.292-.215.254-.243.21-.276.165-.292.121-.32.077-.336.028-.358-.011-.375-.066-.392-.116-.408-.165-.414-.221L13.254,105.049l-.414-.265-.27-.2-.4-.325-.38-.353-.364-.392-.342-.414-.331-.436-.3-.458-.276-.474-.254-.485-.226-.5-.2-.5-.16-.507-.132-.507-.094-.513-.061-.5-.022-.491.022-.469.033-.292.083-.408.121-.375.154-.331.187-.287.215-.254.243-.21.27-.165.3-.121.314-.077.342-.033.353.017.38.066.386.116.408.165Z" transform="translate(-4.051 -42.486)" fill="url(#linear-gradient-26)"/>
    <path id="Path_340" data-name="Path 340" d="M85.518,254.081l.05.27.072.27.088.276.1.265.121.265.138.265.143.248.165.248.176.232.182.221.193.2.2.193.21.171.143.1.221.143.551.325.276.143.265.11.265.077.248.044H89.8l.215-.05.2-.083,1.687-.976.182-.11.165-.138.138-.171.127-.193.1-.221.077-.248.055-.265v-.838l-.033-.336-.066-.336-.088-.342-.11-.342-.132-.331-.149-.331L92,252.515l-.187-.314-.2-.3-.215-.292-.232-.276-.243-.259-.254-.237-.259-.215-.193-.138-.27-.171-.276-.143-.27-.11-.259-.077-.254-.044h-.463l-.215.05-.193.083-1.693.976-.176.11-.165.138-.143.171-.127.193-.1.221-.083.248-.05.265-.028.2v1.224Zm9.837,9.925.369.441.386.414.408.38.419.353.287.21.447.281.844.485.551.276.513.2.5.149.474.083h.458l.425-.039.4-.1.375-.154,1.693-.976.342-.21.309-.265.276-.32.237-.369.193-.419.149-.469.1-.513.05-.386v-1.2l-.077-.634-.121-.645-.165-.64-.21-.651-.248-.634-.287-.634-.32-.618-.353-.6-.386-.579-.408-.551-.441-.524-.463-.491-.48-.458-.5-.4-.358-.259-.513-.331-.524-.276-.513-.2-.5-.149-.474-.083H97.77l-.43.033-.4.1-.375.154-1.72,1-.342.21-.314.265-.27.32-.237.369-.193.419-.154.469-.1.513-.044.386-.028.585v1.505l.066.551.1.551.143.551.176.551.2.551.243.551.27.524.3.5.325.491ZM80.412,253.232l.551.325.276.143.27.11.259.072.248.044h.463l.215-.055.2-.077,1.693-.976.176-.11.165-.143.143-.165.121-.193.1-.226.077-.243.055-.27v-.833L85.4,250.3l-.066-.336-.088-.342-.11-.342L85,248.948l-.149-.336-.165-.325-.187-.314-.2-.3-.215-.292-.232-.276-.243-.259-.254-.243-.259-.21-.193-.138-.27-.171-.276-.149-.27-.11-.259-.072-.248-.044h-.469l-.21.055-.2.077-1.687.976-.182.11-.165.143-.143.165-.127.193-.1.226-.077.243-.061.27v1.693l.055.27.066.27.088.27.1.27.121.265.138.259.143.254.165.243.176.232.182.226.193.2.2.193.21.171.143.1ZM5.42,209.6l.2.507.226.5.254.485.276.474.3.458.325.436.347.414.364.391.38.353.4.331.27.193.414.265L57.06,242.055l.551.331.458.237.458.188.441.132.425.072H59.8l.386-.039.358-.083.336-.143,1.687-.97.309-.187.276-.243.243-.281.21-.331.176-.38.138-.419.094-.458.039-.342v-1.075l-.066-.551-.11-.551-.143-.579-.187-.579-.221-.551-.259-.551-.287-.551-.314-.551-.347-.524-.364-.491-.4-.469-.408-.441-.436-.408-.441-.364-.314-.232-.458-.281L11.442,202.706l-.458-.237-.452-.187-.447-.132-.425-.072H9.253l-.38.033-.364.088-.331.132-1.693.976-.3.193-.281.232-.243.287-.215.331-.171.375-.138.425-.094.458L5,205.949l-.039.518v1.141l.061.5.088.507.138.507ZM112.586,265.3l.055,1.312-.055,1.246-.094.777-.221,1.1-.32.987-.408.882-.5.783-.551.667-.656.551-.722.441-.783.325-.849.2-.9.083-.954-.044-1-.171-1.042-.309-1.1-.441-1.1-.579L11.265,221.09l-1.1-.7-.717-.551-1.059-.866-1.02-.926L6.4,217.01l-.921-1.1-.866-1.169L3.8,213.52l-.744-1.263-.673-1.3-.607-1.329-.518-1.345L.816,206.93l-.347-1.362L.21,204.217l-.154-1.334L0,201.576l.055-1.252.094-.777.221-1.1.32-.987.414-.882.491-.777.551-.673.656-.551.722-.441.783-.325.855-.2.9-.083.954.044,1,.176,1.042.3,1.1.441,1.1.579L101.4,247.111l1.1.7.722.524,1.053.866,1.015.954.97,1.037.921,1.1.866,1.163.811,1.219.744,1.263.678,1.3.6,1.329.518,1.345.441,1.356.353,1.356.254,1.351Z" transform="translate(0 -86.812)" fill="url(#linear-gradient-28)"/>
    <path id="Path_341" data-name="Path 341" d="M.149,140.57l.221-1.1.32-.987.414-.866.491-.783.551-.667.656-.551.722-.447.783-.32.855-.21.9-.077.954.044,1,.171,1.042.309,1.1.436,1.1.579L101.4,188.135l1.1.7.722.524,1.053.871,1.015.954.97,1.031.921,1.1.866,1.169.811,1.219.744,1.263.673,1.3.6,1.323.518,1.345.441,1.356.353,1.362.254,1.345.154,1.34.055,1.307L112.6,208.9l-.094.783-.221,1.1-.32.987-.408.888-.5.777-.551.673-.656.551-.722.447-.783.325-.849.2-.9.083-.954-.044-1-.176-1.042-.3-1.1-.441-1.1-.551L11.265,162.114l-.982-.623-.127-.077-.717-.524-1.059-.871-1.015-.954-.97-1.031-.921-1.1-.866-1.174L3.8,154.543l-.744-1.263-.673-1.3-.607-1.323-.518-1.345-.441-1.356L.469,146.6.21,145.246l-.154-1.334L0,142.6l.055-1.252ZM85.518,195.1l.05.27.072.276.088.27.1.265.121.27.138.259.143.254.165.243.176.232.182.221.193.21.2.188.21.176.143.1.221.138.551.331.276.138.265.11.265.077.248.044H89.8l.215-.05.2-.077,1.687-.982.182-.11.165-.138.138-.165.127-.193.1-.226.077-.248.055-.265v-.838l-.033-.331-.066-.342-.088-.336-.11-.342-.132-.336-.149-.331L92,193.544l-.187-.314-.2-.309-.215-.292-.232-.276-.243-.254-.254-.243-.259-.215-.193-.132-.27-.176-.276-.143-.27-.1-.259-.077-.254-.05h-.463l-.215.055-.193.077-1.693.976-.176.11-.165.138-.143.171-.127.193-.1.221-.083.248-.05.27-.028.2v1.219Zm9.837,9.925.369.441.386.414.408.38.419.347.287.21.447.276.844.491.551.276.513.21.5.143.474.088h.458l.425-.039.4-.1.375-.149,1.693-.976.342-.215.309-.265.276-.314.237-.375.193-.419.149-.469.1-.507.05-.386v-1.208l-.077-.629-.121-.645-.165-.645-.21-.645-.248-.64-.287-.634-.32-.612-.353-.6-.386-.551-.408-.551-.441-.551-.463-.491-.48-.452-.5-.408-.358-.259-.513-.325-.524-.276-.513-.21-.5-.143-.474-.083H97.77l-.43.039-.4.094-.375.154-1.72.987-.342.21-.314.27-.27.314-.237.369-.193.419-.154.474-.1.507-.044.386-.028.585v1.5l.066.551.1.551.143.551.176.551.2.551.243.551.27.518.3.507.325.485ZM80.412,194.25l.551.325.276.143.27.11.259.077.248.044h.463l.232-.044.2-.083,1.693-.976.176-.11.165-.138.143-.171.121-.193.1-.221.077-.248.055-.265v-.838l-.033-.336-.066-.336-.088-.342-.11-.336-.132-.336-.149-.336-.165-.32-.187-.314-.2-.309L84.1,188.4l-.232-.276-.243-.259-.254-.237-.259-.215-.193-.138-.27-.171-.276-.143-.27-.11-.259-.077-.248-.044h-.469l-.21.05-.2.083-1.687.976-.182.11-.165.138-.143.165-.127.2-.1.221-.077.248-.061.27v1.687l.055.27.066.27.088.27.1.27.121.265.138.265.143.254.165.243.176.232.182.221.193.21.2.188.21.171.143.1ZM5.42,150.622l.2.507.226.5.254.491.276.474.3.452.325.441.347.414.364.386.38.358.4.325.27.2.414.259L57.06,183.073l.551.336.458.237.458.187.441.127.425.077H59.8l.386-.033.358-.088.336-.138,1.687-.976.309-.187.276-.237.243-.287.21-.331.176-.375.138-.419.094-.458.039-.342v-1.1l-.066-.551-.11-.551-.143-.579-.187-.551-.221-.551-.259-.551-.287-.551-.314-.551-.347-.518-.364-.5-.4-.469-.408-.441-.436-.4-.441-.369-.314-.226-.458-.287L11.442,143.73l-.458-.237-.452-.187-.447-.127-.425-.077H9.253l-.38.033-.364.088-.331.138-1.693.976-.3.187-.281.237-.243.287-.215.331-.171.375-.138.419-.094.458L5,146.972v1.7l.061.5.088.507.138.507Z" transform="translate(0 -60.363)" fill="url(#linear-gradient-29)"/>
    <path id="Path_342" data-name="Path 342" d="M.149,81.576l.221-1.1.32-.987L1.1,78.62l.491-.777.551-.673.656-.551.722-.441.783-.325.855-.2.9-.088.954.044,1,.176,1.042.3,1.1.441,1.1.551L101.4,129.14l1.1.706.722.551,1.053.866,1.015.954.97,1.037.921,1.1.866,1.163.811,1.219.744,1.263.678,1.3.6,1.329.518,1.345.441,1.356.353,1.356.254,1.351.154,1.334.055,1.312-.055,1.246-.094.777-.221,1.1-.32.987-.408.882-.5.777-.551.673-.656.551-.722.441-.783.325-.849.2-.9.083-.954-.044-1-.171-1.042-.309-1.1-.441-1.1-.579L11.265,103.125l-.982-.623-.127-.077-.717-.551-1.059-.866-1.015-.943L6.4,99.028l-.921-1.1L4.61,96.756,3.8,95.537l-.744-1.263-.673-1.3-.607-1.329L1.257,90.3.816,88.948.469,87.6.21,86.279.055,84.917,0,83.611l.055-1.252Zm85.369,54.54.05.27.072.27.088.27.1.27.121.265.138.265.143.248.165.248.176.232.182.221.193.2.2.193.21.171.143.1.221.143.551.325.276.143.265.11.265.077.248.039H89.8l.215-.05.2-.083,1.687-.976.182-.11.165-.138.138-.171.127-.193.1-.221.077-.248.055-.265v-.838l-.033-.336-.066-.336-.088-.342-.11-.342-.132-.331-.149-.331L92,134.544l-.187-.314-.2-.3-.215-.292-.232-.276-.243-.259-.254-.243-.259-.21-.193-.138-.27-.171-.276-.143-.27-.11-.259-.077-.254-.044h-.463l-.215.055-.193.083-1.693.976-.176.11-.165.138-.143.165-.127.2-.1.221-.083.248-.05.265-.028.2v1.224Zm9.837,9.925.369.441.386.414.408.38.419.347.287.21.447.281.844.491.551.27.513.21.5.149.474.083h.458l.425-.044.4-.094.375-.154,1.693-.976.342-.21.309-.265.276-.32.237-.369.193-.419.149-.474.1-.507.05-.386v-1.2l-.077-.634-.121-.645-.165-.645-.21-.645-.248-.64-.287-.629-.32-.618-.353-.6-.386-.551-.408-.551-.441-.551-.463-.485-.48-.458-.5-.4-.358-.265-.513-.325-.524-.276-.513-.21-.5-.143-.474-.083H97.77l-.43.039-.4.1-.375.154-1.72.987-.342.21-.314.265-.27.32-.237.369-.193.419-.154.469-.1.513-.044.386-.028.579v1.494l.066.551.1.551.143.551.176.551.2.551.243.551.27.518.3.507.325.491Zm-14.943-10.78.551.325.276.149.27.11.259.077.248.039h.463l.215-.055.2-.077,1.693-.976.176-.11.165-.143.143-.165.121-.2.1-.221.077-.243.055-.27v-.833l-.033-.336L85.33,132l-.088-.342-.11-.342L85,130.976l-.149-.331-.165-.325-.187-.314-.2-.3-.215-.292-.232-.276-.243-.259-.254-.243-.259-.21-.193-.138-.27-.171-.276-.149-.27-.11-.259-.077-.248-.039h-.469l-.21.055-.2.077-1.687.976-.182.11-.165.143-.143.165-.127.193-.1.226-.077.243-.061.27v1.693l.055.27.066.27.088.27.1.27.121.265.138.259.143.254.165.243.176.232.182.226.193.2.2.193.21.171.143.1ZM5.42,91.639l.2.5.226.5.254.485.276.474.3.458L7,94.5l.347.414.364.392.38.353.4.325.27.2.414.265L57.06,124.084l.551.336.458.237.458.187.441.132.425.072H59.8l.386-.033.358-.083.336-.143,1.687-.97.309-.193.276-.237.243-.281.21-.331.176-.38.138-.419.094-.458.039-.342V120.1l-.066-.551-.11-.551-.143-.579-.187-.579-.221-.551-.259-.551-.287-.551-.314-.551-.347-.524-.364-.491-.4-.469-.408-.441-.436-.408-.441-.364-.314-.232-.458-.287L11.442,84.741l-.458-.237-.452-.187-.447-.132-.425-.072H9.253l-.38.039-.364.083-.331.138-1.693.976-.3.193-.281.187-.243.287-.215.331-.171.375-.138.425L5.04,87.6,5,87.945v1.693l.061.5.088.507.138.507Z" transform="translate(0 -33.896)" fill="url(#linear-gradient-30)"/>
    <path id="Path_343" data-name="Path 343" d="M16.259,209.418l.458.237,47.912,27.664.458.281.314.232.441.364.436.408.408.441.4.469.364.491.347.524.314.535.287.551.259.562.221.573.187.579.143.579.11.568.066.568.022.557-.022.524-.039.342-.094.458-.138.419-.176.38-.2.331-.248.281-.276.243-.309.187-1.687.976.3-.187.281-.243.243-.281.21-.331.176-.38.138-.419.094-.458.039-.336.022-.529-.022-.551-.066-.568-.11-.579-.149-.573-.187-.579-.221-.573-.254-.562-.292-.551-.314-.54-.342-.513-.369-.5L65,240.021l-.414-.441-.43-.408-.447-.364-.314-.232-.452-.281L15.03,210.631l-.458-.237-.458-.187-.441-.132L13.249,210l-.408-.017-.386.033-.358.088-.336.132,1.693-.976.331-.132.364-.088.38-.033.408.017.425.072.447.132Z" transform="translate(-5.275 -93.76)" fill="url(#linear-gradient-31)"/>
    <path id="Path_344" data-name="Path 344" d="M144.744,289.268l-.265-.077-.248-.044-.237-.011-.226.017-.215.055-.193.077,1.687-.976.2-.077.21-.055.226-.017.237.011.254.044.259.072.27.11.276.149.27.171.193.138.259.21.254.243.243.259.232.276.215.292.2.3.187.314.165.325.149.336.132.331.11.342.088.342.066.336.033.336.017.325-.017.3-.022.2-.055.27-.077.243-.1.226-.121.193-.143.165-.165.143-.176.11-1.7.976.187-.116.16-.138.143-.165.127-.193.1-.221.077-.248.061-.27.022-.2.017-.3-.017-.331-.039-.331-.066-.336-.088-.342-.11-.342-.127-.336-.154-.331-.165-.325-.187-.314-.2-.309-.221-.287-.232-.276-.243-.259-.254-.237-.259-.215-.187-.138-.27-.171-.281-.149Z" transform="translate(-64.31 -129.266)" fill="url(#linear-gradient-32)"/>
    <path id="Path_345" data-name="Path 345" d="M159.442,295.845l.259.077.27.11.276.143.27.171.193.138.259.215.254.237.243.259.226.276.221.292.2.3.187.32.165.325.149.331.132.336.11.336.088.342.066.336.033.336.017.325-.017.3-.022.2-.055.27-.077.248-.1.221-.127.193-.138.165-.165.143-.182.11-1.687.976.176-.11.165-.143.143-.165.127-.193.1-.221.083-.248.055-.27.022-.2.011-.3-.011-.325-.039-.336-.066-.336-.088-.342-.11-.336-.127-.336-.154-.331-.165-.331-.187-.314-.2-.3-.221-.292-.232-.276-.243-.259-.254-.237-.259-.215-.187-.138-.27-.171-.281-.143-.27-.11-.259-.077-.248-.044-.237-.011-.226.022-.215.05-.193.083,1.687-.976.193-.083.215-.05.226-.022.237.011Z" transform="translate(-70.263 -132.689)" fill="url(#linear-gradient-33)"/>
    <path id="Path_346" data-name="Path 346" d="M182.332,307.976l.165.64.121.645.077.634.022.618-.022.585-.05.386-.1.513-.149.469-.193.419-.237.369-.276.32-.309.265-.342.21-1.693.976.347-.21.309-.265.27-.32.237-.369.2-.419.149-.469.1-.513.044-.386.028-.585-.028-.618-.072-.634-.121-.645-.171-.64-.2-.651-.248-.634-.292-.634-.32-.618-.347-.6-.386-.579-.414-.551-.441-.524-.458-.5-.485-.452-.491-.4-.358-.259-.518-.331-.524-.276-.513-.2-.5-.149-.474-.083-.452-.022-.43.039-.4.1-.375.154,1.687-.976.375-.154.4-.1.43-.039.458.022.469.083.5.149.518.2.524.276.513.331.358.259.5.4.48.452.463.5.441.524.408.551.386.579.353.6.32.618.287.634.248.634Z" transform="translate(-77.162 -134.807)" fill="url(#linear-gradient-34)"/>
    <path id="Path_347" data-name="Path 347" d="M182.332,248.991l.165.645.121.645.077.629.022.623-.022.585-.05.386-.1.507-.149.469-.193.419-.237.375-.276.314-.309.265-.342.215-1.693.976.347-.21.309-.27.27-.314.237-.369.2-.425.149-.469.1-.507.044-.386.028-.584-.028-.623-.072-.629-.121-.645-.171-.645-.2-.645-.248-.64-.292-.634-.32-.612-.347-.6-.386-.579-.414-.551-.441-.529-.458-.491-.485-.452-.491-.408-.358-.259-.518-.325-.524-.276-.513-.21-.5-.143-.474-.083-.452-.022-.43.039-.4.1-.375.149,1.687-.97.375-.16.4-.094.43-.039.458.022.469.083.5.143.518.21.524.276.513.325.358.259.5.408.48.452.463.491.441.529.408.551.386.579.353.6.32.618.287.629.248.64Z" transform="translate(-77.162 -108.349)" fill="url(#linear-gradient-34)"/>
    <path id="Path_348" data-name="Path 348" d="M159.442,236.861l.259.077.27.1.276.143.27.176.193.132.259.221.254.237.243.254.226.276.221.292.2.309.187.314.165.325.149.331.132.336.11.342.088.336.066.342.033.331.017.325-.017.309-.022.2-.055.265-.077.248-.1.226-.127.193-.138.165-.165.138-.182.11-1.687.982.176-.11.165-.143.143-.165.127-.193.1-.221.083-.254.055-.265.022-.2.011-.309-.011-.325-.039-.331-.066-.342-.088-.336-.11-.342-.127-.336-.154-.331-.165-.325-.187-.314-.2-.309-.221-.287-.232-.281-.243-.254-.254-.243-.259-.215-.187-.132-.27-.176-.281-.143-.27-.11-.259-.072-.248-.05-.237-.011-.226.022-.215.055-.193.077,1.687-.976.193-.077.215-.055.226-.022.237.011Z" transform="translate(-70.263 -106.227)" fill="url(#linear-gradient-36)"/>
    <path id="Path_349" data-name="Path 349" d="M144.744,230.278l-.265-.077-.248-.044-.237-.011-.226.022-.215.05-.193.083,1.687-.976.2-.083.21-.05.226-.022.237.011.254.044.259.077.27.11.276.143.27.176.193.132.259.215.254.237.243.259.232.276.215.292.2.309.187.314.165.32.149.336.132.336.11.336.088.342.066.336.033.336.017.325-.017.309-.022.2-.055.265-.077.248-.1.221-.121.2-.143.165-.165.138-.176.11-1.7.976.187-.11.16-.138.143-.171.127-.193.1-.221.077-.248.061-.265.022-.2.017-.309-.017-.325-.039-.336-.066-.336-.088-.342-.11-.336-.127-.336-.154-.331-.165-.325-.187-.314-.2-.309-.221-.292-.232-.276-.243-.259-.254-.237-.259-.215-.187-.138-.27-.171-.281-.143Z" transform="translate(-64.31 -102.804)" fill="url(#linear-gradient-37)"/>
    <path id="Path_350" data-name="Path 350" d="M16.259,150.428l.458.237,47.912,27.664.458.287.314.226.441.369.436.4.408.441.4.469.364.5.347.518.314.535.287.557.259.562.221.573.187.573.143.579.11.573.066.568.022.557-.022.524-.039.342-.094.458-.138.419-.176.375-.2.336-.248.281-.276.237-.309.187-1.687.976.3-.187.281-.237.243-.287.21-.331.176-.375.138-.419.094-.458.039-.342.022-.524-.022-.557-.066-.568-.11-.573-.149-.579-.187-.573-.221-.573-.254-.568-.292-.551-.314-.535L65.759,182l-.369-.5L65,181.031l-.414-.441-.43-.4-.447-.369-.314-.226-.452-.287L15.03,151.641l-.458-.237-.458-.187-.441-.127-.425-.077L12.841,151l-.386.033-.358.088-.336.138,1.693-.976.331-.138.364-.088.38-.033.408.017.425.077.447.127Z" transform="translate(-5.275 -67.298)" fill="url(#linear-gradient-38)"/>
    <path id="Path_351" data-name="Path 351" d="M144.744,171.293l-.265-.077-.248-.039-.237-.011-.226.017-.215.05-.193.083,1.687-.976.2-.083.21-.05.226-.017.237.011.254.039.259.077.27.11.276.149.27.171.193.138.259.21.254.243.243.259.232.276.215.292.2.3.187.314.165.325.149.331.132.336.11.342.088.342.066.336.033.336.017.325-.017.3-.022.2-.055.27-.077.243-.1.226-.121.193-.143.165-.165.143-.176.11-1.7.976.187-.116.16-.138.143-.165.127-.2.1-.221.077-.243.061-.27.022-.2.017-.3-.017-.331-.039-.331-.066-.336-.088-.342-.11-.342-.127-.336-.154-.331-.165-.325-.187-.314-.2-.309-.221-.287-.232-.276-.243-.259-.254-.243-.259-.21-.187-.138-.27-.171-.281-.149Z" transform="translate(-64.31 -76.346)" fill="url(#linear-gradient-32)"/>
    <path id="Path_352" data-name="Path 352" d="M159.442,177.875l.259.077.27.11.276.143.27.171.193.138.259.215.254.237.243.259.226.276.221.292.2.3.187.32.165.325.149.331.132.331.11.342.088.342.066.336.033.336.017.325-.017.309-.022.2-.055.27-.077.248-.1.221-.127.193-.138.171-.165.138-.182.11-1.687.976.176-.11.165-.138.143-.171.127-.193.1-.221.083-.248.055-.27.022-.2.011-.3-.011-.325-.039-.336-.066-.336-.088-.342-.11-.342-.127-.331-.154-.336-.165-.325-.187-.314-.2-.3-.221-.292-.232-.276-.243-.259-.254-.243-.259-.21-.187-.138-.27-.171-.281-.143-.27-.11-.259-.077-.248-.044-.237-.011-.226.017-.215.055-.193.083,1.687-.976.193-.083.215-.055.226-.017.237.011Z" transform="translate(-70.263 -79.769)" fill="url(#linear-gradient-40)"/>
    <path id="Path_353" data-name="Path 353" d="M16.259,91.444l.458.237,47.912,27.659.458.287.314.232.441.364.436.408.408.441.4.469.364.491.347.518.314.54.287.551.259.562.221.573.187.579.143.579.11.573.066.562.022.557-.022.524-.039.342-.094.458-.138.419-.176.38-.2.331-.248.281-.276.237-.309.193-1.687.976.3-.193.281-.237.243-.281.21-.331.176-.38.138-.419.094-.458.039-.342.022-.524-.022-.557-.066-.568-.11-.573-.149-.573-.187-.579-.221-.573-.254-.562-.292-.551-.314-.535-.342-.524-.369-.491L65,122.047l-.414-.441-.43-.408-.447-.364-.314-.232-.452-.287L15.03,92.657l-.458-.237-.458-.187-.441-.132-.425-.072-.408-.017-.386.033-.358.083-.336.138,1.693-.976.331-.138.364-.083.38-.039.408.022.425.072.447.132Z" transform="translate(-5.275 -40.835)" fill="url(#linear-gradient-34)"/>
    <path id="Path_354" data-name="Path 354" d="M182.332,190l.165.645.121.645.077.634.022.623-.022.579-.05.386-.1.507-.149.474-.193.419-.237.369-.276.32-.309.265-.342.21-1.693.976.347-.21.309-.265.27-.32.237-.369.2-.419.149-.474.1-.507L181,194.1l.028-.584L181,192.9l-.072-.634-.121-.645-.171-.645-.2-.645-.248-.634-.292-.634-.32-.618-.347-.6-.386-.579-.414-.551-.441-.529-.458-.491-.485-.452-.491-.4-.358-.265-.518-.325-.524-.276-.513-.21-.5-.143-.474-.083-.452-.022-.43.039-.4.1-.375.154,1.687-.976.375-.154.4-.1.43-.039.458.022.469.083.5.143.518.21.524.276.513.325.358.265.5.4.48.458.463.485.441.529.408.551.386.579.353.6.32.618.287.629.248.64Z" transform="translate(-77.162 -81.886)" fill="url(#linear-gradient-34)"/>
    <path id="Path_355" data-name="Path 355" d="M9.072,186.444l-.954.232-.888.364,6.3-3.639.982.623,90.139,52.042,1.445.833,1.208.629,1.213.5,1.169.347,1.13.193,1.075.05,1.015-.088.954-.232.888-.369,61.151-35.3h0l1,.827,1.141,1.075,1.1,1.163,1.037,1.246.976,1.312.91,1.367.838,1.423.761,1.461.673,1.494.59,1.516.5,1.527.391,1.527.287,1.516.176,1.505.061,1.467-.061,1.39-.1.9-.248,1.213-.364,1.114-.458.993-.557.877-.651.755-.733.623-.811.5-67.6,39.029.811-.5.733-.629.651-.755.557-.877.458-.993.364-1.114.248-1.213.11-.9.055-1.39-.055-1.472-.182-1.5-.287-1.522-.392-1.527-.5-1.527-.59-1.516-.673-1.494-.761-1.461-.838-1.423-.91-1.368-.976-1.312-1.037-1.241-1.092-1.163-1.147-1.075-1.174-.97-.833-.607-1.2-.761-90.2-52.075-1.213-.634-1.208-.491-1.174-.347-1.13-.2-1.075-.044Z" transform="translate(-3.243 -82.272)" fill="url(#linear-gradient-43)"/>
    <path id="Path_356" data-name="Path 356" d="M9.072,127.464l-.954.226-.888.369,6.3-3.639.982.623,90.139,52.036,1.445.833,1.208.634,1.213.5,1.169.342,1.13.2,1.075.05,1.015-.094.954-.232.888-.364,61.151-35.307,1,.833,1.141,1.075,1.1,1.163,1.037,1.241.976,1.312.91,1.373.838,1.417.761,1.467.673,1.489.59,1.516.5,1.527.391,1.527.287,1.522.176,1.5.061,1.472-.061,1.39-.1.9-.248,1.219-.364,1.108-.458,1-.557.877-.651.75-.733.629-.811.5-6.451,3.728-61.151,35.3.811-.5.733-.623.651-.755.557-.877.458-1,.364-1.108.248-1.213.11-.9.055-1.39-.055-1.472-.182-1.5-.287-1.522-.392-1.527-.5-1.527-.59-1.516-.673-1.489-.761-1.467-.838-1.417-.91-1.373-.976-1.312-1.037-1.241-1.092-1.163L109.3,183.5l-1.174-.965-.833-.607-1.2-.761-90.2-52.08-1.213-.629-1.208-.5-1.174-.342-1.13-.2-1.075-.05Z" transform="translate(-3.243 -55.814)" fill="url(#linear-gradient-44)"/>
    <path id="Path_357" data-name="Path 357" d="M9.072,39.122l-.954.232-.888.364L74.833.689l.882-.364.959-.232L77.689,0l1.075.05,1.125.2L81.063.59l1.213.5,1.213.634,90.2,52.075,1.2.761.833.607,1.174.97,1.141,1.07,1.1,1.163,1.037,1.246.976,1.312.91,1.367.838,1.423.761,1.461.673,1.494.59,1.511.5,1.527.391,1.533.287,1.516.176,1.5.061,1.472-.061,1.39-.1.9-.248,1.213-.364,1.114-.458.993-.557.877-.651.755-.733.629-.811.491-6.451,3.728-61.151,35.307.811-.5.733-.629.651-.755.557-.871.458-1,.364-1.114.248-1.213.11-.9.055-1.39-.055-1.472-.182-1.5-.287-1.522-.392-1.527-.5-1.527-.59-1.516-.673-1.494-.761-1.461-.838-1.423-.91-1.367-.976-1.312L111.534,97.4l-1.092-1.163L109.3,95.162l-1.174-.97-.833-.607-1.2-.761-90.2-52.075-1.213-.634-1.208-.5-1.174-.342-1.13-.193-1.075-.055Z" transform="translate(-3.243)" fill="url(#linear-gradient-45)"/>
  </g>
</svg>
