<svg id="Layer_2" data-name="Layer 2" xmlns="http://www.w3.org/2000/svg" xmlns:xlink="http://www.w3.org/1999/xlink" width="239.271" height="156.595" viewBox="0 0 239.271 156.595">
  <defs>
    <linearGradient id="linear-gradient" y1="0.5" x2="1" y2="0.5" gradientUnits="objectBoundingBox">
      <stop offset="0" stop-color="#828282"/>
      <stop offset="1" stop-color="#7a7a7a"/>
    </linearGradient>
    <linearGradient id="linear-gradient-2" y1="0.5" x2="1" y2="0.5" gradientUnits="objectBoundingBox">
      <stop offset="0" stop-color="#a1a1a1"/>
      <stop offset="1" stop-color="#8f8f8f"/>
    </linearGradient>
    <linearGradient id="linear-gradient-3" y1="0.5" x2="1" y2="0.5" gradientUnits="objectBoundingBox">
      <stop offset="0" stop-color="#a1a1a1"/>
      <stop offset="0.46" stop-color="#9c9c9c"/>
      <stop offset="0.99" stop-color="#8e8e8e"/>
      <stop offset="1" stop-color="#8e8e8e"/>
    </linearGradient>
    <linearGradient id="linear-gradient-4" y1="0.5" x2="1" y2="0.5" gradientUnits="objectBoundingBox">
      <stop offset="0" stop-color="#a1a1a1"/>
      <stop offset="0.49" stop-color="#8e8e8e"/>
      <stop offset="1" stop-color="#7e7e7e"/>
    </linearGradient>
    <linearGradient id="linear-gradient-5" y1="0.5" x2="1" y2="0.5" gradientUnits="objectBoundingBox">
      <stop offset="0" stop-color="#a1a1a1"/>
      <stop offset="1" stop-color="#a1a1a1"/>
    </linearGradient>
    <linearGradient id="linear-gradient-6" x1="0" y1="0.5" x2="1" y2="0.5" xlink:href="#linear-gradient-2"/>
    <linearGradient id="linear-gradient-7" y1="0.5" x2="1" y2="0.5" gradientUnits="objectBoundingBox">
      <stop offset="0" stop-color="gray"/>
      <stop offset="1" stop-color="#727272"/>
    </linearGradient>
    <linearGradient id="linear-gradient-8" y1="0.5" x2="1" y2="0.5" gradientUnits="objectBoundingBox">
      <stop offset="0" stop-color="#acacac"/>
      <stop offset="0.66" stop-color="#969696"/>
      <stop offset="1" stop-color="#7e7e7e"/>
    </linearGradient>
    <linearGradient id="linear-gradient-9" x1="0" x2="1" xlink:href="#linear-gradient-4"/>
    <linearGradient id="linear-gradient-10" y1="0.5" x2="1" y2="0.5" gradientUnits="objectBoundingBox">
      <stop offset="0" stop-color="#b8b8b8"/>
      <stop offset="0.29" stop-color="#b3b3b3"/>
      <stop offset="0.64" stop-color="#a5a5a5"/>
      <stop offset="1" stop-color="#8e8e8e"/>
    </linearGradient>
    <linearGradient id="linear-gradient-11" y1="0.5" x2="1" y2="0.5" gradientUnits="objectBoundingBox">
      <stop offset="0" stop-color="#868686"/>
      <stop offset="0.45" stop-color="#828282"/>
      <stop offset="0.88" stop-color="#777"/>
      <stop offset="1" stop-color="#727272"/>
    </linearGradient>
    <linearGradient id="linear-gradient-12" x1="0" y1="0.5" y2="0.5" xlink:href="#linear-gradient-11"/>
    <linearGradient id="linear-gradient-13" y1="0.5" x2="1" y2="0.5" gradientUnits="objectBoundingBox">
      <stop offset="0" stop-color="#686868"/>
      <stop offset="1" stop-color="#606060"/>
    </linearGradient>
    <linearGradient id="linear-gradient-14" y1="0.5" x2="1" y2="0.5" gradientUnits="objectBoundingBox">
      <stop offset="0" stop-color="#868686"/>
      <stop offset="0.57" stop-color="#7d7d7d"/>
      <stop offset="1" stop-color="#727272"/>
    </linearGradient>
    <linearGradient id="linear-gradient-15" y1="0.5" x2="1" y2="0.5" gradientUnits="objectBoundingBox">
      <stop offset="0" stop-color="#868686"/>
      <stop offset="0.53" stop-color="#727272"/>
      <stop offset="1" stop-color="#606060"/>
    </linearGradient>
    <linearGradient id="linear-gradient-16" y1="0.5" x2="1" y2="0.5" gradientUnits="objectBoundingBox">
      <stop offset="0" stop-color="#868686"/>
      <stop offset="0.98" stop-color="#868686"/>
      <stop offset="1" stop-color="#868686"/>
    </linearGradient>
    <linearGradient id="linear-gradient-17" y1="0.5" x2="1" y2="0.5" gradientUnits="objectBoundingBox">
      <stop offset="0" stop-color="#868686"/>
      <stop offset="1" stop-color="#727272"/>
    </linearGradient>
    <linearGradient id="linear-gradient-18" y1="0.5" x2="1" y2="0.5" gradientUnits="objectBoundingBox">
      <stop offset="0" stop-color="#6d6d6d"/>
      <stop offset="1" stop-color="#606060"/>
    </linearGradient>
    <linearGradient id="linear-gradient-20" y1="0.5" x2="1" y2="0.5" gradientUnits="objectBoundingBox">
      <stop offset="0" stop-color="#d6d6d6"/>
      <stop offset="1" stop-color="#c2c2c2"/>
    </linearGradient>
  </defs>
  <g id="Слой_16" data-name="Слой 16">
    <path id="Path_219" data-name="Path 219" d="M265.031,24.677,245.067,36.2l-.077-4.156,16.365-9.439Z" transform="translate(-74.452 -6.871)" fill="url(#linear-gradient)"/>
    <path id="Path_220" data-name="Path 220" d="M106.873,51.788l.084.125-5.346-5.186,2.555.759,2.52.613,2.471.459,2.443.32,2.395.167,1.963.035,1.942-.07,1.914-.174,1.886-.271,1.518-.292,1.545-.362,3.181-.919,3.731-1.357,4.782-2.109,6.425-3.411,13.811-7.977,3.272-1.8L163.1,28.8l3.557-1.511,2.812-.968,2.137-.585,1.051-.23.787-.146,1.594-.223L176.643,25l1.615-.042,1.636.056,1.643.139,1.657.237,1.956.4,1.42.362,1.469.439,3.07,1.093,4.267,1.879,6.042,3.2.077,4.156-7.769-4.128-4.072-1.782-2.882-1.03-1.309-.39-1.26-.32-1.74-.355-1.427-.2-1.406-.125-1.385-.042-1.364.035-1.357.111-1.378.195L173.5,29l-.891.195-1.935.529-2.6.9-3.39,1.434-3,1.476L158.5,35.3l-13.832,7.984-6.557,3.481-4.963,2.193-3.94,1.427-3.39.982-1.705.4-1.685.327-2.1.306-2.144.195-2.179.077L113.8,52.63l-2.645-.188-2.68-.348-1.58-.3Z" transform="translate(-30.879 -7.585)" fill="url(#linear-gradient-2)"/>
    <path id="Path_221" data-name="Path 221" d="M31.84,73.246l14.444-8.924.341-.209,2.694-1.942,2.193-1.8.9-.919L53,58.7l.446-.759.32-.759.181-.759L54,55.656l-.077-.787-.209-.8-.265-.64L53,52.6l-.78-1.065-1.309-1.392-2.311-2-5.054-3.613L35.014,39.3,38.6,37.23l6.884,4.218,5.2,3.71,2.436,2.123,1.42,1.511.87,1.19.529.947.306.759.244.933.09.919-.07.919-.216.9-.376.891-.529.891-.682.877L53.684,59.06l-2.311,1.907-2.805,2.019-2.673,1.65-12.2,7.546Z" transform="translate(-9.676 -11.314)" fill="url(#linear-gradient-3)"/>
    <path id="Path_222" data-name="Path 222" d="M52.74,108.793l2.332,1.921,1.733,1.211,1.239.863,2.165,1.357-1.441-.849-2.659-1.629-3.084-2.151-2.457-2.026-1.545-1.566-.919-1.156-.418-.64-.341-.647-.383-.954-.223-.947-.07-.94.1-.933.251-.926.418-.919.578-.912.6-.766.717-.787L51.1,93.757l2.972-2.248,5.033-3.16,14.9-8.611,4.358-2.666,3.3-2.3,2.965-2.436,1.838-1.859L87.7,68.906l.766-1.288.362-.856.251-.863.16-1.093L89.216,63.7l-.195-1.128-.466-1.364-.724-1.4-1.162-1.65L84.914,56.23l5.346,5.186.794,1.531.515,1.5.216,1.26.021,1.246-.174,1.225-.285.981-.418.968-.835,1.427-1.33,1.692L86.8,75.234,83.71,77.774l-3.418,2.381L75.851,82.87l-14.9,8.6L56.04,94.564,53.213,96.7l-1.65,1.531-.64.7-.529.675-.5.794-.348.78-.216.78-.084.787.056.8.195.807.327.842.3.543.362.557.828,1.051Z" transform="translate(-14.183 -17.088)" fill="url(#linear-gradient-4)"/>
    <path id="Path_223" data-name="Path 223" d="M10.532,97.454l2.743-1.685.529-.327,1.845-1.072L12.46,96.333,10.087,98,7.42,100.217l-1.852,1.914-1.232,1.636-.9,1.622-.5,1.343-.278,1.337-.077,1.859L2.75,111.5l.487,1.824.787,1.8,1.086,1.789,1.622,2.019,2.012,1.991,3.724,3.084,4.539,3.3L29.647,135.2l-.07,4.239-14.521-9.07L10.407,127l-3.836-3.167L4.448,121.72l-1.719-2.144-1.169-1.914L.71,115.719l-.522-1.956L0,112.058l.084-2,.306-1.476L.947,107.1l.982-1.761,1.337-1.768,1.977-2.047,2.791-2.318Z" transform="translate(0 -28.679)" fill="url(#linear-gradient-5)"/>
    <path id="Path_224" data-name="Path 224" d="M58.939,139.059l.007.007,3.564,2.144-16.456,9.495-3.564,2.06.07-4.239,16.365-9.446-1.427-.87Z" transform="translate(-12.913 -42.002)" fill="#828282"/>
    <path id="Path_225" data-name="Path 225" d="M212.99,167.8l.07,4.156-11.43-6.084-5.1-2.241-3.362-1.2-1.629-.48-1.511-.355-1.74-.313-1.392-.167-1.371-.09L184.178,161l-1.33.063-1.316.132-1.309.216-1.316.3-1.03.278-1.316.445-3.467,1.413-7.956,3.9-10.887,6.042-8.388,4.838-4.984,2.624L136.843,183l-3.536,1.253-3.056.863-3.042.668-2.555.4-2.06.223-2.06.132-3.446.049-3.432-.139-3.39-.327-3.348-.515-3.306-.7-3.265-.884L96.7,182.793l-7.379-3.042L80.793,175.6l-11.1-6.1,3.682-2.123,9.14,5.019,8.381,4.079,7.2,2.965,3.453,1.162,3.063.835,3.084.654,3.119.473,3.153.313,3.181.125,3.223-.042,1.852-.118,1.852-.2,2.339-.369,2.819-.62,2.84-.807,3.334-1.176,3.836-1.664,4.852-2.555,8.36-4.824,10.964-6.084,8.1-3.968,3.661-1.5,1.5-.5,1.211-.334,1.524-.341,1.545-.251,1.559-.16,1.58-.077,1.594.014,1.608.111,1.629.195,1.97.348,1.712.411,1.824.536,3.557,1.274,5.3,2.325Z" transform="translate(-21.179 -47.84)" fill="url(#linear-gradient-6)"/>
    <path id="Path_226" data-name="Path 226" d="M297.853,158.93,275.62,171.766l-.07-4.156,18.725-10.81Z" transform="translate(-83.739 -47.651)" fill="url(#linear-gradient-7)"/>
    <path id="Path_227" data-name="Path 227" d="M279.773,109.02l.258.654.452.849.78,1.086,1.295,1.4,2.29,2.019,2.228,1.608,2.757,2,4.914,3.014,3.529,2.165-3.578-2.13-4.239-2.6L287.9,117.5l-1.323-.954-3.815-2.75-2.422-2.137-1.406-1.524-.87-1.211-.522-.975-.3-.773-.23-.954-.07-.947.083-.94.251-.933.4-.926.571-.912.731-.9,1.079-1.079L282.2,97.84l2.791-2.026,15.342-9.5,7.274-4.2,3.661-2.269,2.715-1.97,2.269-1.949,1.81-1.928,1.2-1.643.738-1.357.508-1.343.278-1.337.077-1.859-.181-1.573-.487-1.817-.8-1.8-1.107-1.782-1.643-2L314.6,55.5l-3.759-3.056-4.163-3L293.6,41.282l.07-.042,12.119,7.567,2.833,1.768,4.26,3.077,3.87,3.139,2.158,2.088,1.74,2.137,1.19,1.907.863,1.935.529,1.956.195,1.705-.084,2-.306,1.476-.564,1.483-.807,1.483-1.295,1.775-1.928,2.053-2.395,2.06-2.84,2.06-3.759,2.332-7.274,4.2-15.238,9.439-2.694,1.949-2.019,1.664-.974.961-.627.78-.487.787-.348.787-.209.787-.077.794.063.807Z" transform="translate(-84.161 -12.533)" fill="url(#linear-gradient-8)"/>
    <path id="Path_228" data-name="Path 228" d="M243.508,108.4l-3,2.45-1.879,1.886-1.267,1.587-.807,1.323-.4.87-.223.661-.223,1.107-.056,1.128.167,1.371.432,1.392.675,1.42,1.114,1.685,1.692,1.963-2.513-.78-.174-.049-2.3-.592-.473-.1-.536-1.121-.466-1.538-.195-1.524.063-1.267.251-1.232.258-.759.439-.975.884-1.441,1.364-1.712,2-2,3.119-2.562,3.432-2.388,2.687-1.643,1.761-1.079,1.845-1.065-4.365,2.673Z" transform="translate(-70.832 -31.429)" fill="url(#linear-gradient-9)"/>
    <path id="Path_229" data-name="Path 229" d="M279.244,79.22,276.9,80.688l-1.852,1.072,4.149-2.6.766-.487,2.826-2.144,1.65-1.531.64-.7.529-.675.5-.794.355-.78.209-.787.084-.78-.056-.8-.188-.807-.334-.835-.3-.557-.355-.557-.828-1.044-1.434-1.441-2.332-1.921-2.965-2.074-5.743-3.508L275.8,54.87l4.079,2.492,3.091,2.158,2.457,2.026,1.552,1.559.912,1.156.418.647.341.64.383.961.223.947.07.94-.1.933-.258.926-.411.919-.578.912-.606.766-.71.787L284.9,75.273l-2.972,2.255Z" transform="translate(-82.727 -16.675)" fill="url(#linear-gradient-10)"/>
    <path id="Path_230" data-name="Path 230" d="M55.39,56.558l-.056.766-.181.759-.32.759-.446.759-.585.752-.9.919-2.193,1.8-2.694,1.942-.341.209-2.736-1.956L36.4,58.041V40.2l8.534,5.228,5.054,3.613,2.311,2,1.309,1.392.78,1.065.452.828.265.64.209.8Z" transform="translate(-11.062 -12.217)" fill="url(#linear-gradient-11)"/>
    <path id="Path_231" data-name="Path 231" d="M233.741,132.523l.536,1.121-1.2-.237V129.46l.195,1.524Z" transform="translate(-70.832 -39.343)" fill="#717171"/>
    <path id="Path_232" data-name="Path 232" d="M286.177,68.943l.334.835.188.807.056.8-.084.78-.209.787-.355.78-.5.794-.529.675-.64.7-1.65,1.531-2.826,2.144-.766.487-1.232-.863-5.743-3.508V57.84l5.743,3.508,2.965,2.074,2.332,1.921,1.434,1.441.828,1.044.355.557Z" transform="translate(-82.727 -17.577)" fill="url(#linear-gradient-12)"/>
    <path id="Path_233" data-name="Path 233" d="M265.064,25.58V43.428L245.1,54.956V37.107Z" transform="translate(-74.485 -7.774)" fill="url(#linear-gradient-13)"/>
    <path id="Path_234" data-name="Path 234" d="M109.191,53.36l1.58.3,2.68.348,2.645.188,2.207.035,2.179-.077,2.144-.195,2.1-.306,1.685-.327,1.705-.4,3.39-.982,3.94-1.427,4.963-2.193,6.557-3.481,13.832-7.984,3.2-1.761,3-1.476,3.39-1.434,2.6-.9,1.935-.529.891-.195.64-.118,1.378-.195,1.357-.111,1.364-.035,1.385.042,1.406.125,1.427.2,1.74.355,1.26.32,1.309.39,2.882,1.03,4.072,1.782,7.769,4.128V56.332L196.023,52.2l-4.072-1.789-2.882-1.03L187.76,49l-1.26-.32-1.74-.348-1.427-.209L181.927,48l-1.385-.049-1.364.035-1.357.111-1.378.195-.64.118-.891.195-1.935.536-2.6.891-3.39,1.434-3,1.476-3.2,1.761-13.832,7.991L140.4,66.175l-4.963,2.193-3.94,1.42-3.39.981-1.705.4-1.685.327-2.1.306-2.144.195-2.179.077-2.207-.035-2.645-.188L110.8,71.5V59.019l-.021-1.246-.216-1.26-.515-1.5-.794-1.531-.084-.125Z" transform="translate(-33.176 -9.15)" fill="url(#linear-gradient-14)"/>
    <path id="Path_235" data-name="Path 235" d="M92.93,71.64V89.488l-.174,1.225-.285.975-.418.975-.835,1.42-1.33,1.692-1.963,1.984L84.834,100.3l-3.418,2.381L76.975,105.4l-14.9,8.6-4.149,2.61L56.2,115.4l-2.332-1.921-1.427-1.441-.828-1.051-.362-.557-.3-.543-.327-.842-.195-.807-.056-.8.084-.787.216-.78.348-.78.5-.794.529-.675.64-.7,1.65-1.531,2.826-2.137,4.914-3.091,14.9-8.6,4.441-2.715,3.418-2.381,3.091-2.541,1.963-1.984,1.33-1.692.835-1.427.418-.968.285-.981Z" transform="translate(-15.307 -21.771)" fill="url(#linear-gradient-15)"/>
    <path id="Path_236" data-name="Path 236" d="M0,137.621V119.78l.188,1.705.522,1.956.849,1.942L2.729,127.3l1.719,2.144,2.123,2.109,3.836,3.167,4.65,3.376,14.521,9.07v17.841l-14.521-9.063-4.65-3.383-3.836-3.167-2.123-2.109-1.719-2.144-1.169-1.914L.71,141.283l-.522-1.949Z" transform="translate(0 -36.401)" fill="url(#linear-gradient-16)"/>
    <path id="Path_237" data-name="Path 237" d="M62.51,142.52v17.841L42.49,171.916V154.075l3.564-2.06Z" transform="translate(-12.913 -43.311)" fill="#727272"/>
    <path id="Path_238" data-name="Path 238" d="M213.059,173.52v17.841l-11.43-6.077-5.1-2.248-3.362-1.2-1.629-.473L190.025,181l-1.74-.313-1.392-.167-1.371-.084-1.343-.021-1.33.063-1.316.139-1.309.209-1.316.3-1.03.285-1.316.439-3.467,1.413-7.956,3.905L154.253,193.2l-8.388,4.845-4.984,2.617-4.037,1.747-3.536,1.253-3.056.863-3.042.668-2.555.4-2.06.23-2.06.125-3.446.049-3.432-.139-3.39-.327-3.348-.515-3.306-.7-3.265-.884L96.7,202.206l-7.379-3.049-8.527-4.142-11.1-6.1V171.069l11.1,6.1,8.527,4.149,7.379,3.042,3.648,1.232,3.265.884,3.306.7,3.348.515,3.39.327,3.432.139,3.446-.049,2.06-.132,2.06-.223,2.555-.4,3.042-.668,3.056-.863,3.536-1.253,4.037-1.747,4.984-2.624,8.388-4.838,10.887-6.042,7.956-3.9L176.563,164l1.316-.446,1.03-.278,1.316-.3,1.309-.216,1.316-.132,1.33-.063,1.343.014,1.371.09,1.392.167,1.74.313,1.511.355,1.629.48,3.362,1.2,5.1,2.241Z" transform="translate(-21.179 -49.405)" fill="url(#linear-gradient-17)"/>
    <path id="Path_239" data-name="Path 239" d="M297.884,159.86V177.7L275.65,190.537V172.7Z" transform="translate(-83.769 -48.581)" fill="url(#linear-gradient-18)"/>
    <path id="Path_240" data-name="Path 240" d="M324.554,80.43V98.271l-.084,2-.306,1.476-.564,1.483-.807,1.483-1.295,1.775-1.928,2.054-2.395,2.06-2.84,2.06-3.759,2.332-7.274,4.2L288.2,128.545l-2.228-1.608-2.29-2.019-1.295-1.4-.78-1.086-.452-.849-.258-.654-.2-.828-.063-.807.077-.794.209-.787.348-.787.487-.787.627-.78.975-.961,2.019-1.664,2.694-1.949,15.238-9.439,7.274-4.2,3.759-2.332,2.84-2.06,2.395-2.06,1.928-2.053,1.295-1.775.807-1.483.564-1.483.306-1.476Z" transform="translate(-85.283 -24.442)" fill="url(#linear-gradient-15)"/>
    <path id="Path_241" data-name="Path 241" d="M162.62,93.911l.759.153,1.2.237.473.1,2.3.592.174.049,2.513.78-1.692-1.963-1.114-1.685-.7-1.392-.432-1.392-.167-1.392.056-1.128.223-1.114.223-.654.4-.87.807-1.323,1.267-1.587,1.879-1.886,3-2.45,3.313-2.311L181.464,72l11.966-6.905,1.866-1.051,2.346-1.469,2.687-1.692,2.972-2.255,1.782-1.664.7-.787.6-.766.578-.912.411-.919.258-.926.1-.933-.063-.9-.223-.947-.383-.961-.341-.64-.418-.647-.912-1.156-1.552-1.559-2.457-2.026-3.091-2.158L194.2,38.23l16.365-9.481,13.073,8.144,4.177,3,3.759,3.056,2.047,2,1.643,2.012,1.086,1.768.8,1.8.487,1.817.181,1.573-.077,1.852-.278,1.343-.508,1.364-.745,1.392-1.2,1.594-1.81,1.928-2.269,1.949-2.722,1.97-3.641,2.3L217.3,73.787l-15.314,9.5L199.2,85.314l-2.137,1.747-1.079,1.079-.731.9-.571.912-.4.926-.251.933-.084.94.07.947.23.954.3.773.522.975.87,1.211,1.392,1.531,2.422,2.13,3.815,2.784,1.323.954,2.562,1.573,4.239,2.6L192.963,120l-9.7-5.165-5.325-2.367-3.557-1.281-1.824-.529-1.712-.411-1.97-.348-1.629-.195-1.608-.111H164.04l-1.58.077-1.559.16-1.545.251-1.524.341-1.211.334-1.5.5-3.641,1.511-8.1,3.968-10.964,6.084-8.353,4.824L119.19,130.2l-3.836,1.664-3.334,1.176-2.84.807-2.819.613-2.339.376-1.852.2-1.852.118L97.1,135.2l-3.181-.132-3.153-.306-3.119-.473-3.084-.654L81.5,132.8l-3.481-1.162-7.2-2.965-8.353-4.079-9.133-5.047,16.358-9.453,6.042,3.216L80,115.177l3.056,1.072,1.469.439,1.392.362,1.956.4,1.657.23,1.643.153,1.629.049,1.622-.042,1.608-.132,1.587-.223.794-.146,1.051-.23,2.144-.585,2.784-.975,3.557-1.5,3.132-1.538,3.272-1.8,14.9-8.611,6.411-3.4,4.747-2.088,3.689-1.33,2.784-.8,1.531-.362,1.866-.355,1.845-.258,1.879-.146,1.9-.049,1.935.049,2.353.195ZM25.14,60.867l-1.852,1.086-6.516,3.759-3.188,1.942-2.374,1.671L8.545,71.538,6.693,73.453,5.461,75.089l-.9,1.622-.5,1.343L3.777,79.39,3.7,81.249l.209,1.587L4.4,84.66l.787,1.81,1.093,1.782,1.615,2.019L9.9,92.261l3.689,3.1,4.539,3.3L30.771,106.5l16.365-9.425-1.392-.87-2.652-1.629L40,92.429,37.545,90.4,36,88.837l-.954-1.128-.418-.64-.341-.647-.383-.954-.223-.947-.07-.94.1-.933.258-.926.411-.919.578-.912.6-.766.7-.787,1.768-1.671L40.99,74.42l5.033-3.16,14.924-8.611,4.365-2.666,3.293-2.3L71.57,55.25l1.845-1.859,1.225-1.566.766-1.295.362-.856.251-.863.16-1.093V46.611l-.195-1.128-.466-1.392-.7-1.392L73.61,41.07l-1.754-1.928,2.555.759,2.52.606,2.471.466,2.443.32,2.395.167h1.97l1.935-.07,1.914-.174,1.886-.271,1.517-.3,1.545-.355,3.181-.919,3.731-1.392,4.782-2.088,6.425-3.411L126.938,24.5l3.272-1.8,3.132-1.538,3.557-1.511,2.784-.961,2.137-.592,1.051-.23.787-.146,1.594-.223,1.636-.1,1.615-.042,1.636.049,1.643.146,1.664.237,1.949.4,1.392.362,1.469.439,3.07,1.093,4.267,1.873,6.077,3.23,16.358-9.453L178.9,10.706l-7.887-3.877-7.622-3.216-3.432-1.176-3.035-.842-3.07-.7-3.07-.452L147.605.132,144.424,0l-3.209.042L139.363.16l-1.866.2-2.346.376-2.833.626-2.854.814-3.362,1.2-3.856,1.685-4.942,2.6-7.267,4.177L99.519,17.681l-8.353,4.128-4.177,1.726-1.552.536-1.253.355L82.6,24.8l-1.594.271-1.608.181-1.615.084H76.143l-1.65-.1-1.615-.174-2.019-.348L68.772,24.2l-1.879-.536-3.627-1.323-5.353-2.367-9.14-4.873L30.047,25.916l6.884,4.218,5.193,3.71,2.443,2.123,1.392,1.511.87,1.19.529.954.334.752.244.933.09.919-.07.933-.195.891-.376.891-.529.891-.7.877-1.023,1.037-2.318,1.9-2.784,2.026-2.715,1.65Z" transform="translate(-1.124)" fill="url(#linear-gradient-20)"/>
  </g>
</svg>
