<svg xmlns="http://www.w3.org/2000/svg" width="79.968" height="191.104" viewBox="0 0 79.968 191.104">
  <g id="Layer_2" data-name="Layer 2" transform="translate(0 0)">
    <g id="Layer_1" data-name="Layer 1" transform="translate(0 0)">
      <path id="Path_370" data-name="Path 370" d="M59.205,1.531,9.493,29.97A18.823,18.823,0,0,0,0,46.3L.143,169.8v7.942A14.046,14.046,0,0,0,18.252,190.5h.1a4.083,4.083,0,0,0,.429-.225l44.506-32.542A18.9,18.9,0,0,0,72.72,141.4L78.4,63.574l.96-51.039C79.621,5.1,69.719-3.573,59.205,1.531Z" transform="translate(0 0)" fill="#9f9f9f"/>
      <path id="Path_371" data-name="Path 371" d="M59.985,4.343l-47.3,27.071A18.925,18.925,0,0,0,3.189,47.746l-.184,129.19c-.347,10.473,7.86,14.291,14.168,10.534l49.263-28.4a18.66,18.66,0,0,0,9.473-16.149L76.5,11.182C76.5,3.914,68.335-.924,59.985,4.343Z" transform="translate(3.119 2.211)" fill="#e9e9e9"/>
      <path id="Path_372" data-name="Path 372" d="M59.838,5.034l-46.629,26.7a18.6,18.6,0,0,0-9.35,16.026L3.7,175.157c-.347,10.33,7.758,14.005,13.985,10.371l48.528-28.051a18.374,18.374,0,0,0,9.33-15.9L76.13,11.791C76.13,4.625,68.045-.152,59.838,5.034Z" transform="translate(3.838 2.97)" fill="#3f3f3f"/>
      <path id="Path_373" data-name="Path 373" d="M5.845,46.86,5.8,63.948l-.225,101.4,63.982-36.707.082-26.683.327-91.952Z" transform="translate(5.812 10.426)" fill="#9c9c9c"/>
    </g>
  </g>
</svg>
