<svg xmlns="http://www.w3.org/2000/svg" width="42.001" height="42" viewBox="0 0 42.001 42">
  <path id="Icon_awesome-linkedin-in" data-name="Icon awesome-linkedin-in" d="M9.4,42H.694V13.959H9.4ZM5.043,10.134a5.067,5.067,0,1,1,5.043-5.091A5.085,5.085,0,0,1,5.043,10.134ZM41.992,42H33.3V28.35c0-3.253-.066-7.425-4.527-7.425-4.527,0-5.221,3.534-5.221,7.191V42h-8.7V13.959h8.351v3.825h.122a9.15,9.15,0,0,1,8.239-4.528C40.381,13.256,42,19.06,42,26.6V42Z" transform="translate(0 -0.001)" fill="#707070"/>
</svg>
