<svg xmlns="http://www.w3.org/2000/svg" width="52.074" height="42.294" viewBox="0 0 52.074 42.294">
  <path id="Icon_awesome-twitter" data-name="Icon awesome-twitter" d="M46.721,13.921c.033.463.033.925.033,1.388,0,14.109-10.739,30.366-30.366,30.366A30.16,30.16,0,0,1,0,40.883a22.078,22.078,0,0,0,2.577.132,21.374,21.374,0,0,0,13.25-4.56,10.691,10.691,0,0,1-9.979-7.4,13.459,13.459,0,0,0,2.016.165,11.288,11.288,0,0,0,2.809-.363A10.674,10.674,0,0,1,2.115,18.382V18.25A10.748,10.748,0,0,0,6.939,19.6,10.688,10.688,0,0,1,3.635,5.33,30.336,30.336,0,0,0,25.64,16.5a12.048,12.048,0,0,1-.264-2.445,10.683,10.683,0,0,1,18.47-7.3A21.012,21.012,0,0,0,50.62,4.174a10.644,10.644,0,0,1-4.692,5.881A21.4,21.4,0,0,0,52.074,8.4a22.942,22.942,0,0,1-5.353,5.518Z" transform="translate(0 -3.381)" fill="#707070"/>
</svg>
