<?xml version="1.0" standalone="no"?>
<!DOCTYPE svg PUBLIC "-//W3C//DTD SVG 20010904//EN"
 "http://www.w3.org/TR/2001/REC-SVG-20010904/DTD/svg10.dtd">
<svg version="1.0" xmlns="http://www.w3.org/2000/svg"
 width="8331.000000pt" height="8331.000000pt" viewBox="0 0 8331.000000 8331.000000"
 preserveAspectRatio="xMidYMid meet">

<g transform="translate(0.000000,8331.000000) scale(0.100000,-0.100000)"
fill="#000000" stroke="none">
<path d="M44030 61849 c-349 -31 -639 -278 -729 -622 -52 -198 -30 -401 62
-584 l27 -51 -317 -549 c-1718 -2975 -3413 -5918 -3413 -5926 0 -8 148 -265
990 -1722 194 -335 527 -911 740 -1280 368 -636 930 -1608 1030 -1780 25 -44
126 -219 225 -390 98 -170 188 -320 199 -333 12 -13 20 -25 19 -28 -10 -16 1
-21 27 -11 17 6 30 17 30 24 0 7 9 13 20 13 11 0 20 4 20 9 0 5 8 11 18 15 9
3 24 10 32 16 8 5 26 14 40 20 14 5 32 14 40 20 83 55 235 140 249 140 11 0
21 6 24 14 3 8 22 22 41 31 20 10 36 21 36 26 0 5 9 9 19 9 11 0 21 6 24 13 3
9 11 9 34 1 18 -7 37 -8 44 -3 14 9 14 9 -23 13 -19 2 -20 22 -1 37 16 13 17
12 4 -4 -17 -22 -11 -29 11 -13 15 11 15 15 3 37 -8 13 -17 31 -21 39 -4 8
-56 98 -114 200 -59 102 -160 277 -225 390 -261 455 -310 539 -512 890 -349
604 -1768 3066 -1927 3342 -82 141 -149 259 -150 263 -1 7 165 295 2085 3623
l1406 2436 97 13 c53 6 121 19 152 28 281 81 497 307 575 600 25 95 30 276 10
370 -91 420 -472 702 -901 664z m151 -479 c116 -22 200 -88 252 -198 28 -59
32 -78 32 -152 0 -75 -4 -93 -31 -151 -41 -86 -89 -138 -161 -174 -53 -27 -66
-30 -163 -29 -85 0 -114 4 -151 21 -132 60 -219 213 -206 361 21 220 211 363
428 322z m-1061 -12620 c0 -5 -4 -10 -9 -10 -6 0 -13 5 -16 10 -3 6 1 10 9 10
9 0 16 -4 16 -10z"/>
<path d="M44628 59024 c-374 -67 -655 -384 -684 -771 -10 -141 22 -296 89
-428 l25 -50 -1055 -1829 c-931 -1613 -1054 -1832 -1044 -1849 7 -10 347 -598
755 -1306 1212 -2098 1825 -3157 1864 -3221 12 -19 22 -29 22 -22 0 7 5 10 10
7 6 -4 8 -10 6 -14 -3 -4 1 -8 9 -8 13 0 13 4 0 24 -10 14 -11 23 -4 23 6 0
23 8 37 18 15 11 52 32 82 48 30 16 64 37 74 47 11 9 30 17 42 17 12 0 24 6
27 14 6 15 62 46 83 46 8 0 19 9 26 20 7 11 21 20 30 20 10 0 18 4 18 9 0 5
15 14 33 20 19 7 42 19 53 29 10 9 49 32 87 51 43 22 67 41 67 52 0 18 -23 42
-33 33 -3 -3 -3 3 0 15 3 12 1 21 -6 21 -6 0 -10 4 -9 8 2 6 -320 574 -478
842 -18 30 -133 231 -256 445 -124 215 -532 923 -908 1574 -375 651 -684 1191
-687 1200 -2 10 81 165 198 367 111 192 236 408 278 480 42 73 371 643 731
1267 l655 1136 55 5 c232 25 402 100 545 241 165 163 249 367 247 605 -1 141
-24 238 -86 365 -164 331 -532 516 -898 449z m315 -502 c77 -38 119 -83 161
-172 27 -57 31 -76 31 -150 0 -76 -3 -93 -33 -152 -76 -155 -223 -230 -388
-199 -125 23 -196 76 -251 188 -36 72 -38 83 -38 168 0 82 4 96 33 156 38 75
87 127 150 160 63 32 97 38 189 35 68 -2 92 -8 146 -34z m318 -8546 c7 4 9 3
5 -4 -9 -15 -43 -11 -43 5 0 9 4 10 13 2 7 -6 19 -7 25 -3z m-64 -22 c-3 -3
-12 -4 -19 -1 -8 3 -5 6 6 6 11 1 17 -2 13 -5z m-567 -328 c0 -2 -7 -7 -16
-10 -8 -3 -12 -2 -9 4 6 10 25 14 25 6z m-36 -24 c3 -5 -1 -9 -9 -9 -8 0 -12
4 -9 9 3 4 7 8 9 8 2 0 6 -4 9 -8z"/>
<path d="M44480 54528 c-128 -222 -233 -407 -233 -413 0 -5 217 -386 483 -845
266 -459 605 -1046 755 -1305 699 -1209 799 -1380 809 -1387 6 -4 7 -8 2 -8
-6 0 -5 -5 1 -11 8 -8 17 -6 34 10 13 11 31 21 41 21 11 0 31 11 46 25 15 14
35 25 45 25 10 0 28 10 41 23 12 13 56 40 97 60 41 21 88 46 104 56 51 32 157
91 161 91 3 0 14 9 26 20 12 11 34 20 49 20 18 0 28 6 32 20 3 11 9 19 14 18
8 -3 13 5 13 23 0 5 -5 7 -12 3 -6 -4 -8 -3 -5 3 4 6 -101 199 -234 430 -320
554 -721 1252 -1434 2488 -323 561 -591 1024 -595 1028 -4 5 -112 -173 -240
-395z m2240 -3698 c0 -5 -4 -10 -9 -10 -6 0 -13 5 -16 10 -3 6 1 10 9 10 9 0
16 -4 16 -10z m-429 -183 c-6 -8 -7 -18 -3 -23 4 -4 -1 -2 -10 5 -19 14 -25
26 -9 16 5 -3 12 -1 16 5 3 5 9 10 12 10 3 0 0 -6 -6 -13z"/>
<path d="M46385 50490 c3 -5 8 -10 11 -10 2 0 4 5 4 10 0 6 -5 10 -11 10 -5 0
-7 -4 -4 -10z"/>
<path d="M46406 50401 c-3 -5 1 -11 9 -14 9 -4 12 -1 8 9 -6 16 -10 17 -17 5z"/>
<path d="M45295 49900 c10 -11 20 -20 23 -20 3 0 -3 9 -13 20 -10 11 -20 20
-23 20 -3 0 3 -9 13 -20z"/>
<path d="M42936 48574 c-4 -9 -4 -19 -1 -22 3 -3 5 0 5 7 0 7 4 9 10 6 6 -3 7
1 4 9 -8 20 -10 20 -18 0z"/>
<path d="M42888 48526 c10 -21 42 -31 42 -14 0 5 -6 8 -12 5 -7 -2 -19 3 -26
12 -12 14 -12 14 -4 -3z"/>
<path d="M41944 46161 c4 -5 2 -11 -3 -13 -5 -1 -71 -109 -146 -238 -338 -579
-465 -800 -465 -805 0 -3 195 -5 433 -5 l432 0 110 192 c61 106 133 233 160
283 28 49 64 112 80 139 28 47 28 49 7 44 -12 -3 -20 -2 -19 4 1 6 -18 21 -43
35 -24 13 -48 30 -53 38 -4 8 -12 15 -17 15 -5 0 -20 10 -33 23 -13 12 -59 46
-103 75 -43 30 -133 90 -200 135 -115 78 -153 99 -140 78z m216 -141 c0 -5 -2
-10 -4 -10 -3 0 -8 5 -11 10 -3 6 -1 10 4 10 6 0 11 -4 11 -10z"/>
<path d="M34849 45786 c-1 -9 -2 -21 -3 -27 0 -6 -10 -17 -20 -25 -11 -8 -16
-14 -10 -14 5 0 4 -4 -3 -8 -6 -4 -13 -14 -15 -22 -2 -8 -9 -20 -17 -26 -11
-9 -12 -12 -1 -19 9 -6 11 -4 5 5 -5 9 -4 11 4 6 6 -4 9 -12 5 -17 -3 -5 -9
-7 -13 -4 -14 8 -33 -22 -268 -430 -127 -220 -371 -643 -543 -940 -322 -557
-1098 -1899 -1272 -2200 l-98 -170 467 -3 c366 -2 470 1 479 10 6 7 173 294
371 638 198 344 524 909 723 1255 200 347 472 819 606 1050 179 310 239 423
232 433 -8 9 -7 11 6 6 12 -5 20 3 31 30 9 20 13 41 10 46 -4 6 -3 15 1 22 5
8 10 6 15 -8 6 -14 8 -11 6 14 -1 28 -3 31 -13 18 -6 -9 -17 -16 -24 -16 -7 0
-11 3 -7 6 3 4 -10 21 -29 39 -18 18 -34 37 -34 44 0 6 -17 11 -40 11 -22 0
-40 5 -40 10 0 6 -18 10 -40 10 -28 0 -40 4 -40 14 0 8 -6 17 -12 19 -10 4
-10 6 0 6 6 1 12 6 12 11 0 6 -17 10 -39 10 -30 0 -40 4 -44 20 -4 15 -14 20
-41 20 -20 0 -36 4 -36 9 0 4 -14 22 -30 40 -25 26 -38 31 -76 31 -27 0 -51 6
-60 15 -9 8 -13 15 -10 15 9 0 -38 46 -66 65 -25 16 -28 16 -29 1z m21 -16 c0
-5 -5 -10 -11 -10 -5 0 -7 5 -4 10 3 6 8 10 11 10 2 0 4 -4 4 -10z m250 -310
c0 -5 -4 -10 -9 -10 -6 0 -13 5 -16 10 -3 6 1 10 9 10 9 0 16 -4 16 -10z"/>
<path d="M42909 45399 c-117 -204 -213 -377 -211 -382 2 -6 76 -135 164 -286
89 -152 171 -293 182 -313 12 -21 27 -40 34 -43 8 -3 10 0 6 8 -5 9 -4 9 7 0
7 -7 17 -13 21 -13 4 0 8 6 8 13 0 6 42 30 93 51 50 22 146 65 212 96 162 77
243 113 302 134 l31 12 -105 184 c-237 416 -503 876 -516 893 -12 17 -34 -18
-228 -354z"/>
<path d="M34960 45726 c0 -11 10 -16 32 -16 34 0 29 13 -9 25 -17 5 -23 2 -23
-9z"/>
<path d="M35120 45640 c0 -5 9 -10 21 -10 11 0 17 5 14 10 -3 6 -13 10 -21 10
-8 0 -14 -4 -14 -10z"/>
<path d="M36583 44813 c-3 -10 -7 -21 -9 -24 -2 -3 3 -6 9 -6 7 0 14 11 15 24
2 27 -6 30 -15 6z"/>
<path d="M36607 44766 c-4 -11 -12 -14 -19 -9 -24 14 -36 11 -33 -8 2 -10 -1
-18 -7 -16 -7 1 -122 -189 -258 -423 -580 -1001 -1235 -2134 -1905 -3295
l-162 -280 -1854 -2 -1854 -3 -22 38 c-98 172 -297 314 -508 362 -82 19 -114
22 -223 17 -326 -14 -601 -190 -732 -468 -54 -117 -73 -208 -73 -359 -1 -225
55 -384 192 -547 92 -111 274 -221 436 -264 113 -30 308 -30 420 -1 186 50
363 174 470 332 l49 70 2085 0 2086 1 109 192 c61 106 386 671 724 1257 338
586 770 1335 960 1665 190 330 426 740 524 910 99 171 180 314 181 320 1 5 10
18 20 29 10 11 15 26 13 33 -3 7 -2 13 3 13 4 0 7 12 5 28 -3 39 -3 39 -19 18
-15 -19 -15 -19 -15 3 0 12 4 19 10 16 6 -3 10 4 11 17 0 14 3 17 6 8 2 -8 7
-22 10 -30 4 -8 5 -18 5 -22 -3 -11 16 -10 22 1 3 5 -1 14 -10 21 -12 11 -12
15 -2 21 19 12 30 11 22 -3 -4 -7 -3 -8 5 -4 15 10 3 29 -14 22 -8 -3 -19 2
-26 10 -7 9 -21 13 -32 10 -12 -3 -31 8 -57 34 -39 39 -110 65 -110 41 0 -6
-5 -11 -12 -11 -6 0 -9 3 -5 6 3 4 -10 21 -29 39 -18 18 -34 37 -34 44 0 6
-17 11 -39 11 -30 0 -40 4 -44 20 -4 14 -14 20 -35 20 -37 0 -64 9 -57 20 3 5
15 6 28 4 20 -4 21 -4 2 5 -11 5 -37 10 -57 10 -31 1 -38 5 -38 21 0 17 -7 20
-40 20 -32 0 -42 5 -53 26 -12 22 -15 24 -20 10z m-6681 -4113 c70 -24 163
-119 194 -198 36 -92 33 -200 -7 -286 -40 -86 -79 -129 -155 -170 -60 -32 -68
-34 -168 -34 -95 0 -111 3 -161 28 -69 33 -132 99 -167 175 -23 49 -27 70 -27
148 0 84 2 95 38 167 37 74 82 123 147 158 74 39 209 45 306 12z"/>
<path d="M36633 44767 c2 -7 14 -14 26 -15 28 -4 20 13 -9 21 -14 3 -20 1 -17
-6z"/>
<path d="M41960 44255 l0 -375 424 0 425 0 -123 213 c-67 116 -165 285 -216
375 l-94 162 -208 0 -208 0 0 -375z"/>
<path d="M38305 43819 c4 -5 1 -9 -4 -9 -15 0 -7 -40 10 -51 11 -7 12 -9 0 -9
-11 0 -11 -3 -1 -15 7 -9 10 -18 7 -21 -3 -3 -15 11 -27 33 -11 21 -18 28 -14
14 4 -17 2 -22 -7 -19 -9 3 -24 -13 -40 -41 -14 -25 -135 -235 -269 -466 -134
-231 -376 -649 -538 -930 -162 -280 -318 -550 -347 -600 -29 -49 -169 -292
-312 -540 -1169 -2025 -1321 -2288 -1370 -2370 l-29 -50 -3402 -3 -3401 -2
-42 62 c-98 146 -257 268 -420 322 -385 128 -828 -44 -1012 -393 -73 -138 -92
-218 -92 -396 0 -200 31 -315 125 -458 247 -380 786 -494 1163 -247 81 52 201
174 242 244 l27 46 3641 0 3642 0 160 278 c87 152 340 590 560 972 714 1237
1231 2132 1570 2720 182 316 436 757 564 978 128 222 230 406 227 409 -3 4 2
12 12 19 12 8 17 23 16 48 -1 20 2 34 7 31 4 -3 6 -13 2 -23 -3 -9 3 -6 13 8
10 14 18 28 16 33 -1 4 1 7 6 7 4 0 8 12 8 28 1 15 -1 21 -3 14 -3 -6 -10 -9
-16 -5 -15 9 -19 10 -61 12 -19 0 -36 7 -39 15 -4 10 0 12 14 9 10 -3 19 0 19
6 0 6 -7 11 -15 11 -8 0 -15 5 -15 10 0 6 -18 10 -40 10 -22 0 -40 5 -40 10 0
6 -17 10 -39 10 -22 0 -44 6 -51 15 -7 8 -9 15 -6 15 4 0 -9 15 -28 34 -20 18
-36 38 -36 45 0 6 -17 11 -40 11 -22 0 -40 5 -40 10 0 6 -18 10 -40 10 -28 0
-40 4 -40 14 0 8 -6 17 -12 19 -10 4 -10 6 0 6 6 1 12 6 12 11 0 6 -18 10 -40
10 -33 0 -40 3 -40 20 0 17 -7 20 -52 20 -52 0 -58 15 -8 22 25 3 24 3 -8 20
-18 9 -30 12 -27 7z m669 -395 c3 -8 2 -12 -4 -9 -6 3 -10 10 -10 16 0 14 7
11 14 -7z m1 -34 c3 -5 1 -10 -4 -10 -6 0 -11 5 -11 10 0 6 2 10 4 10 3 0 8
-4 11 -10z m-10994 -4733 c71 -34 123 -86 162 -162 29 -56 32 -67 32 -160 0
-87 -3 -107 -26 -156 -53 -112 -139 -178 -260 -199 -167 -29 -317 48 -387 199
-37 79 -43 203 -12 280 62 159 179 235 351 228 68 -2 97 -8 140 -30z"/>
<path d="M38720 43560 c0 -5 9 -10 21 -10 11 0 17 5 14 10 -3 6 -13 10 -21 10
-8 0 -14 -4 -14 -10z"/>
<path d="M48844 42699 c-3 -6 -1 -16 5 -22 8 -8 11 -119 11 -369 0 -334 -1
-358 -17 -359 -12 -1 -10 -4 7 -9 17 -5 19 -8 8 -9 -20 -1 -25 -21 -5 -21 8 0
7 -4 -3 -10 -10 -6 419 -10 1220 -10 l1235 -1 89 -157 c87 -152 963 -1671
2603 -4512 l794 -1375 -45 -90 c-65 -129 -88 -223 -89 -370 -1 -66 5 -147 12
-180 32 -145 111 -297 214 -411 87 -96 240 -187 387 -230 100 -29 337 -27 443
4 237 68 426 230 533 455 57 121 69 183 69 352 0 170 -12 227 -76 360 -124
260 -368 431 -669 470 l-45 6 -246 427 c-136 235 -537 929 -891 1542 -589
1018 -1434 2481 -2285 3955 l-329 570 -1461 3 c-1047 1 -1464 -1 -1469 -9z
m6808 -7002 c70 -34 121 -90 161 -176 27 -57 31 -77 31 -146 0 -113 -28 -181
-108 -261 -76 -76 -135 -99 -251 -98 -148 1 -257 70 -320 199 -26 53 -30 70
-30 155 0 83 3 103 28 156 37 79 107 148 183 180 52 22 71 24 154 22 80 -3
105 -8 152 -31z"/>
<path d="M48850 40720 c10 -6 11 -10 3 -10 -20 0 -15 -20 5 -21 11 -1 9 -4 -8
-9 -17 -5 -19 -8 -7 -9 16 -1 17 -25 17 -359 0 -250 -3 -361 -11 -369 -31 -31
4 -33 654 -33 l652 -1 415 -721 c228 -396 475 -825 548 -952 74 -127 221 -382
327 -566 106 -184 280 -487 388 -673 l195 -338 -43 -70 c-185 -300 -143 -719
100 -987 177 -195 393 -282 668 -270 305 15 563 186 697 463 102 210 115 425
41 642 -96 280 -354 501 -637 546 l-75 12 -366 635 c-202 349 -504 871 -671
1160 -167 289 -357 617 -422 730 -65 113 -249 430 -407 705 l-289 500 -895 2
c-582 2 -889 -1 -879 -7z m37 -592 c-1 -101 -2 -19 -2 182 0 201 1 283 2 183
2 -101 2 -265 0 -365z m3974 -3639 c69 -32 122 -86 162 -164 29 -56 32 -67 32
-160 0 -93 -2 -105 -33 -167 -75 -153 -241 -227 -412 -184 -162 41 -262 175
-264 351 -1 69 3 89 30 145 72 152 170 212 339 207 72 -2 101 -7 146 -28z"/>
<path d="M48855 38730 c3 -5 0 -10 -7 -10 -10 0 -10 -2 1 -9 11 -7 11 -9 0
-14 -8 -3 -5 -6 8 -6 12 -1 24 5 26 12 3 6 5 -35 4 -93 l-1 -105 -3 88 c-3 59
-8 87 -16 87 -9 0 -11 -84 -9 -364 l2 -365 -32 -4 c-29 -3 -28 -4 10 -5 23 -1
42 -6 42 -12 0 -7 183 -10 530 -10 292 0 530 3 530 6 0 4 -105 189 -232 410
l-233 404 -292 0 c-224 0 -293 -3 -296 -12 -4 -10 -6 -10 -6 0 -1 6 -8 12 -17
12 -8 0 -12 -4 -9 -10z"/>
<path d="M19024 30349 c-164 -27 -330 -111 -458 -230 -138 -130 -224 -273
-269 -447 -22 -86 -22 -97 -22 -762 0 -619 2 -681 18 -753 42 -176 121 -315
256 -447 143 -139 310 -223 495 -249 53 -8 605 -11 1743 -11 1856 0 1708 6
1759 -69 l24 -36 0 -591 0 -591 -22 -33 c-13 -18 -39 -41 -58 -51 -33 -18 -98
-19 -1691 -19 l-1656 0 -33 23 c-71 48 -75 60 -78 253 l-3 174 -381 0 -380 0
5 -222 c4 -181 9 -239 26 -305 77 -305 316 -553 626 -650 l90 -28 1780 0 1780
0 85 23 c277 73 529 305 621 569 48 139 49 154 49 858 0 705 -1 719 -49 859
-43 124 -156 287 -258 372 -113 96 -221 154 -368 197 -69 21 -83 21 -1797 27
-1724 5 -1727 5 -1754 26 -15 11 -37 33 -48 48 -21 27 -21 37 -21 621 0 587 0
594 21 622 11 15 36 38 54 51 l33 22 1656 0 c1557 0 1658 -1 1691 -18 19 -9
45 -32 57 -51 22 -32 23 -44 23 -207 l0 -174 381 0 381 0 -4 243 c-4 233 -5
245 -32 327 -51 155 -117 263 -231 375 -129 130 -277 211 -449 246 -87 18
-167 19 -1816 18 -949 -1 -1748 -5 -1776 -10z"/>
<path d="M24970 27830 l0 -2530 2320 0 2320 0 0 380 0 380 -1940 0 -1940 0 0
695 0 695 1560 0 1560 0 0 380 0 380 -1560 0 -1560 0 0 695 0 695 1940 0 1940
0 0 380 0 380 -2320 0 -2320 0 0 -2530z"/>
<path d="M31945 30345 c-179 -33 -338 -119 -472 -256 -114 -116 -181 -228
-230 -386 l-28 -88 0 -1785 0 -1785 28 -88 c49 -158 108 -257 221 -376 119
-124 237 -196 403 -248 l88 -28 2153 -3 2152 -2 0 380 0 380 -2089 0 -2088 0
-34 23 c-18 12 -44 38 -56 56 l-23 34 0 1654 c0 1811 -5 1677 60 1738 l31 30
2100 3 2099 2 0 380 0 380 -2122 -1 c-1699 -1 -2137 -3 -2193 -14z"/>
<path d="M37840 28272 c0 -1360 4 -2117 10 -2172 48 -392 344 -711 729 -784
74 -14 274 -16 1791 -16 1483 0 1719 2 1795 15 337 59 619 321 713 663 l27 97
3 2143 2 2142 -380 0 -380 0 0 -2083 0 -2083 -22 -44 c-13 -24 -36 -53 -51
-64 -28 -21 -31 -21 -1693 -24 -1846 -2 -1696 -8 -1751 65 l-28 36 -3 2099 -2
2098 -380 0 -380 0 0 -2088z"/>
<path d="M51220 27830 l0 -2530 380 0 380 0 0 2530 0 2530 -380 0 -380 0 0
-2530z"/>
<path d="M53380 29980 l0 -380 1075 0 1075 0 0 -2150 0 -2150 380 0 380 0 0
2150 0 2150 1075 0 1075 0 0 380 0 380 -2530 0 -2530 0 0 -380z"/>
<path d="M59620 30355 c0 -3 524 -716 1165 -1584 l1165 -1579 0 -946 0 -946
380 0 380 0 0 950 0 951 1112 1507 c611 829 1136 1540 1165 1580 l54 72 -453
-1 -453 0 -904 -1150 c-734 -936 -906 -1148 -916 -1137 -7 7 -416 525 -910
1151 l-897 1137 -444 0 c-244 0 -444 -2 -444 -5z"/>
<path d="M44540 27825 l0 -2525 380 0 380 0 0 908 0 907 937 -3 938 -2 26 -28
c15 -15 358 -422 763 -904 l737 -878 449 0 450 0 0 55 0 56 -711 847 -711 847
344 6 c355 5 365 6 498 54 110 39 274 155 357 253 106 125 177 266 207 414 23
111 24 1684 1 1793 -61 290 -275 550 -546 663 -160 66 -7 62 -2364 62 l-2135
0 0 -2525z m4220 1749 c19 -11 45 -35 57 -54 l23 -33 0 -756 c0 -737 -1 -757
-20 -789 -11 -18 -34 -41 -52 -52 -33 -20 -54 -20 -1698 -20 -1631 0 -1666 1
-1694 20 -17 10 -40 36 -53 57 l-23 38 0 743 c0 716 1 744 19 781 22 41 59 70
106 82 16 4 766 6 1665 6 1630 -2 1635 -2 1670 -23z"/>
<path d="M24900 22180 l0 -730 613 0 c705 0 686 -2 768 80 81 81 80 75 77 676
-3 510 -3 520 -25 559 -28 53 -78 99 -133 124 -44 20 -63 21 -672 21 l-628 0
0 -730z m1228 498 c9 -9 12 -132 12 -492 0 -432 -2 -481 -17 -498 -15 -17 -44
-18 -494 -18 -421 0 -479 2 -493 16 -14 14 -16 73 -16 498 0 361 3 485 12 494
9 9 133 12 498 12 365 0 489 -3 498 -12z"/>
<path d="M27062 22183 l3 -728 108 -3 107 -3 0 731 0 730 -110 0 -110 0 2
-727z"/>
<path d="M28170 22901 c-50 -16 -89 -41 -124 -83 -66 -77 -67 -85 -64 -659 3
-576 0 -551 78 -629 78 -78 53 -75 628 -78 568 -3 582 -2 655 58 20 17 49 53
65 78 l27 47 3 308 3 307 -280 0 -281 0 0 -110 0 -110 170 0 170 0 0 -170 c0
-157 -1 -170 -19 -180 -13 -6 -186 -10 -494 -10 -446 0 -475 1 -490 18 -15 17
-17 65 -17 491 0 306 4 479 10 492 10 18 26 19 498 19 366 0 491 -3 500 -12 7
-7 12 -36 12 -65 l0 -53 110 0 110 0 0 66 c0 100 -16 141 -80 204 -36 37 -69
60 -96 68 -47 14 -1050 16 -1094 3z"/>
<path d="M30140 22180 l0 -730 110 0 110 0 0 730 0 730 -110 0 -110 0 0 -730z"/>
<path d="M30990 22800 l0 -110 310 0 310 0 0 -620 0 -621 108 3 107 3 3 618 2
617 310 0 310 0 0 110 0 110 -730 0 -730 0 0 -110z"/>
<path d="M33248 22896 c-57 -21 -114 -72 -142 -128 l-26 -52 0 -633 0 -634
108 3 107 3 3 253 2 252 510 0 510 0 0 -255 0 -255 105 0 105 0 0 634 0 634
-28 53 c-31 60 -93 113 -150 129 -59 16 -1057 13 -1104 -4z m1057 -230 c13
-19 15 -59 13 -252 l-3 -229 -507 -3 -508 -2 0 243 c0 176 3 246 12 255 9 9
133 12 495 12 l483 0 15 -24z"/>
<path d="M35242 22183 l3 -728 728 -3 727 -2 0 110 0 110 -620 0 -620 0 0 620
0 620 -110 0 -110 0 2 -727z"/>
<path d="M37810 22800 l0 -110 310 0 310 0 0 -620 0 -621 108 3 107 3 3 618 2
617 310 0 310 0 0 110 0 110 -730 0 -730 0 0 -110z"/>
<path d="M39900 22180 l0 -730 665 0 665 0 0 110 0 110 -555 0 -555 0 0 200 0
200 450 0 450 0 0 110 0 110 -450 0 -450 0 0 200 0 200 555 0 555 0 0 110 0
110 -665 0 -665 0 0 -730z"/>
<path d="M42080 22889 c-55 -25 -105 -71 -133 -124 -22 -39 -22 -49 -25 -559
-3 -601 -4 -595 78 -676 81 -82 63 -81 765 -78 l610 3 3 108 3 107 -605 0
c-536 0 -606 2 -620 16 -14 14 -16 73 -16 498 0 361 3 485 12 494 9 9 160 12
620 12 l608 0 0 110 0 110 -627 0 c-610 0 -629 -1 -673 -21z"/>
<path d="M44062 22183 l3 -728 108 -3 107 -3 0 311 0 310 530 0 530 0 0 -310
0 -311 108 3 107 3 3 728 2 727 -110 0 -110 0 -2 -307 -3 -308 -527 -3 -528
-2 0 310 0 310 -110 0 -110 0 2 -727z"/>
<path d="M46260 22180 l0 -730 110 0 110 0 2 580 3 580 485 -578 486 -577 132
-3 132 -3 0 731 0 730 -110 0 -110 0 -2 -579 -3 -579 -485 578 -485 579 -132
0 -133 1 0 -730z"/>
<path d="M48588 22896 c-57 -21 -114 -72 -142 -128 l-26 -52 0 -533 c0 -435 3
-540 14 -567 19 -47 82 -113 130 -139 41 -22 45 -22 581 -22 538 0 540 0 581
22 55 29 103 78 125 128 17 37 19 79 19 576 l0 537 -28 53 c-31 60 -93 113
-150 129 -59 16 -1057 13 -1104 -4z m1054 -223 c17 -15 18 -44 18 -487 0 -411
-2 -474 -16 -494 l-15 -22 -483 0 c-361 0 -485 3 -494 12 -9 9 -12 133 -12
498 0 365 3 489 12 498 9 9 132 12 492 12 432 0 481 -2 498 -17z"/>
<path d="M50580 22180 l0 -730 725 0 725 0 0 110 0 110 -617 2 -618 3 -3 618
-2 617 -105 0 -105 0 0 -730z"/>
<path d="M52810 22901 c-50 -16 -89 -41 -124 -83 -66 -77 -67 -85 -64 -659 3
-576 0 -551 78 -629 78 -78 53 -75 628 -78 568 -3 582 -2 655 58 20 17 49 53
65 78 l27 47 3 525 c2 394 0 536 -9 570 -17 59 -106 151 -165 168 -47 14
-1050 16 -1094 3z m1038 -223 c9 -9 12 -134 12 -500 0 -472 -1 -488 -19 -498
-13 -6 -186 -10 -492 -10 -426 0 -474 2 -491 17 -17 15 -18 44 -18 490 0 308
4 481 10 494 10 18 26 19 498 19 366 0 491 -3 500 -12z"/>
<path d="M54954 22897 c-74 -28 -138 -93 -162 -166 -9 -24 -12 -187 -12 -555
l0 -521 24 -51 c13 -28 43 -67 67 -87 78 -68 85 -68 661 -65 l513 3 54 30 c54
30 83 61 117 125 17 32 19 65 22 338 l3 302 -285 0 -286 0 0 -110 0 -110 175
0 175 0 0 -163 c0 -146 -2 -166 -18 -180 -17 -15 -65 -17 -491 -17 -306 0
-479 4 -492 10 -18 10 -19 26 -19 498 0 366 3 491 12 500 9 9 134 12 500 12
553 0 508 7 508 -84 l0 -46 110 0 110 0 0 50 c0 124 -43 208 -135 265 l-48 30
-536 2 c-395 1 -544 -1 -567 -10z"/>
<path d="M56887 22858 c21 -29 172 -234 335 -456 l298 -403 0 -275 0 -274 110
0 110 0 0 275 0 274 334 453 334 453 -125 3 c-69 1 -130 -2 -137 -7 -6 -5
-123 -154 -261 -330 -137 -176 -252 -320 -255 -320 -3 0 -121 149 -264 330
l-259 329 -129 0 -130 0 39 -52z"/>
</g>
</svg>
